<svg width="60" height="60" viewBox="0 0 60 60" fill="none" xmlns="http://www.w3.org/2000/svg">
<path d="M2.50363 27.5004C1.1231 27.5004 0.00396336 28.6195 0.00396336 30C0.00396336 31.3806 1.1231 32.4997 2.50363 32.4997C3.88416 32.4997 5.0033 31.3806 5.0033 30C5.0033 28.6195 3.88416 27.5004 2.50363 27.5004Z" fill="white"/>
<path d="M21.8771 59.9204C23.2158 60.265 24.5804 59.4591 24.925 58.1203C25.2696 56.7816 24.4636 55.417 23.1249 55.0724C14.2277 52.7824 7.21762 45.7723 4.92766 36.8752C4.58309 35.5364 3.21848 34.7305 1.87973 35.075C0.540981 35.4196 -0.264962 36.7842 0.0796073 38.123C2.82419 48.7864 11.2136 57.1759 21.8771 59.9204Z" fill="white"/>
<path d="M38.1229 0.0796079C36.7842 -0.264963 35.4195 0.54098 35.075 1.87973C34.7304 3.21848 35.5364 4.58309 36.8751 4.92766C45.7722 7.21762 52.7824 14.2277 55.0723 23.1249C55.4169 24.4636 56.7815 25.2696 58.1203 24.925C59.459 24.5804 60.265 23.2158 59.9204 21.8771C57.1758 11.2136 48.7864 2.8242 38.1229 0.0796079Z" fill="white"/>
<path d="M57.4964 27.5004C56.1158 27.5004 54.9967 28.6195 54.9967 30C54.9967 31.3806 56.1158 32.4997 57.4964 32.4997C58.8769 32.4997 59.996 31.3806 59.996 30C59.996 28.6195 58.8769 27.5004 57.4964 27.5004Z" fill="white"/>
<path d="M15.002 36.3416V34.7117C15.002 33.9982 15.1898 33.2973 15.5466 32.6794C15.9033 32.0615 16.4164 31.5484 17.0343 31.1917L21.8987 28.383C22.0912 28.2719 22.257 28.1201 22.3846 27.9381C22.5123 27.7562 22.5985 27.5486 22.6375 27.3298C22.6764 27.111 22.667 26.8864 22.6099 26.6716C22.5529 26.4568 22.4496 26.2571 22.3072 26.0865L21.6 25.239C20.5889 24.0328 19.8928 22.6518 19.7952 21.0015C19.7404 20.0738 19.9019 19.1105 20.0635 18.6339C20.2933 17.9326 20.6671 17.287 21.161 16.7387C21.6627 16.1914 22.2727 15.7543 22.9523 15.4553C23.6319 15.1563 24.3663 15.0019 25.1088 15.0019C25.8513 15.0019 26.5857 15.1563 27.2653 15.4553C27.9449 15.7543 28.5549 16.1914 29.0566 16.7387C29.5505 17.287 29.9243 17.9326 30.1541 18.6339C30.2957 19.0489 30.4357 19.8331 30.4333 20.6414C28.5213 22.5318 27.3366 25.1563 27.3366 28.0575C27.3366 30.0374 27.8884 31.8884 28.8465 33.4653C28.8352 33.4703 28.824 33.4753 28.8128 33.4803C28.8043 33.4841 28.7959 33.4879 28.7875 33.4917C26.9909 34.3063 25.716 35.2971 24.8128 36.3416H15.002Z" fill="white"/>
<path d="M26.4131 42.2107V43.8406H46.6267V42.2107C46.6267 41.4972 46.4389 40.7963 46.0821 40.1784C45.7254 39.5605 45.2123 39.0474 44.5944 38.6907L39.73 35.883C39.5375 35.7719 39.3717 35.6201 39.2441 35.4382C39.1165 35.2562 39.0302 35.0486 38.9913 34.8298C38.9523 34.611 38.9617 34.3864 39.0188 34.1716C39.0758 33.9568 39.1791 33.7571 39.3215 33.5865L40.0287 32.738C41.0398 31.5318 41.7349 30.1508 41.8335 28.5006C41.8883 27.5728 41.7278 26.6095 41.5652 26.1329C41.3355 25.4316 40.9616 24.7861 40.4677 24.2377C39.966 23.6904 39.356 23.2533 38.6764 22.9543C37.9968 22.6553 37.2624 22.5009 36.5199 22.5009C35.7774 22.5009 35.0431 22.6553 34.3634 22.9543C33.6838 23.2533 33.0738 23.6904 32.5721 24.2377C32.0782 24.7861 31.7044 25.4316 31.4746 26.1329C31.3131 26.6095 31.1515 27.5728 31.2064 28.5006C31.3039 30.1508 32 31.5318 33.0111 32.738L33.7183 33.5855C33.8607 33.7561 33.964 33.9558 34.021 34.1706C34.0781 34.3854 34.0875 34.61 34.0486 34.8288C34.0097 35.0476 33.9234 35.2552 33.7958 35.4372C33.6681 35.6191 33.5023 35.7709 33.3098 35.882L28.4454 38.6907C27.8275 39.0474 27.3144 39.5605 26.9577 40.1784C26.6009 40.7963 26.4131 41.4972 26.4131 42.2107Z" fill="white"/>
</svg>
