<?xml version="1.0" encoding="UTF-8" standalone="no"?>
<!-- Created with Inkscape (http://www.inkscape.org/) -->

<svg
   width="600"
   height="300"
   viewBox="0 0 600 300"
   version="1.1"
   id="svg1"
   xml:space="preserve"
   inkscape:version="1.3 (0e150ed6c4, 2023-07-21)"
   sodipodi:docname="hyprdots_arch.svg"
   inkscape:export-filename="hyprdots_arch_2.png"
   inkscape:export-xdpi="96"
   inkscape:export-ydpi="96"
   xmlns:inkscape="http://www.inkscape.org/namespaces/inkscape"
   xmlns:sodipodi="http://sodipodi.sourceforge.net/DTD/sodipodi-0.dtd"
   xmlns="http://www.w3.org/2000/svg"
   xmlns:svg="http://www.w3.org/2000/svg"><sodipodi:namedview
     id="namedview1"
     pagecolor="#ffffff"
     bordercolor="#000000"
     borderopacity="0.25"
     inkscape:showpageshadow="2"
     inkscape:pageopacity="0.0"
     inkscape:pagecheckerboard="0"
     inkscape:deskcolor="#d1d1d1"
     inkscape:document-units="px"
     inkscape:zoom="1.6269531"
     inkscape:cx="193.61345"
     inkscape:cy="117.09004"
     inkscape:window-width="2540"
     inkscape:window-height="1028"
     inkscape:window-x="0"
     inkscape:window-y="0"
     inkscape:window-maximized="1"
     inkscape:current-layer="g17"
     showgrid="true"><inkscape:grid
       id="grid15"
       units="px"
       originx="0"
       originy="0"
       spacingx="1"
       spacingy="1"
       empcolor="#0099e5"
       empopacity="0.30196078"
       color="#0099e5"
       opacity="0.14901961"
       empspacing="5"
       dotted="false"
       gridanglex="30"
       gridanglez="30"
       visible="true" /></sodipodi:namedview><defs
     id="defs1"><filter
       id="mask-powermask-path-effect5_inverse"
       inkscape:label="filtermask-powermask-path-effect5"
       style="color-interpolation-filters:sRGB"
       height="100"
       width="100"
       x="-50"
       y="-50"><feColorMatrix
         id="mask-powermask-path-effect5_primitive1"
         values="1"
         type="saturate"
         result="fbSourceGraphic" /><feColorMatrix
         id="mask-powermask-path-effect5_primitive2"
         values="-1 0 0 0 1 0 -1 0 0 1 0 0 -1 0 1 0 0 0 1 0 "
         in="fbSourceGraphic" /></filter><clipPath
       clipPathUnits="userSpaceOnUse"
       id="clipPath1"><circle
         style="display:inline;fill:#000000;fill-opacity:1;stroke:none;stroke-width:0.21372"
         id="circle3"
         cx="44.88604"
         cy="38.248913"
         r="22.841549"
         inkscape:label="clip" /></clipPath><clipPath
       clipPathUnits="userSpaceOnUse"
       id="clipPath3"><circle
         style="display:inline;opacity:1;fill:#000000;fill-opacity:1;stroke:none;stroke-width:2.64583;stroke-dasharray:none;stroke-opacity:1"
         id="circle4"
         cx="39.235207"
         cy="39.029049"
         r="25.959433"
         inkscape:label="clip" /></clipPath><clipPath
       clipPathUnits="userSpaceOnUse"
       id="clipPath4"><circle
         style="display:inline;opacity:1;fill:#000000;fill-opacity:1;stroke:none;stroke-width:0.242893"
         id="circle5"
         cx="39.997181"
         cy="39.029049"
         r="25.959433"
         inkscape:label="clip" /></clipPath><clipPath
       clipPathUnits="userSpaceOnUse"
       id="clipPath19"><g
         id="g20"
         inkscape:label="mask"
         style="display:inline"><circle
           style="display:inline;opacity:1;fill:#ffffff;fill-opacity:1;stroke:#000000;stroke-width:1.323;stroke-dasharray:none;stroke-opacity:1"
           id="circle20"
           cx="39.997181"
           cy="39.029049"
           r="25.959433"
           inkscape:label="circle" /><path
           style="display:inline;fill:#ffffff;fill-opacity:1;stroke:none;stroke-width:1.323;stroke-linecap:round;stroke-linejoin:round;stroke-dasharray:none;stroke-opacity:1"
           d="M 40.972417,71.748504 65.106856,9.0738004 51.262295,8.5125342 29.653552,71.374327 Z"
           id="path20"
           inkscape:label="slash" /></g></clipPath><filter
       id="mask-powermask-path-effect2_inverse"
       inkscape:label="filtermask-powermask-path-effect2"
       style="color-interpolation-filters:sRGB"
       height="100"
       width="100"
       x="-50"
       y="-50"><feColorMatrix
         id="mask-powermask-path-effect2_primitive1"
         values="1"
         type="saturate"
         result="fbSourceGraphic" /><feColorMatrix
         id="mask-powermask-path-effect2_primitive2"
         values="-1 0 0 0 1 0 -1 0 0 1 0 0 -1 0 1 0 0 0 1 0 "
         in="fbSourceGraphic" /></filter><filter
       style="color-interpolation-filters:sRGB;"
       inkscape:label="Color Shift"
       id="filter15"
       x="0"
       y="0"
       width="1"
       height="1"><feColorMatrix
         type="hueRotate"
         values="50"
         result="color1"
         id="feColorMatrix14" /><feColorMatrix
         type="saturate"
         values="0.16007"
         result="color2"
         id="feColorMatrix15" /></filter><clipPath
       clipPathUnits="userSpaceOnUse"
       id="clipPath6"><path
         d="m 418.65593,41.52652 c -9.29195,23.22986 -15.26534,37.83149 -25.8847,60.39764 6.6371,7.30082 14.60163,15.26535 27.21212,23.89358 -13.93791,-5.30968 -23.22985,-11.28307 -29.86696,-17.25647 -13.93792,28.53955 -35.17665,68.36218 -77.65412,146.0163 33.18552,-19.91132 59.73394,-31.85811 84.29123,-36.50408 -1.32742,-4.64596 -1.99113,-9.29194 -1.99113,-14.60163 v -0.6637 c 0.66371,-21.90245 11.94678,-38.49522 25.22098,-37.16779 13.27421,0.66371 23.89358,19.24761 23.22987,41.15005 l -1.32742,11.28307 c 23.89358,4.64597 49.77828,17.25648 82.96381,35.84036 l -17.92019,-33.18551 c -8.62823,-6.63711 -17.92018,-15.26534 -36.50408,-25.221 12.61051,3.31855 21.90246,7.30082 29.20327,11.28308 C 442.54951,101.26046 437.90354,87.32254 418.65593,40.8628 Z"
         fill="#1793d1"
         id="path6"
         style="display:inline;fill:#000000;fill-opacity:1;stroke-width:0.663711"
         inkscape:label="clip" /></clipPath><clipPath
       clipPathUnits="userSpaceOnUse"
       id="clipPath7"><path
         d="m 418.65593,41.52652 c -9.29195,23.22986 -15.26534,37.83149 -25.8847,60.39764 6.6371,7.30082 14.60163,15.26535 27.21212,23.89358 -13.93791,-5.30968 -23.22985,-11.28307 -29.86696,-17.25647 -13.93792,28.53955 -35.17665,68.36218 -77.65412,146.0163 33.18552,-19.91132 59.73394,-31.85811 84.29123,-36.50408 -1.32742,-4.64596 -1.99113,-9.29194 -1.99113,-14.60163 v -0.6637 c 0.66371,-21.90245 11.94678,-38.49522 25.22098,-37.16779 13.27421,0.66371 23.89358,19.24761 23.22987,41.15005 l -1.32742,11.28307 c 23.89358,4.64597 49.77828,17.25648 82.96381,35.84036 l -17.92019,-33.18551 c -8.62823,-6.63711 -17.92018,-15.26534 -36.50408,-25.221 12.61051,3.31855 21.90246,7.30082 29.20327,11.28308 C 442.54951,101.26046 437.90354,87.32254 418.65593,40.8628 Z"
         fill="#1793d1"
         id="path7"
         style="display:inline;fill:#000000;fill-opacity:1;stroke-width:0.663711"
         inkscape:label="clip" /></clipPath><clipPath
       clipPathUnits="userSpaceOnUse"
       id="clipPath8"><path
         d="m 418.65593,41.52652 c -9.29195,23.22986 -15.26534,37.83149 -25.8847,60.39764 6.6371,7.30082 14.60163,15.26535 27.21212,23.89358 -13.93791,-5.30968 -23.22985,-11.28307 -29.86696,-17.25647 -13.93792,28.53955 -35.17665,68.36218 -77.65412,146.0163 33.18552,-19.91132 59.73394,-31.85811 84.29123,-36.50408 -1.32742,-4.64596 -1.99113,-9.29194 -1.99113,-14.60163 v -0.6637 c 0.66371,-21.90245 11.94678,-38.49522 25.22098,-37.16779 13.27421,0.66371 23.89358,19.24761 23.22987,41.15005 l -1.32742,11.28307 c 23.89358,4.64597 49.77828,17.25648 82.96381,35.84036 l -17.92019,-33.18551 c -8.62823,-6.63711 -17.92018,-15.26534 -36.50408,-25.221 12.61051,3.31855 21.90246,7.30082 29.20327,11.28308 C 442.54951,101.26046 437.90354,87.32254 418.65593,40.8628 Z"
         fill="#1793d1"
         id="path9"
         style="display:inline;fill:#000000;fill-opacity:1;stroke-width:0.663711"
         inkscape:label="clip" /></clipPath><clipPath
       clipPathUnits="userSpaceOnUse"
       id="clipPath10"><path
         d="m 418.65593,41.52652 c -9.29195,23.22986 -15.26534,37.83149 -25.8847,60.39764 6.6371,7.30082 14.60163,15.26535 27.21212,23.89358 -13.93791,-5.30968 -23.22985,-11.28307 -29.86696,-17.25647 -13.93792,28.53955 -35.17665,68.36218 -77.65412,146.0163 33.18552,-19.91132 59.73394,-31.85811 84.29123,-36.50408 -1.32742,-4.64596 -1.99113,-9.29194 -1.99113,-14.60163 v -0.6637 c 0.66371,-21.90245 11.94678,-38.49522 25.22098,-37.16779 13.27421,0.66371 23.89358,19.24761 23.22987,41.15005 l -1.32742,11.28307 c 23.89358,4.64597 49.77828,17.25648 82.96381,35.84036 l -17.92019,-33.18551 c -8.62823,-6.63711 -17.92018,-15.26534 -36.50408,-25.221 12.61051,3.31855 21.90246,7.30082 29.20327,11.28308 C 442.54951,101.26046 437.90354,87.32254 418.65593,40.8628 Z"
         fill="#1793d1"
         id="path11"
         style="display:inline;fill:#000000;fill-opacity:1;stroke-width:0.663711"
         inkscape:label="clip" /></clipPath></defs><g
     inkscape:label="Layer 1"
     inkscape:groupmode="layer"
     id="layer1"><g
       inkscape:label="hypr"
       id="layer1-2"
       transform="matrix(3.7795276,0,0,3.7795276,10.090209,-6.6795538)"
       style="display:inline"
       sodipodi:insensitive="true"><circle
         style="display:inline;opacity:1;fill:#faf4ed;fill-opacity:1;stroke:none;stroke-width:2.64583;stroke-dasharray:none;stroke-opacity:1"
         id="path1"
         cx="39.997181"
         cy="39.029049"
         r="25.959431"
         inkscape:label="base"
         sodipodi:insensitive="true" /><circle
         style="display:inline;opacity:1;fill:#313244;fill-opacity:1;stroke:#faf4ed;stroke-width:1.32292;stroke-linecap:round;stroke-linejoin:round;stroke-dasharray:none;stroke-opacity:1"
         id="path23"
         cx="59.239162"
         cy="65.282417"
         r="3.9791903"
         inkscape:label="dots"
         sodipodi:insensitive="true" /><path
         style="display:inline;opacity:1;fill:#ebbcba;fill-opacity:1;stroke:none;stroke-width:2.64583;stroke-linecap:round;stroke-linejoin:round;stroke-dasharray:none;stroke-opacity:1"
         d="M 14.113556,8.1829745 56.98133,12.94242 37.386776,66.72921 7.3373035,66.366241 Z"
         id="path4"
         sodipodi:nodetypes="ccccc"
         inkscape:label="rose_pine"
         clip-path="url(#clipPath4)"
         sodipodi:insensitive="true" /><path
         style="display:inline;opacity:1;fill:#c79bf0;fill-opacity:1;stroke:none;stroke-width:2.64583;stroke-linecap:round;stroke-linejoin:round;stroke-dasharray:none;stroke-opacity:1"
         d="m 38.53683,10.093324 c -4.365942,9.204371 -6.195104,15.177206 -7.207595,27.726667 -0.991944,12.294793 2.307273,27.137042 4.047673,28.491534 L 8.1586184,69.098661 11.655182,10.116831 Z"
         id="path8"
         inkscape:label="decay_ce"
         clip-path="url(#clipPath3)"
         sodipodi:nodetypes="cscccc"
         transform="translate(0.76197263)"
         sodipodi:insensitive="true" /><path
         style="display:inline;opacity:1;fill:#a9b1d6;fill-opacity:1;stroke:none;stroke-width:2.64583;stroke-linecap:round;stroke-linejoin:round;stroke-dasharray:none;stroke-opacity:1"
         d="m 42.192726,12.318411 c -4.211383,1.986898 -14.038715,6.1886 -14.817953,16.984439 -1.04881,14.530574 8.416642,27.085895 14.90106,33.18835 l -22.176874,3.329798 -0.9709,-51.470147 z"
         id="path12"
         inkscape:label="tokyo_night"
         clip-path="url(#clipPath1)"
         sodipodi:nodetypes="cscccc"
         transform="matrix(1.1365005,0,0,1.1365005,-11.015826,-4.4408595)"
         sodipodi:insensitive="true" /><path
         style="display:inline;fill:none;stroke:#313244;stroke-width:5.29167;stroke-linecap:round;stroke-linejoin:round;stroke-dasharray:none;stroke-opacity:1"
         d="M 56.155019,14.892653 37.161315,67.306549 c 0.34522,-0.825973 6.533363,-17.660613 9.643704,-21.103821 4.780254,-5.291832 13.007552,-2.764636 13.142556,4.977296 0.04382,2.512914 -1.431223,15.998469 -1.431223,15.998469"
         id="path2"
         sodipodi:nodetypes="ccssc"
         inkscape:label="hypr"
         clip-path="url(#clipPath19)"
         mask="none"
         sodipodi:insensitive="true" /><circle
         style="display:inline;opacity:1;fill:none;fill-opacity:1;stroke:#313244;stroke-width:1.32292;stroke-dasharray:none;stroke-opacity:1"
         id="circle8"
         cx="39.997181"
         cy="39.029049"
         r="25.959431"
         inkscape:label="border"
         sodipodi:insensitive="true" /></g><g
       id="g21"
       inkscape:label="arch"
       transform="translate(15.366147)"
       sodipodi:insensitive="true"><path
         d="m 418.65593,41.52652 c -9.29195,23.22986 -15.26534,37.83149 -25.8847,60.39764 6.6371,7.30082 14.60163,15.26535 27.21212,23.89358 -13.93791,-5.30968 -23.22985,-11.28307 -29.86696,-17.25647 -13.93792,28.53955 -35.17665,68.36218 -77.65412,146.0163 33.18552,-19.91132 59.73394,-31.85811 84.29123,-36.50408 -1.32742,-4.64596 -1.99113,-9.29194 -1.99113,-14.60163 v -0.6637 c 0.66371,-21.90245 11.94678,-38.49522 25.22098,-37.16779 13.27421,0.66371 23.89358,19.24761 23.22987,41.15005 l -1.32742,11.28307 c 23.89358,4.64597 49.77828,17.25648 82.96381,35.84036 l -17.92019,-33.18551 c -8.62823,-6.63711 -17.92018,-15.26534 -36.50408,-25.221 12.61051,3.31855 21.90246,7.30082 29.20327,11.28308 C 442.54951,101.26046 437.90354,87.32254 418.65593,40.8628 Z"
         fill="#1793d1"
         id="path1-2"
         style="display:inline;fill:#313244;fill-opacity:1;stroke-width:0.663711"
         inkscape:label="arch"
         sodipodi:insensitive="true" /><path
         style="display:inline;opacity:1;fill:#ebbcba;fill-opacity:1;stroke:none;stroke-width:9.99999;stroke-linecap:round;stroke-linejoin:round;stroke-dasharray:none;stroke-opacity:1"
         d="M 309.2552,25.453285 471.27515,43.441735 397.21699,246.7304 283.64418,245.35855 Z"
         id="path18"
         sodipodi:nodetypes="ccccc"
         inkscape:label="rose_pine"
         clip-path="url(#clipPath8)"
         sodipodi:insensitive="true" /><path
         style="display:inline;opacity:1;fill:#c79bf0;fill-opacity:1;stroke:none;stroke-width:9.99999;stroke-linecap:round;stroke-linejoin:round;stroke-dasharray:none;stroke-opacity:1"
         d="m 404.44355,32.67351 c -16.5012,34.788169 -23.41457,57.362678 -27.2413,104.79371 -3.74908,46.46851 8.7204,102.56519 15.29829,107.68453 L 289.62826,255.68581 302.84361,32.762342 Z"
         id="path19"
         inkscape:label="decay_ce"
         clip-path="url(#clipPath7)"
         sodipodi:nodetypes="cscccc"
         sodipodi:insensitive="true" /><path
         style="display:inline;opacity:1;fill:#a9b1d6;fill-opacity:1;stroke:none;stroke-width:11.365;stroke-linecap:round;stroke-linejoin:round;stroke-dasharray:none;stroke-opacity:1"
         d="m 395.51413,30.654091 c -18.08973,8.534584 -60.3024,26.582721 -63.64955,72.955579 -4.50511,62.41512 36.15313,116.34568 64.00652,142.55838 L 300.61179,260.47098 296.44134,39.3843 Z"
         id="path21"
         inkscape:label="tokyo_night"
         clip-path="url(#clipPath6)"
         sodipodi:nodetypes="cscccc"
         sodipodi:insensitive="true" /></g><g
       id="g17"
       inkscape:label="plus"
       style="display:inline"
       transform="translate(-4.3725668,0.65193038)"
       sodipodi:insensitive="true"><path
         style="fill:none;fill-opacity:1;stroke:#313244;stroke-width:8.53717;stroke-linecap:round;stroke-linejoin:round;stroke-dasharray:none;stroke-opacity:1"
         d="M 320.02964,154.32485 V 124.23211"
         id="path79"
         inkscape:label="plusy"
         sodipodi:insensitive="true" /><path
         style="fill:none;fill-opacity:1;stroke:#313244;stroke-width:8.53717;stroke-linecap:round;stroke-linejoin:round;stroke-dasharray:none;stroke-opacity:1"
         d="M 335.07601,139.27848 H 304.98327"
         id="path107"
         inkscape:label="plusx"
         sodipodi:insensitive="true" /></g></g></svg>
