<?xml version="1.0" encoding="UTF-8" standalone="no"?>
<!-- Created with Inkscape (http://www.inkscape.org/) -->

<svg
   width="1920"
   height="1080"
   viewBox="0 0 480 270"
   version="1.1"
   id="svg1"
   inkscape:version="1.3.2 (091e20ef0f, 2023-11-25)"
   sodipodi:docname="retroboot.svg"
   inkscape:export-filename="retroboot.png"
   inkscape:export-xdpi="96"
   inkscape:export-ydpi="96"
   xmlns:inkscape="http://www.inkscape.org/namespaces/inkscape"
   xmlns:sodipodi="http://sodipodi.sourceforge.net/DTD/sodipodi-0.dtd"
   xmlns="http://www.w3.org/2000/svg"
   xmlns:svg="http://www.w3.org/2000/svg"
   xmlns:rdf="http://www.w3.org/1999/02/22-rdf-syntax-ns#"
   xmlns:cc="http://creativecommons.org/ns#"
   xmlns:dc="http://purl.org/dc/elements/1.1/">
  <defs
     id="defs1">
    <rect
       x="228.29448"
       y="311.12698"
       width="547.50269"
       height="98.994949"
       id="rect1" />
    <rect
       x="228.29448"
       y="311.12698"
       width="547.50269"
       height="98.994949"
       id="rect2" />
  </defs>
  <sodipodi:namedview
     id="base"
     pagecolor="#ffffff"
     bordercolor="#000000"
     borderopacity="0.3"
     inkscape:pageopacity="0.0"
     inkscape:pageshadow="2"
     inkscape:zoom="1.979899"
     inkscape:cx="944.99771"
     inkscape:cy="513.15749"
     inkscape:document-units="mm"
     inkscape:showpageshadow="2"
     inkscape:pagecheckerboard="0"
     inkscape:deskcolor="#d1d1d1"
     inkscape:window-width="1922"
     inkscape:window-height="963"
     inkscape:window-x="0"
     inkscape:window-y="0"
     inkscape:window-maximized="1"
     inkscape:current-layer="svg1" />
  <metadata
     id="metadata1">
    <rdf:RDF>
      <cc:Work
         rdf:about="">
        <dc:format>image/svg+xml</dc:format>
        <dc:type
           rdf:resource="http://purl.org/dc/dcmitype/StillImage" />
      </cc:Work>
    </rdf:RDF>
  </metadata>
  <text
     xml:space="preserve"
     transform="matrix(0.25,0,0,0.25,112.12694,35.860415)"
     id="text1"
     style="font-style:normal;font-variant:normal;font-weight:800;font-stretch:normal;font-size:85.3333px;font-family:'JetBrainsMono Nerd Font Mono';-inkscape-font-specification:'JetBrainsMono Nerd Font Mono, Ultra-Bold';font-variant-ligatures:normal;font-variant-caps:normal;font-variant-numeric:normal;font-variant-east-asian:normal;text-align:center;letter-spacing:10px;white-space:pre;shape-inside:url(#rect1);shape-padding:0;display:none;fill:#000000;fill-opacity:1;stroke:none"
     x="0"
     y="0"
     sodipodi:insensitive="true"
     inkscape:label="text"><tspan
       x="231.64585"
       y="387.73298"
       id="tspan2">RetroBoot</tspan></text>
  <path
     id="path16"
     style="font-weight:800;font-size:85.3333px;font-family:'JetBrainsMono Nerd Font Mono';-inkscape-font-specification:'JetBrainsMono Nerd Font Mono, Ultra-Bold';text-align:center;letter-spacing:10px;text-anchor:middle;white-space:pre;display:none;stroke-width:0.25"
     d="m 171.44629,129.72105 v 15.57324 h 3.15723 v -5.88818 h 1.49365 l 2.51709,5.88818 h 3.47754 l -2.94385,-6.3999 c 0.83911,-0.35556 1.50033,-0.93159 1.98389,-1.72803 0.49777,-0.79644 0.74658,-1.6997 0.74658,-2.70947 0,-0.96711 -0.22751,-1.80598 -0.68262,-2.51709 -0.44089,-0.71111 -1.06677,-1.25907 -1.87744,-1.64307 -0.81067,-0.384 -1.77055,-0.57568 -2.87988,-0.57568 z m 76.5,0 v 15.57324 h 5.20556 c 1.06667,0 1.998,-0.18491 2.79444,-0.55469 0.81066,-0.384 1.43655,-0.91017 1.87744,-1.57861 0.45511,-0.68267 0.68262,-1.47217 0.68262,-2.36817 0,-0.66844 -0.12779,-1.27254 -0.38379,-1.81298 -0.24178,-0.54045 -0.5903,-0.98143 -1.04541,-1.32276 -0.44089,-0.35555 -0.95302,-0.56176 -1.53614,-0.61865 v -0.043 c 0.768,-0.11378 1.39389,-0.46181 1.87745,-1.04492 0.48355,-0.59733 0.72509,-1.33697 0.72509,-2.21875 0,-0.81067 -0.22024,-1.51497 -0.66113,-2.11231 -0.42667,-0.59733 -1.03126,-1.0596 -1.81348,-1.38671 -0.768,-0.34134 -1.67076,-0.51172 -2.70898,-0.51172 z m -43.57471,0.5332 v 3.30664 h -3.15723 v 2.87988 h 3.15723 v 5.01368 c 0,1.19466 0.34126,2.13325 1.02393,2.81591 0.68266,0.68267 1.62174,1.02393 2.8164,1.02393 h 3.83985 v -2.87988 h -3.52002 c -0.31289,0 -0.55443,-0.0997 -0.7251,-0.29883 -0.15645,-0.19911 -0.23486,-0.45518 -0.23486,-0.76807 v -4.90674 h 4.58642 v -2.87988 h -4.58642 v -3.30664 z m 91.80029,0 v 3.30664 h -3.15722 v 2.87988 h 3.15722 v 5.01368 c 0,1.19466 0.34126,2.13325 1.02393,2.81591 0.68267,0.68267 1.62125,1.02393 2.81592,1.02393 h 3.83984 v -2.87988 h -3.52002 c -0.31289,0 -0.55443,-0.0997 -0.7251,-0.29883 -0.15644,-0.19911 -0.23486,-0.45518 -0.23486,-0.76807 v -4.90674 h 4.58692 v -2.87988 h -4.58692 v -3.30664 z m -104.4121,3.09326 c -1.03823,0 -1.94825,0.19944 -2.73047,0.59766 -0.768,0.384 -1.36533,0.93147 -1.792,1.64258 -0.41244,0.69688 -0.61914,1.51446 -0.61914,2.45312 v 2.77344 c 0,0.93866 0.2067,1.7635 0.61914,2.47461 0.42667,0.69689 1.024,1.24435 1.792,1.64258 0.78222,0.38399 1.69224,0.57617 2.73047,0.57617 1.26577,0 2.34667,-0.3127 3.24267,-0.93848 0.896,-0.62578 1.4575,-1.4511 1.68506,-2.4751 h -3.13574 c -0.0569,0.28445 -0.25584,0.49792 -0.59717,0.64014 -0.34133,0.14222 -0.73971,0.21338 -1.19482,0.21338 -0.69689,0 -1.22306,-0.17087 -1.57862,-0.51221 -0.34133,-0.34133 -0.51221,-0.88154 -0.51221,-1.62109 v -0.59717 h 7.18946 v -2.17627 c 0,-0.93866 -0.21347,-1.75624 -0.64014,-2.45312 -0.41244,-0.71111 -1.00251,-1.25858 -1.77051,-1.64258 -0.75377,-0.39822 -1.64976,-0.59766 -2.68798,-0.59766 z m 32.39208,0 c -0.86755,0 -1.59316,0.22073 -2.17627,0.66162 -0.56888,0.42667 -0.9387,1.01673 -1.10937,1.77051 v -2.21875 h -3.09326 v 11.7334 h 3.20019 v -6.99756 c 0,-0.69689 0.16361,-1.22983 0.49073,-1.59961 0.32711,-0.384 0.78938,-0.57617 1.38671,-0.57617 0.59734,0 1.05961,0.17087 1.38672,0.51221 0.32711,0.32711 0.49024,0.79616 0.49024,1.40771 v 0.95996 h 3.20019 v -1.17334 c 0,-1.39377 -0.33399,-2.48871 -1.00244,-3.28515 -0.66844,-0.79645 -1.59299,-1.19483 -2.77344,-1.19483 z m 13.48633,0 c -1.03822,0 -1.94098,0.19944 -2.70898,0.59766 -0.768,0.384 -1.36533,0.93147 -1.79199,1.64258 -0.41245,0.69688 -0.61866,1.51446 -0.61866,2.45312 v 2.77344 c 0,0.93866 0.20621,1.7635 0.61866,2.47461 0.42666,0.69689 1.02399,1.24435 1.79199,1.64258 0.768,0.38399 1.67076,0.57617 2.70898,0.57617 1.05244,0 1.9557,-0.19218 2.70948,-0.57617 0.76799,-0.39823 1.35855,-0.94569 1.77099,-1.64258 0.42667,-0.71111 0.63965,-1.53595 0.63965,-2.47461 v -2.77344 c 0,-0.93866 -0.21298,-1.75624 -0.63965,-2.45312 -0.41244,-0.71111 -1.003,-1.25858 -1.77099,-1.64258 -0.75378,-0.39822 -1.65704,-0.59766 -2.70948,-0.59766 z m 30.6001,0 c -1.03822,0 -1.94098,0.19944 -2.70898,0.59766 -0.768,0.384 -1.36533,0.93147 -1.792,1.64258 -0.41244,0.69688 -0.61865,1.51446 -0.61865,2.45312 v 2.77344 c 0,0.93866 0.20621,1.7635 0.61865,2.47461 0.42667,0.69689 1.024,1.24435 1.792,1.64258 0.768,0.38399 1.67076,0.57617 2.70898,0.57617 1.05244,0 1.9557,-0.19218 2.70948,-0.57617 0.76799,-0.39823 1.35806,-0.94569 1.7705,-1.64258 0.42667,-0.71111 0.64014,-1.53595 0.64014,-2.47461 v -2.77344 c 0,-0.93866 -0.21347,-1.75624 -0.64014,-2.45312 -0.41244,-0.71111 -1.00251,-1.25858 -1.7705,-1.64258 -0.75378,-0.39822 -1.65704,-0.59766 -2.70948,-0.59766 z m 15.3003,0 c -1.03823,0 -1.94148,0.19944 -2.70948,0.59766 -0.768,0.384 -1.36533,0.93147 -1.79199,1.64258 -0.41244,0.69688 -0.61865,1.51446 -0.61865,2.45312 v 2.77344 c 0,0.93866 0.20621,1.7635 0.61865,2.47461 0.42667,0.69689 1.024,1.24435 1.79199,1.64258 0.768,0.38399 1.67125,0.57617 2.70948,0.57617 1.05244,0 1.9552,-0.19218 2.70898,-0.57617 0.768,-0.39823 1.35855,-0.94569 1.77099,-1.64258 0.42667,-0.71111 0.63965,-1.53595 0.63965,-2.47461 v -2.77344 c 0,-0.93866 -0.21298,-1.75624 -0.63965,-2.45312 -0.41244,-0.71111 -1.00299,-1.25858 -1.77099,-1.64258 -0.75378,-0.39822 -1.65654,-0.59766 -2.70898,-0.59766 z"
     inkscape:label="path"
     sodipodi:insensitive="true" />
  <g
     id="g82"
     style="display:none"
     inkscape:label="base"
     sodipodi:insensitive="true">
    <path
       id="path50"
       style="font-weight:800;font-size:85.3333px;font-family:'JetBrainsMono Nerd Font Mono';-inkscape-font-specification:'JetBrainsMono Nerd Font Mono, Ultra-Bold';text-align:center;letter-spacing:10px;text-anchor:middle;white-space:pre;display:none;stroke-width:0.25"
       inkscape:label="glitch7"
       d="m 171.33717,130.05713 v 3.1958 h 3.15723 v -3.1958 z m 5.80176,0 1.36621,3.1958 h 3.47754 l -1.47021,-3.1958 z m 9.51807,0 c 0.10314,0.42661 0.25876,0.82417 0.47119,1.19043 0.42667,0.69689 1.02399,1.24436 1.79199,1.64258 0.78222,0.384 1.69225,0.57617 2.73047,0.57617 1.26578,0 2.34668,-0.31271 3.24268,-0.93848 0.89464,-0.62483 1.45537,-1.44885 1.68359,-2.4707 h -3.13672 c -0.0582,0.28189 -0.25544,0.49436 -0.59473,0.63574 -0.34134,0.14222 -0.73971,0.21338 -1.19482,0.21338 -0.69689,0 -1.22306,-0.17088 -1.57861,-0.51221 -0.0955,-0.0955 -0.17436,-0.21024 -0.24317,-0.33691 z m 17.65381,0 c 0.10497,0.88911 0.42251,1.6188 0.97558,2.17187 0.68267,0.68266 1.62175,1.02393 2.81641,1.02393 h 3.83984 v -2.87988 h -3.52002 c -0.31288,0 -0.55445,-0.0997 -0.72509,-0.29883 -0.004,-0.005 -0.005,-0.012 -0.009,-0.0171 z m 13.35302,0 v 3.1958 h 3.2002 v -3.1958 z m 14.89307,0 c 0.10301,0.42661 0.25876,0.82417 0.47119,1.19043 0.42667,0.69689 1.02399,1.24436 1.79199,1.64258 0.76799,0.384 1.67077,0.57617 2.70899,0.57617 1.05244,0 1.95569,-0.19217 2.70947,-0.57617 0.768,-0.39822 1.35855,-0.94569 1.771,-1.64258 0.21976,-0.36627 0.38033,-0.7638 0.48681,-1.19043 z m 15.28027,0 v 3.1958 h 5.20557 c 1.06667,0 1.99798,-0.18492 2.79443,-0.55469 0.81066,-0.384 1.43657,-0.91016 1.87744,-1.57861 0.2193,-0.32894 0.38248,-0.68399 0.4961,-1.0625 z m 15.31983,0 c 0.10301,0.42661 0.25876,0.82417 0.47119,1.19043 0.42667,0.69689 1.02399,1.24436 1.79199,1.64258 0.768,0.384 1.67077,0.57617 2.70899,0.57617 1.05242,0 1.95569,-0.19217 2.70947,-0.57617 0.768,-0.39822 1.35807,-0.94569 1.77051,-1.64258 0.21976,-0.36627 0.3807,-0.7638 0.4873,-1.19043 z m 15.2998,0 c 0.10302,0.42661 0.25876,0.82417 0.47119,1.19043 0.42666,0.69689 1.024,1.24436 1.792,1.64258 0.768,0.384 1.67125,0.57617 2.70947,0.57617 1.05244,0 1.95521,-0.19217 2.70898,-0.57617 0.768,-0.39822 1.35856,-0.94569 1.771,-1.64258 0.21976,-0.36627 0.38034,-0.7638 0.48682,-1.19043 z m 17.6543,0 c 0.10497,0.88911 0.42251,1.6188 0.97559,2.17187 0.68264,0.68266 1.62124,1.02393 2.81591,1.02393 h 3.83985 v -2.87988 h -3.52002 c -0.31289,0 -0.55443,-0.0997 -0.7251,-0.29883 -0.004,-0.005 -0.005,-0.012 -0.009,-0.0171 z"
       sodipodi:insensitive="true" />
    <path
       id="path51"
       style="font-weight:800;font-size:85.3333px;font-family:'JetBrainsMono Nerd Font Mono';-inkscape-font-specification:'JetBrainsMono Nerd Font Mono, Ultra-Bold';text-align:center;letter-spacing:10px;text-anchor:middle;white-space:pre;display:none;stroke-width:0.25"
       inkscape:label="glitch6"
       d="m 170.12462,129.36426 v 0.69287 h 3.15723 v -0.69287 z m 5.50586,0 0.2959,0.69287 h 3.37354 l -0.31836,-0.69287 z m 9.69922,0 c 0.024,0.2387 0.061,0.47056 0.11475,0.69287 h 3.17187 c -0.10537,-0.19397 -0.17849,-0.42579 -0.22119,-0.69287 z m 17.72022,0 v 0.0488 c 0,0.22678 0.0237,0.43571 0.0483,0.64404 h 3.37793 c -0.13835,-0.18316 -0.20859,-0.41612 -0.21827,-0.69287 z m 13.40136,0 v 0.69287 h 3.2002 v -0.69287 z m 14.77881,0 c 0.024,0.2387 0.0606,0.47057 0.11426,0.69287 h 9.93945 c 0.0555,-0.22229 0.0934,-0.45419 0.11817,-0.69287 z m 15.39453,0 v 0.69287 h 10.37354 c 0.0668,-0.22255 0.11572,-0.45321 0.14599,-0.69287 z m 15.20557,0 c 0.024,0.2387 0.0606,0.47057 0.11426,0.69287 h 9.93945 c 0.0555,-0.22229 0.0934,-0.45419 0.11816,-0.69287 z m 15.2998,0 c 0.024,0.2387 0.0606,0.47057 0.11426,0.69287 h 9.93946 c 0.0555,-0.22229 0.0934,-0.45419 0.11816,-0.69287 z m 17.72022,0 v 0.0488 c 0,0.22678 0.0237,0.43571 0.0483,0.64404 h 3.37744 c -0.13834,-0.18316 -0.20858,-0.41612 -0.21826,-0.69287 z m -102.62012,0.68847 c -3.4e-4,0.002 -0.002,0.003 -0.002,0.004 h 3.13672 c 3.4e-4,-0.002 0.001,-0.003 0.001,-0.004 z"
       sodipodi:insensitive="true" />
    <path
       id="path17"
       style="font-weight:800;font-size:85.3333px;font-family:'JetBrainsMono Nerd Font Mono';-inkscape-font-specification:'JetBrainsMono Nerd Font Mono, Ultra-Bold';text-align:center;letter-spacing:10px;text-anchor:middle;white-space:pre;display:none;stroke-width:0.25"
       inkscape:label="glitch5"
       d="m 172.75425,124.38721 v 4.97705 h 3.15723 v -1.99951 h 1.49365 l 0.85498,1.99951 h 3.35108 l -1.15528,-2.51123 c 0.8391,-0.35555 1.50034,-0.93158 1.98389,-1.72803 0.1473,-0.23567 0.26593,-0.48343 0.36963,-0.73779 z m 15.42334,0 c -0.16125,0.49216 -0.25146,1.02563 -0.25146,1.6123 v 2.77344 c 0,0.20327 0.0138,0.39871 0.0332,0.59131 h 3.06543 c -0.0291,-0.18181 -0.0479,-0.3756 -0.0479,-0.59131 v -0.59717 h 7.18945 v -2.17627 c 0,-0.58667 -0.0935,-1.12014 -0.26025,-1.6123 z m 14.34473,0 v 0.0122 h 3.15723 v 4.96485 h 3.208 c -7.2e-4,-0.0208 -0.008,-0.0368 -0.008,-0.0581 v -4.90674 h 4.58643 v -0.0122 z m 16.55859,0 v 4.97705 h 3.2002 v -3.10889 c 0,-0.69689 0.16361,-1.22984 0.49072,-1.59961 0.0894,-0.10488 0.19078,-0.1923 0.30029,-0.26855 z m 6.2168,0 c 0.0888,0.0602 0.17288,0.12666 0.24756,0.20459 0.32711,0.32711 0.49023,0.79615 0.49023,1.40771 v 0.95996 h 3.2002 v -1.17334 c 0,-0.51114 -0.061,-0.96815 -0.15088,-1.39892 z m 8.77979,0 c -0.16111,0.49216 -0.25098,1.02563 -0.25098,1.6123 v 2.77344 c 0,0.20327 0.0139,0.39871 0.0332,0.59131 h 10.17188 c 0.02,-0.1926 0.0347,-0.38803 0.0347,-0.59131 v -2.77344 c 0,-0.58664 -0.0932,-1.12016 -0.25977,-1.6123 z m 15.17675,0 v 4.97705 h 10.51953 c 0.0251,-0.19867 0.0405,-0.40237 0.0405,-0.6128 0,-0.66843 -0.12779,-1.27254 -0.38379,-1.81298 -0.24177,-0.54044 -0.5903,-0.98143 -1.04541,-1.32276 -0.44088,-0.35556 -0.95302,-0.56176 -1.53613,-0.61865 v -0.043 c 0.52282,-0.0775 0.9742,-0.27205 1.36523,-0.56689 z m 15.42334,0 c -0.1611,0.49216 -0.25097,1.02563 -0.25097,1.6123 v 2.77344 c 0,0.20327 0.0139,0.39871 0.0332,0.59131 h 10.17187 c 0.02,-0.1926 0.0347,-0.38803 0.0347,-0.59131 v -2.77344 c 0,-0.58667 -0.0935,-1.12014 -0.26025,-1.6123 z m 15.29981,0 c -0.16111,0.49216 -0.25098,1.02563 -0.25098,1.6123 v 2.77344 c 0,0.20327 0.0139,0.39871 0.0332,0.59131 h 10.17188 c 0.02,-0.1926 0.0347,-0.38803 0.0347,-0.59131 v -2.77344 c 0,-0.5867 -0.0937,-1.12012 -0.26026,-1.6123 z m 14.34521,0 v 0.0122 h 3.15723 v 4.96485 h 3.20752 c -7.3e-4,-0.0208 -0.008,-0.0368 -0.008,-0.0581 v -4.90674 h 4.58691 v -0.0122 z"
       sodipodi:insensitive="true" />
    <path
       id="path82"
       style="font-weight:800;font-size:85.3333px;font-family:'JetBrainsMono Nerd Font Mono';-inkscape-font-specification:'JetBrainsMono Nerd Font Mono, Ultra-Bold';text-align:center;letter-spacing:10px;text-anchor:middle;white-space:pre;display:none;stroke-width:0.25"
       inkscape:label="glitch4"
       d="m 169.67428,123.30957 v 1.07764 h 10.05518 c 0.13946,-0.34209 0.2382,-0.70176 0.29883,-1.07764 z m 15.95655,0 c -0.055,0.0792 -0.11527,0.15305 -0.16553,0.23682 -0.15467,0.26133 -0.27093,0.54552 -0.36768,0.84082 h 9.72852 c -0.10002,-0.2953 -0.21989,-0.57949 -0.37988,-0.84082 -0.0486,-0.0838 -0.10809,-0.15756 -0.16162,-0.23682 z m 13.81152,0 v 1.07764 h 10.94385 v -1.07764 z m 16.55859,0 v 1.07764 h 3.99121 c 0.29143,-0.20293 0.65226,-0.30762 1.08643,-0.30762 0.46095,0 0.83911,0.1043 1.13916,0.30762 h 3.78711 c -0.0815,-0.39062 -0.1942,-0.75308 -0.34961,-1.07764 h -6.42871 c -0.0502,0.13795 -0.0981,0.27761 -0.13232,0.42871 v -0.42871 z m 15.52979,0 c -0.055,0.0792 -0.11527,0.15305 -0.16553,0.23682 -0.15466,0.26133 -0.27101,0.54552 -0.36767,0.84082 h 9.729 c -0.0999,-0.29533 -0.21987,-0.57947 -0.37988,-0.84082 -0.0486,-0.0838 -0.10807,-0.15756 -0.16162,-0.23682 z m 14.64355,0 v 1.07764 h 8.95996 c 0.18338,-0.13827 0.35784,-0.29188 0.51221,-0.47803 0.14953,-0.1847 0.26735,-0.3877 0.37061,-0.59961 z m 15.95655,0 c -0.055,0.0792 -0.11527,0.15305 -0.16553,0.23682 -0.15467,0.26133 -0.27101,0.54552 -0.36768,0.84082 h 9.72852 c -0.10002,-0.2953 -0.21989,-0.57949 -0.37988,-0.84082 -0.0486,-0.0838 -0.10809,-0.15756 -0.16162,-0.23682 z m 15.2998,0 c -0.055,0.0792 -0.11527,0.15305 -0.16553,0.23682 -0.15466,0.26133 -0.27101,0.54552 -0.36767,0.84082 h 9.72851 c -0.0999,-0.29527 -0.2194,-0.57951 -0.37939,-0.84082 -0.0486,-0.0838 -0.10807,-0.15756 -0.16162,-0.23682 z m 13.81201,0 v 1.07764 h 10.94385 v -1.07764 z"
       sodipodi:insensitive="true" />
    <path
       id="path68"
       style="font-weight:800;font-size:85.3333px;font-family:'JetBrainsMono Nerd Font Mono';-inkscape-font-specification:'JetBrainsMono Nerd Font Mono, Ultra-Bold';text-align:center;letter-spacing:10px;text-anchor:middle;white-space:pre;display:none;stroke-width:0.25"
       inkscape:label="glitch3"
       d="m 217.03684,121.51953 v 0.40088 1.38916 h 3.09327 v -1.38916 -0.40088 z m -46.32666,0.40088 v 1.38916 h 10.35401 c 0.0466,-0.28916 0.0781,-0.58491 0.0781,-0.89404 0,-0.17073 -0.0161,-0.33239 -0.0303,-0.49512 z m 17.55469,0 c -0.66368,0.33747 -1.19234,0.80457 -1.59814,1.38916 h 8.65381 c -0.39485,-0.58451 -0.91713,-1.05172 -1.58057,-1.38916 z m 12.21338,0 v 1.38916 h 10.94385 v -1.38916 z m 20.8374,0 c -0.0244,0.0173 -0.0523,0.0293 -0.0762,0.0474 -0.45485,0.34114 -0.77676,0.79159 -0.97705,1.3418 h 6.42871 c -0.14054,-0.29351 -0.30093,-0.56908 -0.50195,-0.80859 -0.19314,-0.23013 -0.41402,-0.41692 -0.6499,-0.58057 z m 12.84912,0 c -0.66368,0.33747 -1.19233,0.80457 -1.59814,1.38916 h 8.6543 c -0.39494,-0.58451 -0.91761,-1.05172 -1.58106,-1.38916 z m 13.04541,0 v 1.38916 h 9.84278 c 0.20043,-0.41133 0.31162,-0.87537 0.33789,-1.38916 z m 17.55469,0 c -0.66368,0.33747 -1.19234,0.80457 -1.59814,1.38916 h 8.65381 c -0.39485,-0.58451 -0.91713,-1.05172 -1.58057,-1.38916 z m 15.29981,0 c -0.66369,0.33747 -1.19235,0.80457 -1.59815,1.38916 h 8.6543 c -0.39494,-0.58451 -0.9176,-1.05172 -1.58106,-1.38916 z m 12.21386,0 v 1.38916 h 10.94385 v -1.38916 z"
       sodipodi:insensitive="true" />
    <path
       id="path67"
       style="font-weight:800;font-size:85.3333px;font-family:'JetBrainsMono Nerd Font Mono';-inkscape-font-specification:'JetBrainsMono Nerd Font Mono, Ultra-Bold';text-align:center;letter-spacing:10px;text-anchor:middle;white-space:pre;display:none;stroke-width:0.25"
       inkscape:label="glitch2"
       d="m 169.39896,121.08887 v 0.83154 h 10.40186 c -0.0251,-0.28838 -0.0656,-0.56823 -0.13525,-0.83154 z m 32.9253,0 v 0.43066 h -3.15723 v 0.40088 h 10.94385 v -0.40088 h -4.58643 v -0.43066 z m 43.5747,0 v 0.83154 h 10.18067 c 0.004,-0.0775 0.0166,-0.15011 0.0166,-0.22998 0,-0.20771 -0.0155,-0.40783 -0.0444,-0.60156 z m 48.22559,0 v 0.43066 h -3.15723 v 0.40088 h 10.94385 v -0.40088 h -4.58691 v -0.43066 z m -104.41211,0.21728 c -1.03822,0 -1.94825,0.19944 -2.73047,0.59766 -0.01,0.005 -0.0184,0.0116 -0.0283,0.0166 h 5.4751 c -0.01,-0.005 -0.0183,-0.0116 -0.0283,-0.0166 -0.75378,-0.39822 -1.64977,-0.59766 -2.68799,-0.59766 z m 32.39209,0 c -0.83196,0 -1.5297,0.20878 -2.1001,0.61426 h 4.22364 c -0.58053,-0.40273 -1.28417,-0.61426 -2.12354,-0.61426 z m 13.48633,0 c -1.03822,0 -1.941,0.19944 -2.70899,0.59766 -0.01,0.005 -0.0184,0.0116 -0.0283,0.0166 h 5.4751 c -0.01,-0.005 -0.0183,-0.0116 -0.0283,-0.0166 -0.75378,-0.39822 -1.65703,-0.59766 -2.70947,-0.59766 z m 30.6001,0 c -1.03822,0 -1.94099,0.19944 -2.70899,0.59766 -0.01,0.005 -0.0184,0.0116 -0.0283,0.0166 h 5.4751 c -0.01,-0.005 -0.0183,-0.0116 -0.0283,-0.0166 -0.75378,-0.39822 -1.65705,-0.59766 -2.70947,-0.59766 z m 15.30029,0 c -1.03822,0 -1.94147,0.19944 -2.70947,0.59766 -0.01,0.005 -0.0184,0.0116 -0.0283,0.0166 h 5.47509 c -0.01,-0.005 -0.0183,-0.0116 -0.0283,-0.0166 -0.75377,-0.39822 -1.65654,-0.59766 -2.70898,-0.59766 z"
       sodipodi:insensitive="true" />
    <path
       id="path26"
       style="font-weight:800;font-size:85.3333px;font-family:'JetBrainsMono Nerd Font Mono';-inkscape-font-specification:'JetBrainsMono Nerd Font Mono, Ultra-Bold';text-align:center;letter-spacing:10px;text-anchor:middle;white-space:pre;display:none;stroke-width:0.25"
       inkscape:label="glitch1"
       d="m 173.1818,117.67969 v 3.40918 h 10.26661 c -0.11372,-0.42982 -0.2847,-0.82731 -0.51709,-1.19043 -0.44089,-0.71111 -1.06679,-1.25908 -1.87745,-1.64307 -0.81067,-0.384 -1.77055,-0.57568 -2.87988,-0.57568 z m 76.5,0 v 3.40918 h 10.15284 c -0.084,-0.56239 -0.28878,-1.06646 -0.6167,-1.51075 -0.42667,-0.59731 -1.03126,-1.0596 -1.81348,-1.38671 -0.768,-0.34133 -1.67078,-0.51172 -2.70898,-0.51172 z m -43.5747,0.5332 v 2.87598 h 3.20019 v -2.87598 z m 91.80029,0 v 2.87598 h 3.19971 v -2.87598 z"
       sodipodi:insensitive="true" />
  </g>
  <path
     id="path90"
     style="font-weight:800;font-size:85.3333px;font-family:'JetBrainsMono Nerd Font Mono';-inkscape-font-specification:'JetBrainsMono Nerd Font Mono, Ultra-Bold';text-align:center;letter-spacing:10px;text-anchor:middle;white-space:pre;display:inline;fill:#ff7edb;fill-opacity:1;stroke-width:0.25"
     inkscape:label="pink"
     d="m 175.38949,117.67969 v 3.40918 h -5.70215 v 0.83154 h 3.23047 v 1.38916 h -1.03564 v 1.07764 h 3.08007 v 4.97705 h -2.62988 v 0.69287 h 1.21289 v 3.1958 h 3.15723 v -3.1958 h -1.21289 v -0.69287 h 2.34863 l 0.2959,0.69287 h 1.21289 l 1.36621,3.1958 h 3.47754 l -1.47021,-3.1958 h -1.2129 l -0.31835,-0.69287 h 2.62988 l -1.15528,-2.51123 c 0.8391,-0.35555 1.50034,-0.93158 1.98389,-1.72803 0.1473,-0.23567 0.26593,-0.48343 0.36963,-0.73779 h -3.08008 c 0.13946,-0.34209 0.2382,-0.70176 0.29883,-1.07764 h 1.03564 c 0.0466,-0.28916 0.0781,-0.58491 0.0781,-0.89404 0,-0.17073 -0.0161,-0.33239 -0.0303,-0.49512 h -3.23047 c -0.0251,-0.28838 -0.0656,-0.56823 -0.13526,-0.83154 h 5.70215 c -0.11372,-0.42982 -0.2847,-0.82731 -0.51709,-1.19043 -0.44089,-0.71111 -1.06678,-1.25908 -1.87744,-1.64307 -0.81067,-0.384 -1.77055,-0.57568 -2.87988,-0.57568 z m 76.5,0 v 3.40918 h -5.70215 v 0.83154 h 3.23047 v 1.38916 h -1.03564 v 1.07764 h 3.08007 v 4.97705 h -2.62988 v 0.69287 h 1.21289 v 3.1958 h 5.20557 c 1.06667,0 1.99798,-0.18492 2.79443,-0.55469 0.81066,-0.384 1.43657,-0.91016 1.87744,-1.57861 0.2193,-0.32894 0.38248,-0.68399 0.4961,-1.0625 h -1.21289 c 0.0668,-0.22255 0.11572,-0.45321 0.14599,-0.69287 h 2.62989 c 0.0251,-0.19867 0.0405,-0.40237 0.0405,-0.6128 0,-0.66842 -0.12779,-1.27254 -0.38379,-1.81298 -0.24177,-0.54044 -0.5903,-0.98143 -1.04541,-1.32276 -0.44088,-0.35556 -0.95302,-0.56176 -1.53613,-0.61865 v -0.043 c 0.52282,-0.0775 0.97421,-0.27205 1.36524,-0.56689 h -3.08008 c 0.18338,-0.13827 0.35783,-0.29188 0.5122,-0.47803 0.14953,-0.1847 0.26735,-0.3877 0.37061,-0.59961 h 1.03564 c 0.20043,-0.41133 0.31163,-0.87537 0.33789,-1.38916 h -3.23046 c 0.004,-0.0775 0.0166,-0.15011 0.0166,-0.22998 0,-0.20771 -0.0155,-0.40783 -0.0444,-0.60156 h 5.70215 c -0.084,-0.56239 -0.28878,-1.06646 -0.6167,-1.51075 -0.42667,-0.5973 -1.03125,-1.0596 -1.81347,-1.38671 -0.768,-0.34133 -1.67079,-0.51172 -2.70899,-0.51172 z m -43.57471,0.5332 v 2.87598 h 3.2002 v -2.87598 z m 91.8003,0 v 2.87598 h 3.1997 v -2.87598 z m -97.50244,2.87598 v 0.43066 h -3.15723 v 0.40088 h 3.23047 v 1.38916 h -1.03565 v 1.07764 h 3.08008 v 0.0122 h 3.15723 v 4.96485 h -2.62989 v 0.0488 c 0,0.22678 0.0237,0.43571 0.0483,0.64404 h 1.2129 c 0.10497,0.88911 0.42251,1.6188 0.97558,2.17187 0.68267,0.68266 1.62175,1.02393 2.81641,1.02393 h 3.83984 v -2.87988 h -3.52002 c -0.31288,0 -0.55446,-0.0997 -0.7251,-0.29883 -0.004,-0.005 -0.005,-0.012 -0.009,-0.0171 h -1.21241 c -0.13835,-0.18316 -0.20858,-0.41612 -0.21826,-0.69287 h 2.62989 c -7.2e-4,-0.0208 -0.008,-0.0368 -0.008,-0.0581 v -4.90674 h 4.58643 v -0.0122 h -3.07959 v -1.07764 h 1.03565 v -1.38916 h -3.23047 v -0.40088 h -4.58643 v -0.43066 z m 91.80029,0 v 0.43066 h -3.15723 v 0.40088 h 3.23047 v 1.38916 h -1.03564 v 1.07764 h 3.08007 v 0.0122 h 3.15723 v 4.96485 h -2.62988 v 0.0488 c 0,0.22678 0.0237,0.43571 0.0483,0.64404 h 1.21289 c 0.10497,0.88911 0.4225,1.6188 0.97558,2.17187 0.68264,0.68266 1.62125,1.02393 2.81592,1.02393 h 3.83985 v -2.87988 h -3.52002 c -0.31289,0 -0.55443,-0.0997 -0.7251,-0.29883 -0.004,-0.005 -0.005,-0.012 -0.009,-0.0171 h -1.2124 c -0.13834,-0.18316 -0.20858,-0.41612 -0.21826,-0.69287 h 2.62988 c -7.3e-4,-0.0208 -0.008,-0.0368 -0.008,-0.0581 v -4.90674 h 4.58691 v -0.0122 h -3.07959 v -1.07764 h 1.03565 v -1.38916 h -3.23047 v -0.40088 h -4.58691 v -0.43066 z m -104.41211,0.21728 c -1.03822,0 -1.94825,0.19944 -2.73047,0.59766 -0.01,0.005 -0.0184,0.0116 -0.0283,0.0166 h 3.23047 c -0.66368,0.33747 -1.19235,0.80457 -1.59815,1.38916 h -1.03564 c -0.055,0.0792 -0.11527,0.15305 -0.16553,0.23682 -0.15467,0.26133 -0.27092,0.54552 -0.36767,0.84082 h 3.08007 c -0.16125,0.49216 -0.25146,1.02563 -0.25146,1.6123 v 2.77344 c 0,0.20327 0.0138,0.39871 0.0332,0.59131 h -2.62988 c 0.024,0.2387 0.061,0.47056 0.11475,0.69287 h 1.21289 c 0.10314,0.42661 0.25876,0.82417 0.47119,1.19043 0.42667,0.69689 1.02399,1.24436 1.79199,1.64258 0.78222,0.384 1.69225,0.57617 2.73047,0.57617 1.26578,0 2.34668,-0.31271 3.24267,-0.93848 0.89464,-0.62483 1.45538,-1.44885 1.6836,-2.4707 h -3.13672 c -0.0582,0.28189 -0.25544,0.49436 -0.59473,0.63574 -0.34134,0.14222 -0.73971,0.21338 -1.19482,0.21338 -0.69689,0 -1.22306,-0.17088 -1.57861,-0.51221 -0.0955,-0.0955 -0.17436,-0.21024 -0.24317,-0.33691 h -1.21289 c -0.10537,-0.19397 -0.17849,-0.42579 -0.22119,-0.69287 h 2.62988 c -0.0291,-0.18181 -0.0479,-0.3756 -0.0479,-0.59131 v -0.59717 h 7.18945 v -2.17627 c 0,-0.58667 -0.0935,-1.12014 -0.26025,-1.6123 h -3.08008 c -0.10002,-0.2953 -0.21989,-0.57949 -0.37988,-0.84082 -0.0486,-0.0838 -0.10809,-0.15756 -0.16162,-0.23682 h 1.03564 c -0.39485,-0.58451 -0.91712,-1.05172 -1.58056,-1.38916 h -3.23047 c -0.01,-0.005 -0.0183,-0.0116 -0.0283,-0.0166 -0.75378,-0.39822 -1.64977,-0.59766 -2.68799,-0.59766 z m 32.39209,0 c -0.47895,0 -0.90851,0.0773 -1.29981,0.21338 h -1.84863 v 0.40088 1.38916 h -1.03564 v 1.07764 h 3.08007 v 4.97705 h -2.62988 v 0.69287 h 1.21289 v 3.1958 h 3.2002 v -3.1958 h -1.21289 v -0.69287 h 2.62988 v -3.10889 c 0,-0.69689 0.16361,-1.22984 0.49072,-1.59961 0.0894,-0.10488 0.19079,-0.1923 0.3003,-0.26855 h 2.22558 c 0.0888,0.0602 0.17288,0.12666 0.24756,0.20459 0.32711,0.32711 0.49023,0.79615 0.49023,1.40771 v 0.95996 h 3.2002 v -1.17334 c 0,-0.51114 -0.061,-0.96815 -0.15088,-1.39892 h -3.08008 c -0.0815,-0.39062 -0.1942,-0.75308 -0.34961,-1.07764 h 1.03565 c -0.14054,-0.29351 -0.30094,-0.56908 -0.50196,-0.80859 -0.19313,-0.23013 -0.41402,-0.41692 -0.6499,-0.58057 h -3.23047 c -0.58053,-0.40273 -1.28416,-0.61426 -2.12353,-0.61426 z m 13.48633,0 c -1.03822,0 -1.941,0.19944 -2.70899,0.59766 -0.01,0.005 -0.0184,0.0116 -0.0283,0.0166 h 3.23047 c -0.66368,0.33747 -1.19233,0.80457 -1.59814,1.38916 h -1.03565 c -0.055,0.0792 -0.11527,0.15305 -0.16553,0.23682 -0.15466,0.26133 -0.27101,0.54552 -0.36767,0.84082 h 3.08008 c -0.16111,0.49216 -0.25098,1.02563 -0.25098,1.6123 v 2.77344 c 0,0.20327 0.0139,0.39871 0.0332,0.59131 h -2.62988 c 0.024,0.2387 0.0606,0.47057 0.11426,0.69287 h 1.21289 c 0.10301,0.42661 0.25876,0.82417 0.47119,1.19043 0.42667,0.69689 1.02399,1.24436 1.79199,1.64258 0.76799,0.384 1.67077,0.57617 2.70899,0.57617 1.05244,0 1.95569,-0.19217 2.70947,-0.57617 0.768,-0.39822 1.35855,-0.94569 1.771,-1.64258 0.21976,-0.36627 0.38033,-0.7638 0.48681,-1.19043 h -1.21289 c 0.0555,-0.22229 0.0934,-0.45419 0.11817,-0.69287 h 2.62988 c 0.02,-0.1926 0.0347,-0.38803 0.0347,-0.59131 v -2.77344 c 0,-0.58664 -0.0932,-1.12016 -0.25977,-1.6123 h -3.08008 c -0.0999,-0.29533 -0.21987,-0.57947 -0.37988,-0.84082 -0.0486,-0.0838 -0.10807,-0.15756 -0.16162,-0.23682 h 1.03564 c -0.39494,-0.58451 -0.9176,-1.05172 -1.58105,-1.38916 h -3.23047 c -0.01,-0.005 -0.0183,-0.0116 -0.0283,-0.0166 -0.75378,-0.39822 -1.65703,-0.59766 -2.70947,-0.59766 z m 30.60009,0 c -1.03821,0 -1.94098,0.19944 -2.70898,0.59766 -0.01,0.005 -0.0184,0.0116 -0.0283,0.0166 h 3.23047 c -0.66368,0.33747 -1.19235,0.80457 -1.59815,1.38916 h -1.03564 c -0.055,0.0792 -0.11527,0.15305 -0.16553,0.23682 -0.15467,0.26133 -0.271,0.54552 -0.36767,0.84082 h 3.08007 c -0.1611,0.49216 -0.25097,1.02563 -0.25097,1.6123 v 2.77344 c 0,0.20327 0.0139,0.39871 0.0332,0.59131 h -2.62988 c 0.024,0.2387 0.0606,0.47057 0.11426,0.69287 h 1.21289 c 0.10301,0.42661 0.25876,0.82417 0.47119,1.19043 0.42667,0.69689 1.02399,1.24436 1.79199,1.64258 0.768,0.384 1.67077,0.57617 2.70898,0.57617 1.05242,0 1.9557,-0.19217 2.70948,-0.57617 0.768,-0.39822 1.35807,-0.94569 1.77051,-1.64258 0.21975,-0.36627 0.3807,-0.7638 0.4873,-1.19043 h -1.21289 c 0.0555,-0.22229 0.0934,-0.45419 0.11816,-0.69287 h 2.62989 c 0.02,-0.1926 0.0347,-0.38803 0.0347,-0.59131 v -2.77344 c 0,-0.58667 -0.0935,-1.12014 -0.26025,-1.6123 h -3.08008 c -0.10002,-0.2953 -0.21989,-0.57949 -0.37988,-0.84082 -0.0486,-0.0838 -0.10809,-0.15756 -0.16162,-0.23682 h 1.03564 c -0.39485,-0.58451 -0.91712,-1.05172 -1.58056,-1.38916 h -3.23047 c -0.01,-0.005 -0.0183,-0.0116 -0.0283,-0.0166 -0.75378,-0.39822 -1.65706,-0.59766 -2.70948,-0.59766 z m 15.3003,0 c -1.03822,0 -1.94148,0.19944 -2.70948,0.59766 -0.01,0.005 -0.0184,0.0116 -0.0283,0.0166 h 3.23047 c -0.66369,0.33747 -1.19234,0.80457 -1.59814,1.38916 h -1.03565 c -0.055,0.0792 -0.11526,0.15305 -0.16552,0.23682 -0.15466,0.26133 -0.27102,0.54552 -0.36768,0.84082 h 3.08008 c -0.16111,0.49216 -0.25098,1.02563 -0.25098,1.6123 v 2.77344 c 0,0.20327 0.0139,0.39871 0.0332,0.59131 h -2.62989 c 0.024,0.2387 0.0606,0.47057 0.11426,0.69287 h 1.21289 c 0.10302,0.42661 0.25876,0.82417 0.47119,1.19043 0.42666,0.69689 1.024,1.24436 1.79199,1.64258 0.768,0.384 1.67126,0.57617 2.70948,0.57617 1.05244,0 1.95521,-0.19217 2.70898,-0.57617 0.768,-0.39822 1.35856,-0.94569 1.771,-1.64258 0.21976,-0.36627 0.38033,-0.7638 0.48681,-1.19043 h -1.21289 c 0.0555,-0.22229 0.0934,-0.45419 0.11817,-0.69287 h 2.62988 c 0.02,-0.1926 0.0347,-0.38803 0.0347,-0.59131 v -2.77344 c 0,-0.5867 -0.0937,-1.12012 -0.26026,-1.6123 h -3.08007 c -0.0999,-0.29527 -0.21941,-0.57951 -0.3794,-0.84082 -0.0486,-0.0838 -0.10807,-0.15756 -0.16162,-0.23682 h 1.03565 c -0.39494,-0.58451 -0.9176,-1.05172 -1.58106,-1.38916 h -3.23047 c -0.01,-0.005 -0.0183,-0.0116 -0.0283,-0.0166 -0.75377,-0.39822 -1.65654,-0.59766 -2.70898,-0.59766 z m -59.4419,0.61426 h 1.18555 c -0.0244,0.0173 -0.0523,0.0293 -0.0762,0.0474 -0.45485,0.34114 -0.77676,0.79159 -0.97705,1.3418 h -0.13233 z m -1.03564,1.38916 h 0.13232 c -0.0502,0.13795 -0.0981,0.27761 -0.13232,0.42871 z m 1.98437,0.77002 c 0.46095,0 0.83911,0.1043 1.13916,0.30762 h -2.22558 c 0.29143,-0.20293 0.65225,-0.30762 1.08642,-0.30762 z m -45.16699,3.28516 h 1.49365 l 0.85498,1.99951 h -2.34863 z m 16.31836,2.68798 c -3.4e-4,0.002 -0.002,0.003 -0.002,0.004 h 3.13672 c 3.4e-4,-0.002 9.7e-4,-0.003 9.7e-4,-0.004 z" />
  <path
     id="path89"
     style="font-weight:800;font-size:85.3333px;font-family:'JetBrainsMono Nerd Font Mono';-inkscape-font-specification:'JetBrainsMono Nerd Font Mono, Ultra-Bold';text-align:center;letter-spacing:10px;text-anchor:middle;white-space:pre;display:inline;fill:#03edf9;fill-opacity:1;stroke-width:0.25"
     inkscape:label="blue"
     d="m 171.12806,117.67969 v 3.40918 h -5.70215 v 0.83154 h 3.23047 v 1.38916 h -1.03564 v 1.07764 h 3.08007 v 4.97705 h -2.62988 v 0.69287 h 1.21289 v 3.1958 h 3.15723 v -3.1958 h -1.21289 v -0.69287 h 2.34863 l 0.2959,0.69287 h 1.21289 l 1.36621,3.1958 h 3.47754 l -1.47021,-3.1958 h -1.2129 l -0.31835,-0.69287 h 2.62988 l -1.15528,-2.51123 c 0.8391,-0.35555 1.50034,-0.93158 1.98389,-1.72803 0.1473,-0.23567 0.26593,-0.48343 0.36963,-0.73779 h -3.08008 c 0.13946,-0.34209 0.2382,-0.70176 0.29883,-1.07764 h 1.03564 c 0.0466,-0.28916 0.0781,-0.58491 0.0781,-0.89404 0,-0.17073 -0.0161,-0.33239 -0.0303,-0.49512 h -3.23047 c -0.0251,-0.28838 -0.0656,-0.56823 -0.13526,-0.83154 h 5.70215 c -0.11372,-0.42982 -0.2847,-0.82731 -0.51709,-1.19043 -0.44089,-0.71111 -1.06678,-1.25908 -1.87744,-1.64307 -0.81067,-0.384 -1.77055,-0.57568 -2.87988,-0.57568 z m 76.5,0 v 3.40918 h -5.70215 v 0.83154 h 3.23047 v 1.38916 h -1.03564 v 1.07764 h 3.08007 v 4.97705 h -2.62988 v 0.69287 h 1.21289 v 3.1958 h 5.20557 c 1.06667,0 1.99798,-0.18492 2.79443,-0.55469 0.81066,-0.384 1.43657,-0.91016 1.87744,-1.57861 0.2193,-0.32894 0.38248,-0.68399 0.4961,-1.0625 h -1.21289 c 0.0668,-0.22255 0.11572,-0.45321 0.14599,-0.69287 h 2.62989 c 0.0251,-0.19867 0.0405,-0.40237 0.0405,-0.6128 0,-0.66842 -0.12779,-1.27254 -0.38379,-1.81298 -0.24177,-0.54044 -0.5903,-0.98143 -1.04541,-1.32276 -0.44088,-0.35556 -0.95302,-0.56176 -1.53613,-0.61865 v -0.043 c 0.52282,-0.0775 0.97421,-0.27205 1.36524,-0.56689 h -3.08008 c 0.18338,-0.13827 0.35783,-0.29188 0.5122,-0.47803 0.14953,-0.1847 0.26735,-0.3877 0.37061,-0.59961 h 1.03564 c 0.20043,-0.41133 0.31163,-0.87537 0.33789,-1.38916 h -3.23046 c 0.004,-0.0775 0.0166,-0.15011 0.0166,-0.22998 0,-0.20771 -0.0155,-0.40783 -0.0444,-0.60156 h 5.70215 c -0.084,-0.56239 -0.28878,-1.06646 -0.6167,-1.51075 -0.42667,-0.5973 -1.03125,-1.0596 -1.81347,-1.38671 -0.768,-0.34133 -1.67079,-0.51172 -2.70899,-0.51172 z m -43.57471,0.5332 v 2.87598 h 3.2002 v -2.87598 z m 91.8003,0 v 2.87598 h 3.1997 v -2.87598 z m -97.50244,2.87598 v 0.43066 h -3.15723 v 0.40088 h 3.23047 v 1.38916 h -1.03565 v 1.07764 h 3.08008 v 0.0122 h 3.15723 v 4.96485 h -2.62989 v 0.0488 c 0,0.22678 0.0237,0.43571 0.0483,0.64404 h 1.2129 c 0.10497,0.88911 0.42251,1.6188 0.97558,2.17187 0.68267,0.68266 1.62175,1.02393 2.81641,1.02393 h 3.83984 v -2.87988 h -3.52002 c -0.31288,0 -0.55446,-0.0997 -0.7251,-0.29883 -0.004,-0.005 -0.005,-0.012 -0.009,-0.0171 h -1.21241 c -0.13835,-0.18316 -0.20858,-0.41612 -0.21826,-0.69287 h 2.62989 c -7.2e-4,-0.0208 -0.008,-0.0368 -0.008,-0.0581 v -4.90674 h 4.58643 v -0.0122 h -3.07959 v -1.07764 h 1.03565 v -1.38916 h -3.23047 v -0.40088 h -4.58643 v -0.43066 z m 91.80029,0 v 0.43066 h -3.15723 v 0.40088 h 3.23047 v 1.38916 h -1.03564 v 1.07764 h 3.08007 v 0.0122 h 3.15723 v 4.96485 h -2.62988 v 0.0488 c 0,0.22678 0.0237,0.43571 0.0483,0.64404 h 1.21289 c 0.10497,0.88911 0.4225,1.6188 0.97558,2.17187 0.68264,0.68266 1.62125,1.02393 2.81592,1.02393 h 3.83985 v -2.87988 h -3.52002 c -0.31289,0 -0.55443,-0.0997 -0.7251,-0.29883 -0.004,-0.005 -0.005,-0.012 -0.009,-0.0171 h -1.2124 c -0.13834,-0.18316 -0.20858,-0.41612 -0.21826,-0.69287 h 2.62988 c -7.3e-4,-0.0208 -0.008,-0.0368 -0.008,-0.0581 v -4.90674 h 4.58691 v -0.0122 h -3.07959 v -1.07764 h 1.03565 v -1.38916 h -3.23047 v -0.40088 h -4.58691 v -0.43066 z m -104.41211,0.21728 c -1.03822,0 -1.94825,0.19944 -2.73047,0.59766 -0.01,0.005 -0.0184,0.0116 -0.0283,0.0166 h 3.23047 c -0.66368,0.33747 -1.19235,0.80457 -1.59815,1.38916 h -1.03564 c -0.055,0.0792 -0.11527,0.15305 -0.16553,0.23682 -0.15467,0.26133 -0.27092,0.54552 -0.36767,0.84082 h 3.08007 c -0.16125,0.49216 -0.25146,1.02563 -0.25146,1.6123 v 2.77344 c 0,0.20327 0.0138,0.39871 0.0332,0.59131 h -2.62988 c 0.024,0.2387 0.061,0.47056 0.11475,0.69287 h 1.21289 c 0.10314,0.42661 0.25876,0.82417 0.47119,1.19043 0.42667,0.69689 1.02399,1.24436 1.79199,1.64258 0.78222,0.384 1.69225,0.57617 2.73047,0.57617 1.26578,0 2.34668,-0.31271 3.24267,-0.93848 0.89464,-0.62483 1.45538,-1.44885 1.6836,-2.4707 h -3.13672 c -0.0582,0.28189 -0.25544,0.49436 -0.59473,0.63574 -0.34134,0.14222 -0.73971,0.21338 -1.19482,0.21338 -0.69689,0 -1.22306,-0.17088 -1.57861,-0.51221 -0.0955,-0.0955 -0.17436,-0.21024 -0.24317,-0.33691 h -1.21289 c -0.10537,-0.19397 -0.17849,-0.42579 -0.22119,-0.69287 h 2.62988 c -0.0291,-0.18181 -0.0479,-0.3756 -0.0479,-0.59131 v -0.59717 h 7.18945 v -2.17627 c 0,-0.58667 -0.0935,-1.12014 -0.26025,-1.6123 h -3.08008 c -0.10002,-0.2953 -0.21989,-0.57949 -0.37988,-0.84082 -0.0486,-0.0838 -0.10809,-0.15756 -0.16162,-0.23682 h 1.03564 c -0.39485,-0.58451 -0.91712,-1.05172 -1.58056,-1.38916 h -3.23047 c -0.01,-0.005 -0.0183,-0.0116 -0.0283,-0.0166 -0.75378,-0.39822 -1.64977,-0.59766 -2.68799,-0.59766 z m 32.39209,0 c -0.47895,0 -0.90851,0.0773 -1.29981,0.21338 h -1.84863 v 0.40088 1.38916 h -1.03564 v 1.07764 h 3.08007 v 4.97705 h -2.62988 v 0.69287 h 1.21289 v 3.1958 h 3.2002 v -3.1958 h -1.21289 v -0.69287 h 2.62988 v -3.10889 c 0,-0.69689 0.16361,-1.22984 0.49072,-1.59961 0.0894,-0.10488 0.19079,-0.1923 0.3003,-0.26855 h 2.22558 c 0.0888,0.0602 0.17288,0.12666 0.24756,0.20459 0.32711,0.32711 0.49023,0.79615 0.49023,1.40771 v 0.95996 h 3.2002 v -1.17334 c 0,-0.51114 -0.061,-0.96815 -0.15088,-1.39892 h -3.08008 c -0.0815,-0.39062 -0.1942,-0.75308 -0.34961,-1.07764 h 1.03565 c -0.14054,-0.29351 -0.30094,-0.56908 -0.50196,-0.80859 -0.19313,-0.23013 -0.41402,-0.41692 -0.6499,-0.58057 h -3.23047 c -0.58053,-0.40273 -1.28416,-0.61426 -2.12353,-0.61426 z m 13.48633,0 c -1.03822,0 -1.941,0.19944 -2.70899,0.59766 -0.01,0.005 -0.0184,0.0116 -0.0283,0.0166 h 3.23047 c -0.66368,0.33747 -1.19233,0.80457 -1.59814,1.38916 h -1.03565 c -0.055,0.0792 -0.11527,0.15305 -0.16553,0.23682 -0.15466,0.26133 -0.27101,0.54552 -0.36767,0.84082 h 3.08008 c -0.16111,0.49216 -0.25098,1.02563 -0.25098,1.6123 v 2.77344 c 0,0.20327 0.0139,0.39871 0.0332,0.59131 h -2.62988 c 0.024,0.2387 0.0606,0.47057 0.11426,0.69287 h 1.21289 c 0.10301,0.42661 0.25876,0.82417 0.47119,1.19043 0.42667,0.69689 1.02399,1.24436 1.79199,1.64258 0.76799,0.384 1.67077,0.57617 2.70899,0.57617 1.05244,0 1.95569,-0.19217 2.70947,-0.57617 0.768,-0.39822 1.35855,-0.94569 1.771,-1.64258 0.21976,-0.36627 0.38033,-0.7638 0.48681,-1.19043 h -1.21289 c 0.0555,-0.22229 0.0934,-0.45419 0.11817,-0.69287 h 2.62988 c 0.02,-0.1926 0.0347,-0.38803 0.0347,-0.59131 v -2.77344 c 0,-0.58664 -0.0932,-1.12016 -0.25977,-1.6123 h -3.08008 c -0.0999,-0.29533 -0.21987,-0.57947 -0.37988,-0.84082 -0.0486,-0.0838 -0.10807,-0.15756 -0.16162,-0.23682 h 1.03564 c -0.39494,-0.58451 -0.9176,-1.05172 -1.58105,-1.38916 h -3.23047 c -0.01,-0.005 -0.0183,-0.0116 -0.0283,-0.0166 -0.75378,-0.39822 -1.65703,-0.59766 -2.70947,-0.59766 z m 30.60009,0 c -1.03821,0 -1.94098,0.19944 -2.70898,0.59766 -0.01,0.005 -0.0184,0.0116 -0.0283,0.0166 h 3.23047 c -0.66368,0.33747 -1.19235,0.80457 -1.59815,1.38916 h -1.03564 c -0.055,0.0792 -0.11527,0.15305 -0.16553,0.23682 -0.15467,0.26133 -0.271,0.54552 -0.36767,0.84082 h 3.08007 c -0.1611,0.49216 -0.25097,1.02563 -0.25097,1.6123 v 2.77344 c 0,0.20327 0.0139,0.39871 0.0332,0.59131 h -2.62988 c 0.024,0.2387 0.0606,0.47057 0.11426,0.69287 h 1.21289 c 0.10301,0.42661 0.25876,0.82417 0.47119,1.19043 0.42667,0.69689 1.02399,1.24436 1.79199,1.64258 0.768,0.384 1.67077,0.57617 2.70898,0.57617 1.05242,0 1.9557,-0.19217 2.70948,-0.57617 0.768,-0.39822 1.35807,-0.94569 1.77051,-1.64258 0.21975,-0.36627 0.3807,-0.7638 0.4873,-1.19043 h -1.21289 c 0.0555,-0.22229 0.0934,-0.45419 0.11816,-0.69287 h 2.62989 c 0.02,-0.1926 0.0347,-0.38803 0.0347,-0.59131 v -2.77344 c 0,-0.58667 -0.0935,-1.12014 -0.26025,-1.6123 h -3.08008 c -0.10002,-0.2953 -0.21989,-0.57949 -0.37988,-0.84082 -0.0486,-0.0838 -0.10809,-0.15756 -0.16162,-0.23682 h 1.03564 c -0.39485,-0.58451 -0.91712,-1.05172 -1.58056,-1.38916 h -3.23047 c -0.01,-0.005 -0.0183,-0.0116 -0.0283,-0.0166 -0.75378,-0.39822 -1.65706,-0.59766 -2.70948,-0.59766 z m 15.3003,0 c -1.03822,0 -1.94148,0.19944 -2.70948,0.59766 -0.01,0.005 -0.0184,0.0116 -0.0283,0.0166 h 3.23047 c -0.66369,0.33747 -1.19234,0.80457 -1.59814,1.38916 h -1.03565 c -0.055,0.0792 -0.11526,0.15305 -0.16552,0.23682 -0.15466,0.26133 -0.27102,0.54552 -0.36768,0.84082 h 3.08008 c -0.16111,0.49216 -0.25098,1.02563 -0.25098,1.6123 v 2.77344 c 0,0.20327 0.0139,0.39871 0.0332,0.59131 h -2.62989 c 0.024,0.2387 0.0606,0.47057 0.11426,0.69287 h 1.21289 c 0.10302,0.42661 0.25876,0.82417 0.47119,1.19043 0.42666,0.69689 1.024,1.24436 1.79199,1.64258 0.768,0.384 1.67126,0.57617 2.70948,0.57617 1.05244,0 1.95521,-0.19217 2.70898,-0.57617 0.768,-0.39822 1.35856,-0.94569 1.771,-1.64258 0.21976,-0.36627 0.38033,-0.7638 0.48681,-1.19043 h -1.21289 c 0.0555,-0.22229 0.0934,-0.45419 0.11817,-0.69287 h 2.62988 c 0.02,-0.1926 0.0347,-0.38803 0.0347,-0.59131 v -2.77344 c 0,-0.5867 -0.0937,-1.12012 -0.26026,-1.6123 h -3.08007 c -0.0999,-0.29527 -0.21941,-0.57951 -0.3794,-0.84082 -0.0486,-0.0838 -0.10807,-0.15756 -0.16162,-0.23682 h 1.03565 c -0.39494,-0.58451 -0.9176,-1.05172 -1.58106,-1.38916 h -3.23047 c -0.01,-0.005 -0.0183,-0.0116 -0.0283,-0.0166 -0.75377,-0.39822 -1.65654,-0.59766 -2.70898,-0.59766 z m -59.4419,0.61426 h 1.18555 c -0.0244,0.0173 -0.0523,0.0293 -0.0762,0.0474 -0.45485,0.34114 -0.77676,0.79159 -0.97705,1.3418 h -0.13233 z m -1.03564,1.38916 h 0.13232 c -0.0502,0.13795 -0.0981,0.27761 -0.13232,0.42871 z m 1.98437,0.77002 c 0.46095,0 0.83911,0.1043 1.13916,0.30762 h -2.22558 c 0.29143,-0.20293 0.65225,-0.30762 1.08642,-0.30762 z m -45.16699,3.28516 h 1.49365 l 0.85498,1.99951 h -2.34863 z m 16.31836,2.68798 c -3.4e-4,0.002 -0.002,0.003 -0.002,0.004 h 3.13672 c 3.4e-4,-0.002 9.7e-4,-0.003 9.7e-4,-0.004 z" />
  <path
     id="path83"
     style="font-weight:800;font-size:85.3333px;font-family:'JetBrainsMono Nerd Font Mono';-inkscape-font-specification:'JetBrainsMono Nerd Font Mono, Ultra-Bold';text-align:center;letter-spacing:10px;text-anchor:middle;white-space:pre;display:inline;fill:#1a1a1a;fill-opacity:1;stroke-width:0.25"
     inkscape:label="grey"
     d="m 173.18164,117.67969 v 3.40918 h -5.70215 v 0.83154 h 3.23047 v 1.38916 h -1.03564 v 1.07764 h 3.08007 v 4.97705 h -2.62988 v 0.69287 h 1.21289 v 3.1958 h 3.15723 v -3.1958 h -1.21289 v -0.69287 h 2.34863 l 0.2959,0.69287 h 1.21289 l 1.36621,3.1958 h 3.47754 l -1.47021,-3.1958 h -1.2129 l -0.31835,-0.69287 h 2.62988 l -1.15528,-2.51123 c 0.8391,-0.35555 1.50034,-0.93158 1.98389,-1.72803 0.1473,-0.23567 0.26593,-0.48343 0.36963,-0.73779 h -3.08008 c 0.13946,-0.34209 0.2382,-0.70176 0.29883,-1.07764 h 1.03564 c 0.0466,-0.28916 0.0781,-0.58491 0.0781,-0.89404 0,-0.17073 -0.0161,-0.33239 -0.0303,-0.49512 h -3.23047 c -0.0251,-0.28838 -0.0656,-0.56823 -0.13526,-0.83154 h 5.70215 c -0.11372,-0.42982 -0.2847,-0.82731 -0.51709,-1.19043 -0.44089,-0.71111 -1.06678,-1.25908 -1.87744,-1.64307 -0.81067,-0.384 -1.77055,-0.57568 -2.87988,-0.57568 z m 76.5,0 v 3.40918 h -5.70215 v 0.83154 h 3.23047 v 1.38916 h -1.03564 v 1.07764 h 3.08007 v 4.97705 h -2.62988 v 0.69287 h 1.21289 v 3.1958 h 5.20557 c 1.06667,0 1.99798,-0.18492 2.79443,-0.55469 0.81066,-0.384 1.43657,-0.91016 1.87744,-1.57861 0.2193,-0.32894 0.38248,-0.68399 0.4961,-1.0625 h -1.21289 c 0.0668,-0.22255 0.11572,-0.45321 0.14599,-0.69287 h 2.62989 c 0.0251,-0.19867 0.0405,-0.40237 0.0405,-0.6128 0,-0.66842 -0.12779,-1.27254 -0.38379,-1.81298 -0.24177,-0.54044 -0.5903,-0.98143 -1.04541,-1.32276 -0.44088,-0.35556 -0.95302,-0.56176 -1.53613,-0.61865 v -0.043 c 0.52282,-0.0775 0.97421,-0.27205 1.36524,-0.56689 h -3.08008 c 0.18338,-0.13827 0.35783,-0.29188 0.5122,-0.47803 0.14953,-0.1847 0.26735,-0.3877 0.37061,-0.59961 h 1.03564 c 0.20043,-0.41133 0.31163,-0.87537 0.33789,-1.38916 h -3.23046 c 0.004,-0.0775 0.0166,-0.15011 0.0166,-0.22998 0,-0.20771 -0.0155,-0.40783 -0.0444,-0.60156 h 5.70215 c -0.084,-0.56239 -0.28878,-1.06646 -0.6167,-1.51075 -0.42667,-0.5973 -1.03125,-1.0596 -1.81347,-1.38671 -0.768,-0.34133 -1.67079,-0.51172 -2.70899,-0.51172 z m -43.57471,0.5332 v 2.87598 h 3.2002 v -2.87598 z m 91.8003,0 v 2.87598 h 3.1997 v -2.87598 z m -97.50244,2.87598 v 0.43066 h -3.15723 v 0.40088 h 3.23047 v 1.38916 h -1.03565 v 1.07764 h 3.08008 v 0.0122 h 3.15723 v 4.96485 h -2.62989 v 0.0488 c 0,0.22678 0.0237,0.43571 0.0483,0.64404 h 1.2129 c 0.10497,0.88911 0.42251,1.6188 0.97558,2.17187 0.68267,0.68266 1.62175,1.02393 2.81641,1.02393 h 3.83984 v -2.87988 h -3.52002 c -0.31288,0 -0.55446,-0.0997 -0.7251,-0.29883 -0.004,-0.005 -0.005,-0.012 -0.009,-0.0171 h -1.21241 c -0.13835,-0.18316 -0.20858,-0.41612 -0.21826,-0.69287 h 2.62989 c -7.2e-4,-0.0208 -0.008,-0.0368 -0.008,-0.0581 v -4.90674 h 4.58643 v -0.0122 h -3.07959 v -1.07764 h 1.03565 v -1.38916 h -3.23047 v -0.40088 h -4.58643 v -0.43066 z m 91.80029,0 v 0.43066 h -3.15723 v 0.40088 h 3.23047 v 1.38916 h -1.03564 v 1.07764 h 3.08007 v 0.0122 h 3.15723 v 4.96485 h -2.62988 v 0.0488 c 0,0.22678 0.0237,0.43571 0.0483,0.64404 h 1.21289 c 0.10497,0.88911 0.4225,1.6188 0.97558,2.17187 0.68264,0.68266 1.62125,1.02393 2.81592,1.02393 h 3.83985 v -2.87988 h -3.52002 c -0.31289,0 -0.55443,-0.0997 -0.7251,-0.29883 -0.004,-0.005 -0.005,-0.012 -0.009,-0.0171 h -1.2124 c -0.13834,-0.18316 -0.20858,-0.41612 -0.21826,-0.69287 h 2.62988 c -7.3e-4,-0.0208 -0.008,-0.0368 -0.008,-0.0581 v -4.90674 h 4.58691 v -0.0122 h -3.07959 v -1.07764 h 1.03565 v -1.38916 h -3.23047 v -0.40088 h -4.58691 v -0.43066 z m -104.41211,0.21728 c -1.03822,0 -1.94825,0.19944 -2.73047,0.59766 -0.01,0.005 -0.0184,0.0116 -0.0283,0.0166 h 3.23047 c -0.66368,0.33747 -1.19235,0.80457 -1.59815,1.38916 h -1.03564 c -0.055,0.0792 -0.11527,0.15305 -0.16553,0.23682 -0.15467,0.26133 -0.27092,0.54552 -0.36767,0.84082 h 3.08007 c -0.16125,0.49216 -0.25146,1.02563 -0.25146,1.6123 v 2.77344 c 0,0.20327 0.0138,0.39871 0.0332,0.59131 h -2.62988 c 0.024,0.2387 0.061,0.47056 0.11475,0.69287 h 1.21289 c 0.10314,0.42661 0.25876,0.82417 0.47119,1.19043 0.42667,0.69689 1.02399,1.24436 1.79199,1.64258 0.78222,0.384 1.69225,0.57617 2.73047,0.57617 1.26578,0 2.34668,-0.31271 3.24267,-0.93848 0.89464,-0.62483 1.45538,-1.44885 1.6836,-2.4707 h -3.13672 c -0.0582,0.28189 -0.25544,0.49436 -0.59473,0.63574 -0.34134,0.14222 -0.73971,0.21338 -1.19482,0.21338 -0.69689,0 -1.22306,-0.17088 -1.57861,-0.51221 -0.0955,-0.0955 -0.17436,-0.21024 -0.24317,-0.33691 h -1.21289 c -0.10537,-0.19397 -0.17849,-0.42579 -0.22119,-0.69287 h 2.62988 c -0.0291,-0.18181 -0.0479,-0.3756 -0.0479,-0.59131 v -0.59717 h 7.18945 v -2.17627 c 0,-0.58667 -0.0935,-1.12014 -0.26025,-1.6123 h -3.08008 c -0.10002,-0.2953 -0.21989,-0.57949 -0.37988,-0.84082 -0.0486,-0.0838 -0.10809,-0.15756 -0.16162,-0.23682 h 1.03564 c -0.39485,-0.58451 -0.91712,-1.05172 -1.58056,-1.38916 h -3.23047 c -0.01,-0.005 -0.0183,-0.0116 -0.0283,-0.0166 -0.75378,-0.39822 -1.64977,-0.59766 -2.68799,-0.59766 z m 32.39209,0 c -0.47895,0 -0.90851,0.0773 -1.29981,0.21338 h -1.84863 v 0.40088 1.38916 h -1.03564 v 1.07764 h 3.08007 v 4.97705 h -2.62988 v 0.69287 h 1.21289 v 3.1958 h 3.2002 v -3.1958 h -1.21289 v -0.69287 h 2.62988 v -3.10889 c 0,-0.69689 0.16361,-1.22984 0.49072,-1.59961 0.0894,-0.10488 0.19079,-0.1923 0.3003,-0.26855 h 2.22558 c 0.0888,0.0602 0.17288,0.12666 0.24756,0.20459 0.32711,0.32711 0.49023,0.79615 0.49023,1.40771 v 0.95996 h 3.2002 v -1.17334 c 0,-0.51114 -0.061,-0.96815 -0.15088,-1.39892 h -3.08008 c -0.0815,-0.39062 -0.1942,-0.75308 -0.34961,-1.07764 h 1.03565 c -0.14054,-0.29351 -0.30094,-0.56908 -0.50196,-0.80859 -0.19313,-0.23013 -0.41402,-0.41692 -0.6499,-0.58057 h -3.23047 c -0.58053,-0.40273 -1.28416,-0.61426 -2.12353,-0.61426 z m 13.48633,0 c -1.03822,0 -1.941,0.19944 -2.70899,0.59766 -0.01,0.005 -0.0184,0.0116 -0.0283,0.0166 h 3.23047 c -0.66368,0.33747 -1.19233,0.80457 -1.59814,1.38916 h -1.03565 c -0.055,0.0792 -0.11527,0.15305 -0.16553,0.23682 -0.15466,0.26133 -0.27101,0.54552 -0.36767,0.84082 h 3.08008 c -0.16111,0.49216 -0.25098,1.02563 -0.25098,1.6123 v 2.77344 c 0,0.20327 0.0139,0.39871 0.0332,0.59131 H 231.23 c 0.024,0.2387 0.0606,0.47057 0.11426,0.69287 h 1.21289 c 0.10301,0.42661 0.25876,0.82417 0.47119,1.19043 0.42667,0.69689 1.02399,1.24436 1.79199,1.64258 0.76799,0.384 1.67077,0.57617 2.70899,0.57617 1.05244,0 1.95569,-0.19217 2.70947,-0.57617 0.768,-0.39822 1.35855,-0.94569 1.771,-1.64258 0.21976,-0.36627 0.38033,-0.7638 0.48681,-1.19043 h -1.21289 c 0.0555,-0.22229 0.0934,-0.45419 0.11817,-0.69287 h 2.62988 c 0.02,-0.1926 0.0347,-0.38803 0.0347,-0.59131 v -2.77344 c 0,-0.58664 -0.0932,-1.12016 -0.25977,-1.6123 h -3.08008 c -0.0999,-0.29533 -0.21987,-0.57947 -0.37988,-0.84082 -0.0486,-0.0838 -0.10807,-0.15756 -0.16162,-0.23682 h 1.03564 c -0.39494,-0.58451 -0.9176,-1.05172 -1.58105,-1.38916 h -3.23047 c -0.01,-0.005 -0.0183,-0.0116 -0.0283,-0.0166 -0.75378,-0.39822 -1.65703,-0.59766 -2.70947,-0.59766 z m 30.60009,0 c -1.03821,0 -1.94098,0.19944 -2.70898,0.59766 -0.01,0.005 -0.0184,0.0116 -0.0283,0.0166 h 3.23047 c -0.66368,0.33747 -1.19235,0.80457 -1.59815,1.38916 h -1.03564 c -0.055,0.0792 -0.11527,0.15305 -0.16553,0.23682 -0.15467,0.26133 -0.271,0.54552 -0.36767,0.84082 h 3.08007 c -0.1611,0.49216 -0.25097,1.02563 -0.25097,1.6123 v 2.77344 c 0,0.20327 0.0139,0.39871 0.0332,0.59131 h -2.62988 c 0.024,0.2387 0.0606,0.47057 0.11426,0.69287 h 1.21289 c 0.10301,0.42661 0.25876,0.82417 0.47119,1.19043 0.42667,0.69689 1.02399,1.24436 1.79199,1.64258 0.768,0.384 1.67077,0.57617 2.70898,0.57617 1.05242,0 1.9557,-0.19217 2.70948,-0.57617 0.768,-0.39822 1.35807,-0.94569 1.77051,-1.64258 0.21975,-0.36627 0.3807,-0.7638 0.4873,-1.19043 h -1.21289 c 0.0555,-0.22229 0.0934,-0.45419 0.11816,-0.69287 h 2.62989 c 0.02,-0.1926 0.0347,-0.38803 0.0347,-0.59131 v -2.77344 c 0,-0.58667 -0.0935,-1.12014 -0.26025,-1.6123 h -3.08008 c -0.10002,-0.2953 -0.21989,-0.57949 -0.37988,-0.84082 -0.0486,-0.0838 -0.10809,-0.15756 -0.16162,-0.23682 h 1.03564 c -0.39485,-0.58451 -0.91712,-1.05172 -1.58056,-1.38916 h -3.23047 c -0.01,-0.005 -0.0183,-0.0116 -0.0283,-0.0166 -0.75378,-0.39822 -1.65706,-0.59766 -2.70948,-0.59766 z m 15.3003,0 c -1.03822,0 -1.94148,0.19944 -2.70948,0.59766 -0.01,0.005 -0.0184,0.0116 -0.0283,0.0166 h 3.23047 c -0.66369,0.33747 -1.19234,0.80457 -1.59814,1.38916 h -1.03565 c -0.055,0.0792 -0.11526,0.15305 -0.16552,0.23682 -0.15466,0.26133 -0.27102,0.54552 -0.36768,0.84082 h 3.08008 c -0.16111,0.49216 -0.25098,1.02563 -0.25098,1.6123 v 2.77344 c 0,0.20327 0.0139,0.39871 0.0332,0.59131 h -2.62989 c 0.024,0.2387 0.0606,0.47057 0.11426,0.69287 h 1.21289 c 0.10302,0.42661 0.25876,0.82417 0.47119,1.19043 0.42666,0.69689 1.024,1.24436 1.79199,1.64258 0.768,0.384 1.67126,0.57617 2.70948,0.57617 1.05244,0 1.95521,-0.19217 2.70898,-0.57617 0.768,-0.39822 1.35856,-0.94569 1.771,-1.64258 0.21976,-0.36627 0.38033,-0.7638 0.48681,-1.19043 h -1.21289 c 0.0555,-0.22229 0.0934,-0.45419 0.11817,-0.69287 h 2.62988 c 0.02,-0.1926 0.0347,-0.38803 0.0347,-0.59131 v -2.77344 c 0,-0.5867 -0.0937,-1.12012 -0.26026,-1.6123 h -3.08007 c -0.0999,-0.29527 -0.21941,-0.57951 -0.3794,-0.84082 -0.0486,-0.0838 -0.10807,-0.15756 -0.16162,-0.23682 h 1.03565 c -0.39494,-0.58451 -0.9176,-1.05172 -1.58106,-1.38916 h -3.23047 c -0.01,-0.005 -0.0183,-0.0116 -0.0283,-0.0166 -0.75377,-0.39822 -1.65654,-0.59766 -2.70898,-0.59766 z m -59.4419,0.61426 h 1.18555 c -0.0244,0.0173 -0.0523,0.0293 -0.0762,0.0474 -0.45485,0.34114 -0.77676,0.79159 -0.97705,1.3418 h -0.13233 z m -1.03564,1.38916 h 0.13232 c -0.0502,0.13795 -0.0981,0.27761 -0.13232,0.42871 z m 1.98437,0.77002 c 0.46095,0 0.83911,0.1043 1.13916,0.30762 h -2.22558 c 0.29143,-0.20293 0.65225,-0.30762 1.08642,-0.30762 z m -45.16699,3.28516 h 1.49365 l 0.85498,1.99951 h -2.34863 z m 16.31836,2.68798 c -3.4e-4,0.002 -0.002,0.003 -0.002,0.004 h 3.13672 c 3.4e-4,-0.002 9.7e-4,-0.003 9.7e-4,-0.004 z" />
</svg>
