<?xml version="1.0" encoding="utf-8"?>
<!-- Generator: Adobe Illustrator 27.5.0, SVG Export Plug-In . SVG Version: 6.00 Build 0)  -->
<svg version="1.1" id="Layer_1" xmlns="http://www.w3.org/2000/svg" xmlns:xlink="http://www.w3.org/1999/xlink" x="0px" y="0px"
	 viewBox="0 0 56.7 56.7" style="enable-background:new 0 0 56.7 56.7;" xml:space="preserve">
<style type="text/css">
	.st0{fill:#151616;}
	.st1{fill:#07F468;}
	.st2{clip-path:url(#SVGID_00000028310231984885735020000010972938709269242270_);}
	.st3{fill:#383939;}
	.st4{clip-path:url(#SVGID_00000012435790065520829860000001693391270711103655_);}
	.st5{fill:#FCFCF7;}
	.st6{clip-path:url(#SVGID_00000127007557110199216460000015694048266585361037_);}
	.st7{fill:#DCDCDC;}
	.st8{clip-path:url(#SVGID_00000167357353312594200040000011202102747452097713_);}
</style>
<g>
	<defs>
		<circle id="SVGID_1_" cx="-32.7" cy="88.3" r="28.4"/>
	</defs>
	<clipPath id="SVGID_00000070112580539648322050000013652885506065405338_">
		<use xlink:href="#SVGID_1_"  style="overflow:visible;"/>
	</clipPath>
	<g style="clip-path:url(#SVGID_00000070112580539648322050000013652885506065405338_);">
		<g>
			<path class="st3" d="M20,32.2l3.8,6.6h-7.6L20,32.2 M20,31.9l-4.1,7h8.1L20,31.9L20,31.9z"/>
		</g>
		<g>
			<path class="st3" d="M11.9,32.2l3.8,6.6H8L11.9,32.2 M11.9,31.9l-4.1,7h8.1L11.9,31.9L11.9,31.9z"/>
		</g>
		<g>
			<path class="st3" d="M36.2,32.2l3.8,6.6h-7.6L36.2,32.2 M36.2,31.9l-4.1,7h8.1L36.2,31.9L36.2,31.9z"/>
		</g>
		<g>
			<path class="st3" d="M28.1,32.2l3.8,6.6h-7.6L28.1,32.2 M28.1,31.9l-4.1,7h8.1L28.1,31.9L28.1,31.9z"/>
		</g>
		<g>
			<path class="st3" d="M24.1,25.2l3.8,6.6h-7.6L24.1,25.2 M24.1,24.9l-4.1,7h8.1L24.1,24.9L24.1,24.9z"/>
		</g>
		<g>
			<path class="st3" d="M15.9,25.2l3.8,6.6h-7.6L15.9,25.2 M15.9,24.9l-4.1,7H20L15.9,24.9L15.9,24.9z"/>
		</g>
		<g>
			<path class="st3" d="M40.3,25.2l3.8,6.6h-7.6L40.3,25.2 M40.3,24.9l-4.1,7h8.1L40.3,24.9L40.3,24.9z"/>
		</g>
		<g>
			<path class="st3" d="M7.8,25.2l3.8,6.6H4L7.8,25.2 M7.8,24.9l-4.1,7h8.1L7.8,24.9L7.8,24.9z"/>
		</g>
		<g>
			<path class="st3" d="M32.2,25.2l3.8,6.6h-7.6L32.2,25.2 M32.2,24.9l-4.1,7h8.1L32.2,24.9L32.2,24.9z"/>
		</g>
		<g>
			<path class="st3" d="M20,46.3l3.8,6.6h-7.6L20,46.3 M20,46l-4.1,7h8.1L20,46L20,46z"/>
		</g>
		<g>
			<path class="st3" d="M11.9,46.3l3.8,6.6H8L11.9,46.3 M11.9,46l-4.1,7h8.1L11.9,46L11.9,46z"/>
		</g>
		<g>
			<path class="st3" d="M36.2,46.3l3.8,6.6h-7.6L36.2,46.3 M36.2,46l-4.1,7h8.1L36.2,46L36.2,46z"/>
		</g>
		<g>
			<path class="st3" d="M28.1,46.3l3.8,6.6h-7.6L28.1,46.3 M28.1,46l-4.1,7h8.1L28.1,46L28.1,46z"/>
		</g>
		<g>
			<path class="st3" d="M24.1,39.3l3.8,6.6h-7.6L24.1,39.3 M24.1,39L20,46h8.1L24.1,39L24.1,39z"/>
		</g>
		<g>
			<path class="st3" d="M15.9,39.3l3.8,6.6h-7.6L15.9,39.3 M15.9,39l-4.1,7H20L15.9,39L15.9,39z"/>
		</g>
		<g>
			<path class="st3" d="M40.3,39.3l3.8,6.6h-7.6L40.3,39.3 M40.3,39l-4.1,7h8.1L40.3,39L40.3,39z"/>
		</g>
		<g>
			<path class="st3" d="M7.8,39.3l3.8,6.6H4L7.8,39.3 M7.8,39l-4.1,7h8.1L7.8,39L7.8,39z"/>
		</g>
		<g>
			<path class="st3" d="M32.2,39.3l3.8,6.6h-7.6L32.2,39.3 M32.2,39l-4.1,7h8.1L32.2,39L32.2,39z"/>
		</g>
		<g>
			<path class="st3" d="M60.7,32.2l3.8,6.6h-7.6L60.7,32.2 M60.7,31.9l-4.1,7h8.1L60.7,31.9L60.7,31.9z"/>
		</g>
		<g>
			<path class="st3" d="M52.5,32.2l3.8,6.6h-7.6L52.5,32.2 M52.5,31.9l-4.1,7h8.1L52.5,31.9L52.5,31.9z"/>
		</g>
		<g>
			<path class="st3" d="M44.4,32.2l3.8,6.6h-7.6L44.4,32.2 M44.4,31.9l-4.1,7h8.1L44.4,31.9L44.4,31.9z"/>
		</g>
		<g>
			<path class="st3" d="M44.4,46.3l3.8,6.6h-7.6L44.4,46.3 M44.4,46l-4.1,7.1h8.1L44.4,46L44.4,46z"/>
		</g>
		<g>
			<path class="st3" d="M56.6,25.2l3.8,6.6h-7.6L56.6,25.2 M56.6,24.9l-4.1,7h8.1L56.6,24.9L56.6,24.9z"/>
		</g>
		<g>
			<path class="st3" d="M48.5,25.2l3.8,6.6h-7.6L48.5,25.2 M48.5,24.9l-4.1,7h8.1L48.5,24.9L48.5,24.9z"/>
		</g>
		<g>
			<path class="st3" d="M60.7,46.3l3.8,6.6h-7.6L60.7,46.3 M60.7,46l-4.1,7h8.1L60.7,46L60.7,46z"/>
		</g>
		<g>
			<path class="st3" d="M52.5,46.3l3.8,6.6h-7.6L52.5,46.3 M52.5,46l-4.1,7h8.1L52.5,46L52.5,46z"/>
		</g>
		<g>
			<path class="st3" d="M56.6,39.3l3.8,6.6h-7.6L56.6,39.3 M56.6,39l-4.1,7h8.1L56.6,39L56.6,39z"/>
		</g>
		<g>
			<path class="st3" d="M48.5,39.3l3.8,6.6h-7.6L48.5,39.3 M48.5,39l-4.1,7h8.1L48.5,39L48.5,39z"/>
		</g>
		<g>
			<path class="st3" d="M24.1,53.3l3.8,6.6h-7.6L24.1,53.3 M24.1,53.1l-4.1,7h8.1L24.1,53.1L24.1,53.1z"/>
		</g>
		<g>
			<path class="st3" d="M15.9,53.3l3.8,6.6h-7.6L15.9,53.3 M15.9,53.1l-4.1,7H20L15.9,53.1L15.9,53.1z"/>
		</g>
		<g>
			<path class="st3" d="M40.3,53.3l3.8,6.6h-7.6L40.3,53.3 M40.3,53.1l-4.1,7h8.1L40.3,53.1L40.3,53.1z"/>
		</g>
		<g>
			<path class="st3" d="M7.8,53.3l3.8,6.6H4L7.8,53.3 M7.8,53.1l-4.1,7h8.1L7.8,53.1L7.8,53.1z"/>
		</g>
		<g>
			<path class="st3" d="M32.2,53.3L36,60h-7.6L32.2,53.3 M32.2,53.1l-4.1,7h8.1L32.2,53.1L32.2,53.1z"/>
		</g>
		<g>
			<path class="st3" d="M56.6,53.3l3.8,6.6h-7.6L56.6,53.3 M56.6,53.1l-4.1,7h8.1L56.6,53.1L56.6,53.1z"/>
		</g>
		<g>
			<path class="st3" d="M48.5,53.3l3.8,6.6h-7.6L48.5,53.3 M48.5,53.1l-4.1,7h8.1L48.5,53.1L48.5,53.1z"/>
		</g>
		<g>
			<path class="st3" d="M20,4l3.8,6.6h-7.6L20,4 M20,3.8l-4.1,7h8.1L20,3.8L20,3.8z"/>
		</g>
		<g>
			<path class="st3" d="M11.9,4l3.8,6.6H8L11.9,4 M11.9,3.8l-4.1,7h8.1L11.9,3.8L11.9,3.8z"/>
		</g>
		<g>
			<path class="st3" d="M36.2,4l3.8,6.6h-7.6L36.2,4 M36.2,3.8l-4.1,7h8.1L36.2,3.8L36.2,3.8z"/>
		</g>
		<g>
			<path class="st3" d="M28.1,4l3.8,6.6h-7.6L28.1,4 M28.1,3.8l-4.1,7h8.1L28.1,3.8L28.1,3.8z"/>
		</g>
		<g>
			<path class="st3" d="M24.1-3l3.8,6.6h-7.6L24.1-3 M24.1-3.3l-4.1,7h8.1L24.1-3.3L24.1-3.3z"/>
		</g>
		<g>
			<path class="st3" d="M15.9-3l3.8,6.6h-7.6L15.9-3 M15.9-3.3l-4.1,7H20L15.9-3.3L15.9-3.3z"/>
		</g>
		<g>
			<path class="st3" d="M40.3-3l3.8,6.6h-7.6L40.3-3 M40.3-3.3l-4.1,7h8.1L40.3-3.3L40.3-3.3z"/>
		</g>
		<g>
			<path class="st3" d="M7.8-3l3.8,6.6H4L7.8-3 M7.8-3.3l-4.1,7h8.1L7.8-3.3L7.8-3.3z"/>
		</g>
		<g>
			<path class="st3" d="M32.2-3L36,3.6h-7.6L32.2-3 M32.2-3.3l-4.1,7h8.1L32.2-3.3L32.2-3.3z"/>
		</g>
		<g>
			<path class="st3" d="M20,18.1l3.8,6.6h-7.6L20,18.1 M20,17.8l-4.1,7.1h8.1L20,17.8L20,17.8z"/>
		</g>
		<g>
			<path class="st3" d="M11.9,18.1l3.8,6.6H8L11.9,18.1 M11.9,17.8l-4.1,7.1h8.1L11.9,17.8L11.9,17.8z"/>
		</g>
		<g>
			<path class="st3" d="M36.2,18.1l3.8,6.6h-7.6L36.2,18.1 M36.2,17.8l-4.1,7.1h8.1L36.2,17.8L36.2,17.8z"/>
		</g>
		<g>
			<path class="st3" d="M28.1,18.1l3.8,6.6h-7.6L28.1,18.1 M28.1,17.8l-4.1,7.1h8.1L28.1,17.8L28.1,17.8z"/>
		</g>
		<g>
			<path class="st3" d="M24.1,11.1l3.8,6.6h-7.6L24.1,11.1 M24.1,10.8l-4.1,7h8.1L24.1,10.8L24.1,10.8z"/>
		</g>
		<g>
			<path class="st3" d="M15.9,11.1l3.8,6.6h-7.6L15.9,11.1 M15.9,10.8l-4.1,7H20L15.9,10.8L15.9,10.8z"/>
		</g>
		<g>
			<path class="st3" d="M40.3,11.1l3.8,6.6h-7.6L40.3,11.1 M40.3,10.8l-4.1,7h8.1L40.3,10.8L40.3,10.8z"/>
		</g>
		<g>
			<path class="st3" d="M7.8,11.1l3.8,6.6H4L7.8,11.1 M7.8,10.8l-4.1,7h8.1L7.8,10.8L7.8,10.8z"/>
		</g>
		<g>
			<path class="st3" d="M32.2,11.1l3.8,6.6h-7.6L32.2,11.1 M32.2,10.8l-4.1,7h8.1L32.2,10.8L32.2,10.8z"/>
		</g>
		<g>
			<path class="st3" d="M60.7,4l3.8,6.6h-7.6L60.7,4 M60.7,3.8l-4.1,7h8.1L60.7,3.8L60.7,3.8z"/>
		</g>
		<g>
			<path class="st3" d="M52.5,4l3.8,6.6h-7.6L52.5,4 M52.5,3.8l-4.1,7h8.1L52.5,3.8L52.5,3.8z"/>
		</g>
		<g>
			<path class="st3" d="M44.4,4l3.8,6.6h-7.6L44.4,4 M44.4,3.8l-4.1,7h8.1L44.4,3.8L44.4,3.8z"/>
		</g>
		<g>
			<path class="st3" d="M44.4,18.1l3.8,6.6h-7.6L44.4,18.1 M44.4,17.8l-4.1,7.1h8.1L44.4,17.8L44.4,17.8z"/>
		</g>
		<g>
			<path class="st3" d="M56.6-3l3.8,6.6h-7.6L56.6-3 M56.6-3.3l-4.1,7h8.1L56.6-3.3L56.6-3.3z"/>
		</g>
		<g>
			<path class="st3" d="M48.5-3l3.8,6.6h-7.6L48.5-3 M48.5-3.3l-4.1,7h8.1L48.5-3.3L48.5-3.3z"/>
		</g>
		<g>
			<path class="st3" d="M60.7,18.1l3.8,6.6h-7.6L60.7,18.1 M60.7,17.8l-4.1,7.1h8.1L60.7,17.8L60.7,17.8z"/>
		</g>
		<g>
			<path class="st3" d="M52.5,18.1l3.8,6.6h-7.6L52.5,18.1 M52.5,17.8l-4.1,7.1h8.1L52.5,17.8L52.5,17.8z"/>
		</g>
		<g>
			<path class="st3" d="M56.6,11.1l3.8,6.6h-7.6L56.6,11.1 M56.6,10.8l-4.1,7h8.1L56.6,10.8L56.6,10.8z"/>
		</g>
		<g>
			<path class="st3" d="M48.5,11.1l3.8,6.6h-7.6L48.5,11.1 M48.5,10.8l-4.1,7h8.1L48.5,10.8L48.5,10.8z"/>
		</g>
		<g>
			<path class="st3" d="M-0.3,25.2l3.8,6.6h-7.6L-0.3,25.2 M-0.3,24.9l-4.1,7h8.1L-0.3,24.9L-0.3,24.9z"/>
		</g>
		<g>
			<path class="st3" d="M-0.3,39.3l3.8,6.6h-7.6L-0.3,39.3 M-0.3,39l-4.1,7h8.1L-0.3,39L-0.3,39z"/>
		</g>
		<g>
			<path class="st3" d="M-0.3,53.3L3.5,60h-7.6L-0.3,53.3 M-0.3,53.1l-4.1,7h8.1L-0.3,53.1L-0.3,53.1z"/>
		</g>
		<g>
			<path class="st3" d="M3.7,4l3.8,6.6h-7.6L3.7,4 M3.7,3.8l-4.1,7h8.1L3.7,3.8L3.7,3.8z"/>
		</g>
		<g>
			<path class="st3" d="M-0.3-3l3.8,6.6h-7.6L-0.3-3 M-0.3-3.3l-4.1,7h8.1L-0.3-3.3L-0.3-3.3z"/>
		</g>
		<g>
			<path class="st3" d="M-0.3,11.1l3.8,6.6h-7.6L-0.3,11.1 M-0.3,10.8l-4.1,7h8.1L-0.3,10.8L-0.3,10.8z"/>
		</g>
		<g>
			<path class="st3" d="M3.7,32.2l3.8,6.6h-7.6L3.7,32.2 M3.7,31.9l-4.1,7h8.1L3.7,31.9L3.7,31.9z"/>
		</g>
		<g>
			<path class="st3" d="M3.7,46.3l3.8,6.6h-7.6L3.7,46.3 M3.7,46l-4.1,7h8.1L3.7,46L3.7,46z"/>
		</g>
		<g>
			<path class="st3" d="M3.7,18.1l3.8,6.6h-7.6L3.7,18.1 M3.7,17.8l-4.1,7.1h8.1L3.7,17.8L3.7,17.8z"/>
		</g>
	</g>
</g>
<g>
	<defs>
		<circle id="SVGID_00000066497092616314454470000011022861108491385780_" cx="-32.7" cy="28.4" r="28.4"/>
	</defs>
	<clipPath id="SVGID_00000037669158539637441750000013888110700853665982_">
		<use xlink:href="#SVGID_00000066497092616314454470000011022861108491385780_"  style="overflow:visible;"/>
	</clipPath>
	<g style="clip-path:url(#SVGID_00000037669158539637441750000013888110700853665982_);">
		<g>
			<path class="st3" d="M20,0.5l3.8,6.6h-7.6L20,0.5 M20,0.2l-4.1,7h8.1L20,0.2L20,0.2z"/>
		</g>
		<g>
			<path class="st3" d="M11.9,0.5l3.8,6.6H8L11.9,0.5 M11.9,0.2l-4.1,7h8.1L11.9,0.2L11.9,0.2z"/>
		</g>
		<g>
			<path class="st3" d="M36.2,0.5l3.8,6.6h-7.6L36.2,0.5 M36.2,0.2l-4.1,7h8.1L36.2,0.2L36.2,0.2z"/>
		</g>
		<g>
			<path class="st3" d="M28.1,0.5l3.8,6.6h-7.6L28.1,0.5 M28.1,0.2l-4.1,7h8.1L28.1,0.2L28.1,0.2z"/>
		</g>
		<g>
			<path class="st3" d="M24.1-6.5l3.8,6.6h-7.6L24.1-6.5 M24.1-6.8l-4.1,7h8.1L24.1-6.8L24.1-6.8z"/>
		</g>
		<g>
			<path class="st3" d="M15.9-6.5l3.8,6.6h-7.6L15.9-6.5 M15.9-6.8l-4.1,7H20L15.9-6.8L15.9-6.8z"/>
		</g>
		<g>
			<path class="st3" d="M40.3-6.5l3.8,6.6h-7.6L40.3-6.5 M40.3-6.8l-4.1,7h8.1L40.3-6.8L40.3-6.8z"/>
		</g>
		<g>
			<path class="st3" d="M7.8-6.5l3.8,6.6H4L7.8-6.5 M7.8-6.8l-4.1,7h8.1L7.8-6.8L7.8-6.8z"/>
		</g>
		<g>
			<path class="st3" d="M32.2-6.5L36,0.1h-7.6L32.2-6.5 M32.2-6.8l-4.1,7h8.1L32.2-6.8L32.2-6.8z"/>
		</g>
		<g>
			<path class="st3" d="M20,14.6l3.8,6.6h-7.6L20,14.6 M20,14.3l-4.1,7.1h8.1L20,14.3L20,14.3z"/>
		</g>
		<g>
			<path class="st3" d="M11.9,14.6l3.8,6.6H8L11.9,14.6 M11.9,14.3l-4.1,7.1h8.1L11.9,14.3L11.9,14.3z"/>
		</g>
		<g>
			<path class="st3" d="M36.2,14.6l3.8,6.6h-7.6L36.2,14.6 M36.2,14.3l-4.1,7.1h8.1L36.2,14.3L36.2,14.3z"/>
		</g>
		<g>
			<path class="st3" d="M28.1,14.6l3.8,6.6h-7.6L28.1,14.6 M28.1,14.3l-4.1,7.1h8.1L28.1,14.3L28.1,14.3z"/>
		</g>
		<g>
			<path class="st3" d="M24.1,7.5l3.8,6.6h-7.6L24.1,7.5 M24.1,7.3l-4.1,7h8.1L24.1,7.3L24.1,7.3z"/>
		</g>
		<g>
			<path class="st3" d="M15.9,7.5l3.8,6.6h-7.6L15.9,7.5 M15.9,7.3l-4.1,7H20L15.9,7.3L15.9,7.3z"/>
		</g>
		<g>
			<path class="st3" d="M40.3,7.5l3.8,6.6h-7.6L40.3,7.5 M40.3,7.3l-4.1,7h8.1L40.3,7.3L40.3,7.3z"/>
		</g>
		<g>
			<path class="st3" d="M7.8,7.5l3.8,6.6H4L7.8,7.5 M7.8,7.3l-4.1,7h8.1L7.8,7.3L7.8,7.3z"/>
		</g>
		<g>
			<path class="st3" d="M32.2,7.5l3.8,6.6h-7.6L32.2,7.5 M32.2,7.3l-4.1,7h8.1L32.2,7.3L32.2,7.3z"/>
		</g>
		<g>
			<path class="st3" d="M60.7,0.5l3.8,6.6h-7.6L60.7,0.5 M60.7,0.2l-4.1,7h8.1L60.7,0.2L60.7,0.2z"/>
		</g>
		<g>
			<path class="st3" d="M52.5,0.5l3.8,6.6h-7.6L52.5,0.5 M52.5,0.2l-4.1,7h8.1L52.5,0.2L52.5,0.2z"/>
		</g>
		<g>
			<path class="st3" d="M44.4,0.5l3.8,6.6h-7.6L44.4,0.5 M44.4,0.2l-4.1,7h8.1L44.4,0.2L44.4,0.2z"/>
		</g>
		<g>
			<path class="st3" d="M44.4,14.6l3.8,6.6h-7.6L44.4,14.6 M44.4,14.3l-4.1,7.1h8.1L44.4,14.3L44.4,14.3z"/>
		</g>
		<g>
			<path class="st3" d="M56.6-6.5l3.8,6.6h-7.6L56.6-6.5 M56.6-6.8l-4.1,7h8.1L56.6-6.8L56.6-6.8z"/>
		</g>
		<g>
			<path class="st3" d="M48.5-6.5l3.8,6.6h-7.6L48.5-6.5 M48.5-6.8l-4.1,7h8.1L48.5-6.8L48.5-6.8z"/>
		</g>
		<g>
			<path class="st3" d="M60.7,14.6l3.8,6.6h-7.6L60.7,14.6 M60.7,14.3l-4.1,7.1h8.1L60.7,14.3L60.7,14.3z"/>
		</g>
		<g>
			<path class="st3" d="M52.5,14.6l3.8,6.6h-7.6L52.5,14.6 M52.5,14.3l-4.1,7.1h8.1L52.5,14.3L52.5,14.3z"/>
		</g>
		<g>
			<path class="st3" d="M56.6,7.5l3.8,6.6h-7.6L56.6,7.5 M56.6,7.3l-4.1,7h8.1L56.6,7.3L56.6,7.3z"/>
		</g>
		<g>
			<path class="st3" d="M48.5,7.5l3.8,6.6h-7.6L48.5,7.5 M48.5,7.3l-4.1,7h8.1L48.5,7.3L48.5,7.3z"/>
		</g>
		<g>
			<path class="st3" d="M20,28.7l3.8,6.6h-7.6L20,28.7 M20,28.4l-4.1,7h8.1L20,28.4L20,28.4z"/>
		</g>
		<g>
			<path class="st3" d="M11.9,28.7l3.8,6.6H8L11.9,28.7 M11.9,28.4l-4.1,7h8.1L11.9,28.4L11.9,28.4z"/>
		</g>
		<g>
			<path class="st3" d="M36.2,28.7l3.8,6.6h-7.6L36.2,28.7 M36.2,28.4l-4.1,7h8.1L36.2,28.4L36.2,28.4z"/>
		</g>
		<g>
			<path class="st3" d="M28.1,28.7l3.8,6.6h-7.6L28.1,28.7 M28.1,28.4l-4.1,7h8.1L28.1,28.4L28.1,28.4z"/>
		</g>
		<g>
			<path class="st3" d="M24.1,21.6l3.8,6.6h-7.6L24.1,21.6 M24.1,21.4l-4.1,7h8.1L24.1,21.4L24.1,21.4z"/>
		</g>
		<g>
			<path class="st3" d="M15.9,21.6l3.8,6.6h-7.6L15.9,21.6 M15.9,21.4l-4.1,7H20L15.9,21.4L15.9,21.4z"/>
		</g>
		<g>
			<path class="st3" d="M40.3,21.6l3.8,6.6h-7.6L40.3,21.6 M40.3,21.4l-4.1,7h8.1L40.3,21.4L40.3,21.4z"/>
		</g>
		<g>
			<path class="st3" d="M7.8,21.6l3.8,6.6H4L7.8,21.6 M7.8,21.4l-4.1,7h8.1L7.8,21.4L7.8,21.4z"/>
		</g>
		<g>
			<path class="st3" d="M32.2,21.6l3.8,6.6h-7.6L32.2,21.6 M32.2,21.4l-4.1,7h8.1L32.2,21.4L32.2,21.4z"/>
		</g>
		<g>
			<path class="st3" d="M20,42.7l3.8,6.6h-7.6L20,42.7 M20,42.5l-4.1,7h8.1L20,42.5L20,42.5z"/>
		</g>
		<g>
			<path class="st3" d="M11.9,42.7l3.8,6.6H8L11.9,42.7 M11.9,42.5l-4.1,7h8.1L11.9,42.5L11.9,42.5z"/>
		</g>
		<g>
			<path class="st3" d="M36.2,42.7l3.8,6.6h-7.6L36.2,42.7 M36.2,42.5l-4.1,7h8.1L36.2,42.5L36.2,42.5z"/>
		</g>
		<g>
			<path class="st3" d="M28.1,42.7l3.8,6.6h-7.6L28.1,42.7 M28.1,42.5l-4.1,7h8.1L28.1,42.5L28.1,42.5z"/>
		</g>
		<g>
			<path class="st3" d="M24.1,35.7l3.8,6.6h-7.6L24.1,35.7 M24.1,35.4l-4.1,7h8.1L24.1,35.4L24.1,35.4z"/>
		</g>
		<g>
			<path class="st3" d="M15.9,35.7l3.8,6.6h-7.6L15.9,35.7 M15.9,35.4l-4.1,7H20L15.9,35.4L15.9,35.4z"/>
		</g>
		<g>
			<path class="st3" d="M40.3,35.7l3.8,6.6h-7.6L40.3,35.7 M40.3,35.4l-4.1,7h8.1L40.3,35.4L40.3,35.4z"/>
		</g>
		<g>
			<path class="st3" d="M7.8,35.7l3.8,6.6H4L7.8,35.7 M7.8,35.4l-4.1,7h8.1L7.8,35.4L7.8,35.4z"/>
		</g>
		<g>
			<path class="st3" d="M32.2,35.7l3.8,6.6h-7.6L32.2,35.7 M32.2,35.4l-4.1,7h8.1L32.2,35.4L32.2,35.4z"/>
		</g>
		<g>
			<path class="st3" d="M60.7,28.7l3.8,6.6h-7.6L60.7,28.7 M60.7,28.4l-4.1,7h8.1L60.7,28.4L60.7,28.4z"/>
		</g>
		<g>
			<path class="st3" d="M52.5,28.7l3.8,6.6h-7.6L52.5,28.7 M52.5,28.4l-4.1,7h8.1L52.5,28.4L52.5,28.4z"/>
		</g>
		<g>
			<path class="st3" d="M44.4,28.7l3.8,6.6h-7.6L44.4,28.7 M44.4,28.4l-4.1,7h8.1L44.4,28.4L44.4,28.4z"/>
		</g>
		<g>
			<path class="st3" d="M44.4,42.7l3.8,6.6h-7.6L44.4,42.7 M44.4,42.5l-4.1,7h8.1L44.4,42.5L44.4,42.5z"/>
		</g>
		<g>
			<path class="st3" d="M56.6,21.6l3.8,6.6h-7.6L56.6,21.6 M56.6,21.4l-4.1,7h8.1L56.6,21.4L56.6,21.4z"/>
		</g>
		<g>
			<path class="st3" d="M48.5,21.6l3.8,6.6h-7.6L48.5,21.6 M48.5,21.4l-4.1,7h8.1L48.5,21.4L48.5,21.4z"/>
		</g>
		<g>
			<path class="st3" d="M60.7,42.7l3.8,6.6h-7.6L60.7,42.7 M60.7,42.5l-4.1,7h8.1L60.7,42.5L60.7,42.5z"/>
		</g>
		<g>
			<path class="st3" d="M52.5,42.7l3.8,6.6h-7.6L52.5,42.7 M52.5,42.5l-4.1,7h8.1L52.5,42.5L52.5,42.5z"/>
		</g>
		<g>
			<path class="st3" d="M56.6,35.7l3.8,6.6h-7.6L56.6,35.7 M56.6,35.4l-4.1,7h8.1L56.6,35.4L56.6,35.4z"/>
		</g>
		<g>
			<path class="st3" d="M48.5,35.7l3.8,6.6h-7.6L48.5,35.7 M48.5,35.4l-4.1,7h8.1L48.5,35.4L48.5,35.4z"/>
		</g>
		<g>
			<path class="st3" d="M20,56.8l3.8,6.6h-7.6L20,56.8 M20,56.6l-4.1,7h8.1L20,56.6L20,56.6z"/>
		</g>
		<g>
			<path class="st3" d="M11.9,56.8l3.8,6.6H8L11.9,56.8 M11.9,56.6l-4.1,7h8.1L11.9,56.6L11.9,56.6z"/>
		</g>
		<g>
			<path class="st3" d="M36.2,56.8l3.8,6.6h-7.6L36.2,56.8 M36.2,56.6l-4.1,7h8.1L36.2,56.6L36.2,56.6z"/>
		</g>
		<g>
			<path class="st3" d="M28.1,56.8l3.8,6.6h-7.6L28.1,56.8 M28.1,56.6l-4.1,7h8.1L28.1,56.6L28.1,56.6z"/>
		</g>
		<g>
			<path class="st3" d="M24.1,49.8l3.8,6.6h-7.6L24.1,49.8 M24.1,49.5l-4.1,7h8.1L24.1,49.5L24.1,49.5z"/>
		</g>
		<g>
			<path class="st3" d="M15.9,49.8l3.8,6.6h-7.6L15.9,49.8 M15.9,49.5l-4.1,7H20L15.9,49.5L15.9,49.5z"/>
		</g>
		<g>
			<path class="st3" d="M40.3,49.8l3.8,6.6h-7.6L40.3,49.8 M40.3,49.5l-4.1,7.1h8.1L40.3,49.5L40.3,49.5z"/>
		</g>
		<g>
			<path class="st3" d="M7.8,49.8l3.8,6.6H4L7.8,49.8 M7.8,49.5l-4.1,7h8.1L7.8,49.5L7.8,49.5z"/>
		</g>
		<g>
			<path class="st3" d="M32.2,49.8l3.8,6.6h-7.6L32.2,49.8 M32.2,49.5l-4.1,7h8.1L32.2,49.5L32.2,49.5z"/>
		</g>
		<g>
			<path class="st3" d="M60.7,56.8l3.8,6.6h-7.6L60.7,56.8 M60.7,56.6l-4.1,7h8.1L60.7,56.6L60.7,56.6z"/>
		</g>
		<g>
			<path class="st3" d="M52.5,56.8l3.8,6.6h-7.6L52.5,56.8 M52.5,56.6l-4.1,7h8.1L52.5,56.6L52.5,56.6z"/>
		</g>
		<g>
			<path class="st3" d="M44.4,56.8l3.8,6.6h-7.6L44.4,56.8 M44.4,56.6l-4.1,7h8.1L44.4,56.6L44.4,56.6z"/>
		</g>
		<g>
			<path class="st3" d="M56.6,49.8l3.8,6.6h-7.6L56.6,49.8 M56.6,49.5l-4.1,7h8.1L56.6,49.5L56.6,49.5z"/>
		</g>
		<g>
			<path class="st3" d="M48.5,49.8l3.8,6.6h-7.6L48.5,49.8 M48.5,49.5l-4.1,7h8.1L48.5,49.5L48.5,49.5z"/>
		</g>
		<g>
			<path class="st3" d="M-0.3-6.5l3.8,6.6h-7.6L-0.3-6.5 M-0.3-6.8l-4.1,7h8.1L-0.3-6.8L-0.3-6.8z"/>
		</g>
		<g>
			<path class="st3" d="M-0.3,7.5l3.8,6.6h-7.6L-0.3,7.5 M-0.3,7.3l-4.1,7h8.1L-0.3,7.3L-0.3,7.3z"/>
		</g>
		<g>
			<path class="st3" d="M-0.3,21.6l3.8,6.6h-7.6L-0.3,21.6 M-0.3,21.4l-4.1,7h8.1L-0.3,21.4L-0.3,21.4z"/>
		</g>
		<g>
			<path class="st3" d="M3.7,0.5l3.8,6.6h-7.6L3.7,0.5 M3.7,0.2l-4.1,7h8.1L3.7,0.2L3.7,0.2z"/>
		</g>
		<g>
			<path class="st3" d="M3.7,14.6l3.8,6.6h-7.6L3.7,14.6 M3.7,14.3l-4.1,7.1h8.1L3.7,14.3L3.7,14.3z"/>
		</g>
		<g>
			<path class="st3" d="M3.7,28.7l3.8,6.6h-7.6L3.7,28.7 M3.7,28.4l-4.1,7h8.1L3.7,28.4L3.7,28.4z"/>
		</g>
		<g>
			<path class="st3" d="M3.7,42.7l3.8,6.6h-7.6L3.7,42.7 M3.7,42.5l-4.1,7h8.1L3.7,42.5L3.7,42.5z"/>
		</g>
		<g>
			<path class="st3" d="M3.7,56.8l3.8,6.6h-7.6L3.7,56.8 M3.7,56.6l-4.1,7h8.1L3.7,56.6L3.7,56.6z"/>
		</g>
		<g>
			<path class="st3" d="M-0.3,35.7l3.8,6.6h-7.6L-0.3,35.7 M-0.3,35.4l-4.1,7h8.1L-0.3,35.4L-0.3,35.4z"/>
		</g>
		<g>
			<path class="st3" d="M-0.3,49.8l3.8,6.6h-7.6L-0.3,49.8 M-0.3,49.5l-4.1,7h8.1L-0.3,49.5L-0.3,49.5z"/>
		</g>
	</g>
</g>
<g>
	<defs>
		<circle id="SVGID_00000018223484297484378620000008677981045187138977_" cx="28.4" cy="88.3" r="28.4"/>
	</defs>
	<clipPath id="SVGID_00000087385185380787814260000011854495534675967640_">
		<use xlink:href="#SVGID_00000018223484297484378620000008677981045187138977_"  style="overflow:visible;"/>
	</clipPath>
	<g style="clip-path:url(#SVGID_00000087385185380787814260000011854495534675967640_);">
		<g>
			<path class="st7" d="M-0.3,32.2l3.8,6.6h-7.6L-0.3,32.2 M-0.3,31.9l-4.1,7h8.1L-0.3,31.9L-0.3,31.9z"/>
		</g>
		<g>
			<path class="st7" d="M16,32.2l3.8,6.6h-7.6L16,32.2 M16,31.9l-4.1,7H20L16,31.9L16,31.9z"/>
		</g>
		<g>
			<path class="st7" d="M7.8,32.2l3.8,6.6H4L7.8,32.2 M7.8,31.9l-4.1,7h8.1L7.8,31.9L7.8,31.9z"/>
		</g>
		<g>
			<path class="st7" d="M3.8,25.2l3.8,6.6H0L3.8,25.2 M3.8,24.9l-4.1,7h8.1L3.8,24.9L3.8,24.9z"/>
		</g>
		<g>
			<path class="st7" d="M20,25.2l3.8,6.6h-7.6L20,25.2 M20,24.9l-4.1,7h8.1L20,24.9L20,24.9z"/>
		</g>
		<g>
			<path class="st7" d="M11.9,25.2l3.8,6.6H8.1L11.9,25.2 M11.9,24.9l-4.1,7H16L11.9,24.9L11.9,24.9z"/>
		</g>
		<g>
			<path class="st7" d="M-0.3,46.3l3.8,6.6h-7.6L-0.3,46.3 M-0.3,46l-4.1,7.1h8.1L-0.3,46L-0.3,46z"/>
		</g>
		<g>
			<path class="st7" d="M16,46.3l3.8,6.6h-7.6L16,46.3 M16,46l-4.1,7H20L16,46L16,46z"/>
		</g>
		<g>
			<path class="st7" d="M7.8,46.3l3.8,6.6H4L7.8,46.3 M7.8,46l-4.1,7h8.1L7.8,46L7.8,46z"/>
		</g>
		<g>
			<path class="st7" d="M3.8,39.3l3.8,6.6H0L3.8,39.3 M3.8,39l-4.1,7h8.1L3.8,39L3.8,39z"/>
		</g>
		<g>
			<path class="st7" d="M20,39.3l3.8,6.6h-7.6L20,39.3 M20,39L16,46h8.1L20,39L20,39z"/>
		</g>
		<g>
			<path class="st7" d="M11.9,39.3l3.8,6.6H8.1L11.9,39.3 M11.9,39l-4.1,7H16L11.9,39L11.9,39z"/>
		</g>
		<g>
			<path class="st7" d="M40.4,32.2l3.8,6.6h-7.6L40.4,32.2 M40.4,31.9l-4.1,7h8.1L40.4,31.9L40.4,31.9z"/>
		</g>
		<g>
			<path class="st7" d="M32.2,32.2l3.8,6.6h-7.6L32.2,32.2 M32.2,31.9l-4.1,7h8.1L32.2,31.9L32.2,31.9z"/>
		</g>
		<g>
			<path class="st7" d="M56.6,32.2l3.8,6.6h-7.6L56.6,32.2 M56.6,31.9l-4.1,7h8.1L56.6,31.9L56.6,31.9z"/>
		</g>
		<g>
			<path class="st7" d="M24.1,32.2l3.8,6.6h-7.6L24.1,32.2 M24.1,31.9L20,39h8.1L24.1,31.9L24.1,31.9z"/>
		</g>
		<g>
			<path class="st7" d="M24.1,46.3l3.8,6.6h-7.6L24.1,46.3 M24.1,46l-4.1,7h8.1L24.1,46L24.1,46z"/>
		</g>
		<g>
			<path class="st7" d="M48.5,32.2l3.8,6.6h-7.6L48.5,32.2 M48.5,31.9l-4.1,7h8.1L48.5,31.9L48.5,31.9z"/>
		</g>
		<g>
			<path class="st7" d="M44.4,25.2l3.8,6.6h-7.6L44.4,25.2 M44.4,24.9l-4.1,7h8.1L44.4,24.9L44.4,24.9z"/>
		</g>
		<g>
			<path class="st7" d="M36.3,25.2l3.8,6.6h-7.6L36.3,25.2 M36.3,24.9l-4.1,7h8.1L36.3,24.9L36.3,24.9z"/>
		</g>
		<g>
			<path class="st7" d="M60.7,25.2l3.8,6.6h-7.6L60.7,25.2 M60.7,24.9l-4.1,7h8.1L60.7,24.9L60.7,24.9z"/>
		</g>
		<g>
			<path class="st7" d="M28.2,25.2l3.8,6.6h-7.6L28.2,25.2 M28.2,24.9l-4.1,7h8.1L28.2,24.9L28.2,24.9z"/>
		</g>
		<g>
			<path class="st7" d="M52.6,25.2l3.8,6.6h-7.6L52.6,25.2 M52.6,24.9l-4.1,7h8.1L52.6,24.9L52.6,24.9z"/>
		</g>
		<g>
			<path class="st7" d="M40.4,46.3l3.8,6.6h-7.6L40.4,46.3 M40.4,46l-4.1,7h8.1L40.4,46L40.4,46z"/>
		</g>
		<g>
			<path class="st7" d="M32.2,46.3l3.8,6.6h-7.6L32.2,46.3 M32.2,46l-4.1,7h8.1L32.2,46L32.2,46z"/>
		</g>
		<g>
			<path class="st7" d="M56.6,46.3l3.8,6.6h-7.6L56.6,46.3 M56.6,46l-4.1,7h8.1L56.6,46L56.6,46z"/>
		</g>
		<g>
			<path class="st7" d="M48.5,46.3l3.8,6.6h-7.6L48.5,46.3 M48.5,46l-4.1,7h8.1L48.5,46L48.5,46z"/>
		</g>
		<g>
			<path class="st7" d="M44.4,39.3l3.8,6.6h-7.6L44.4,39.3 M44.4,39l-4.1,7h8.1L44.4,39L44.4,39z"/>
		</g>
		<g>
			<path class="st7" d="M36.3,39.3l3.8,6.6h-7.6L36.3,39.3 M36.3,39l-4.1,7h8.1L36.3,39L36.3,39z"/>
		</g>
		<g>
			<path class="st7" d="M60.7,39.3l3.8,6.6h-7.6L60.7,39.3 M60.7,39l-4.1,7h8.1L60.7,39L60.7,39z"/>
		</g>
		<g>
			<path class="st7" d="M28.2,39.3l3.8,6.6h-7.6L28.2,39.3 M28.2,39l-4.1,7h8.1L28.2,39L28.2,39z"/>
		</g>
		<g>
			<path class="st7" d="M52.6,39.3l3.8,6.6h-7.6L52.6,39.3 M52.6,39l-4.1,7h8.1L52.6,39L52.6,39z"/>
		</g>
		<g>
			<path class="st7" d="M3.8,53.3L7.6,60H0L3.8,53.3 M3.8,53.1l-4.1,7h8.1L3.8,53.1L3.8,53.1z"/>
		</g>
		<g>
			<path class="st7" d="M20,53.3l3.8,6.6h-7.6L20,53.3 M20,53.1l-4.1,7h8.1L20,53.1L20,53.1z"/>
		</g>
		<g>
			<path class="st7" d="M11.9,53.3l3.8,6.6H8.1L11.9,53.3 M11.9,53.1l-4.1,7H16L11.9,53.1L11.9,53.1z"/>
		</g>
		<g>
			<path class="st7" d="M44.4,53.3l3.8,6.6h-7.6L44.4,53.3 M44.4,53.1l-4.1,7h8.1L44.4,53.1L44.4,53.1z"/>
		</g>
		<g>
			<path class="st7" d="M36.3,53.3l3.8,6.6h-7.6L36.3,53.3 M36.3,53.1l-4.1,7h8.1L36.3,53.1L36.3,53.1z"/>
		</g>
		<g>
			<path class="st7" d="M60.7,53.3l3.8,6.6h-7.6L60.7,53.3 M60.7,53.1l-4.1,7h8.1L60.7,53.1L60.7,53.1z"/>
		</g>
		<g>
			<path class="st7" d="M28.2,53.3L32,60h-7.6L28.2,53.3 M28.2,53.1l-4.1,7h8.1L28.2,53.1L28.2,53.1z"/>
		</g>
		<g>
			<path class="st7" d="M52.6,53.3l3.8,6.6h-7.6L52.6,53.3 M52.6,53.1l-4.1,7h8.1L52.6,53.1L52.6,53.1z"/>
		</g>
		<g>
			<path class="st7" d="M-0.3,4l3.8,6.6h-7.6L-0.3,4 M-0.3,3.8l-4.1,7h8.1L-0.3,3.8L-0.3,3.8z"/>
		</g>
		<g>
			<path class="st7" d="M16,4l3.8,6.6h-7.6L16,4 M16,3.8l-4.1,7H20L16,3.8L16,3.8z"/>
		</g>
		<g>
			<path class="st7" d="M7.8,4l3.8,6.6H4L7.8,4 M7.8,3.8l-4.1,7h8.1L7.8,3.8L7.8,3.8z"/>
		</g>
		<g>
			<path class="st7" d="M3.8-3l3.8,6.6H0L3.8-3 M3.8-3.3l-4.1,7h8.1L3.8-3.3L3.8-3.3z"/>
		</g>
		<g>
			<path class="st7" d="M20-3l3.8,6.6h-7.6L20-3 M20-3.3l-4.1,7h8.1L20-3.3L20-3.3z"/>
		</g>
		<g>
			<path class="st7" d="M11.9-3l3.8,6.6H8.1L11.9-3 M11.9-3.3l-4.1,7H16L11.9-3.3L11.9-3.3z"/>
		</g>
		<g>
			<path class="st7" d="M-0.3,18.1l3.8,6.6h-7.6L-0.3,18.1 M-0.3,17.8l-4.1,7.1h8.1L-0.3,17.8L-0.3,17.8z"/>
		</g>
		<g>
			<path class="st7" d="M16,18.1l3.8,6.6h-7.6L16,18.1 M16,17.8l-4.1,7.1H20L16,17.8L16,17.8z"/>
		</g>
		<g>
			<path class="st7" d="M7.8,18.1l3.8,6.6H4L7.8,18.1 M7.8,17.8l-4.1,7.1h8.1L7.8,17.8L7.8,17.8z"/>
		</g>
		<g>
			<path class="st7" d="M3.8,11.1l3.8,6.6H0L3.8,11.1 M3.8,10.8l-4.1,7h8.1L3.8,10.8L3.8,10.8z"/>
		</g>
		<g>
			<path class="st7" d="M20,11.1l3.8,6.6h-7.6L20,11.1 M20,10.8l-4.1,7h8.1L20,10.8L20,10.8z"/>
		</g>
		<g>
			<path class="st7" d="M11.9,11.1l3.8,6.6H8.1L11.9,11.1 M11.9,10.8l-4.1,7H16L11.9,10.8L11.9,10.8z"/>
		</g>
		<g>
			<path class="st7" d="M40.4,4l3.8,6.6h-7.6L40.4,4 M40.4,3.8l-4.1,7h8.1L40.4,3.8L40.4,3.8z"/>
		</g>
		<g>
			<path class="st7" d="M32.2,4l3.8,6.6h-7.6L32.2,4 M32.2,3.8l-4.1,7h8.1L32.2,3.8L32.2,3.8z"/>
		</g>
		<g>
			<path class="st7" d="M56.6,4l3.8,6.6h-7.6L56.6,4 M56.6,3.8l-4.1,7h8.1L56.6,3.8L56.6,3.8z"/>
		</g>
		<g>
			<path class="st7" d="M24.1,4l3.8,6.6h-7.6L24.1,4 M24.1,3.8l-4.1,7h8.1L24.1,3.8L24.1,3.8z"/>
		</g>
		<g>
			<path class="st7" d="M24.1,18.1l3.8,6.6h-7.6L24.1,18.1 M24.1,17.8L20,24.9h8.1L24.1,17.8L24.1,17.8z"/>
		</g>
		<g>
			<path class="st7" d="M48.5,4l3.8,6.6h-7.6L48.5,4 M48.5,3.8l-4.1,7h8.1L48.5,3.8L48.5,3.8z"/>
		</g>
		<g>
			<path class="st7" d="M44.4-3l3.8,6.6h-7.6L44.4-3 M44.4-3.3l-4.1,7h8.1L44.4-3.3L44.4-3.3z"/>
		</g>
		<g>
			<path class="st7" d="M36.3-3l3.8,6.6h-7.6L36.3-3 M36.3-3.3l-4.1,7h8.1L36.3-3.3L36.3-3.3z"/>
		</g>
		<g>
			<path class="st7" d="M60.7-3l3.8,6.6h-7.6L60.7-3 M60.7-3.3l-4.1,7h8.1L60.7-3.3L60.7-3.3z"/>
		</g>
		<g>
			<path class="st7" d="M28.2-3L32,3.6h-7.6L28.2-3 M28.2-3.3l-4.1,7h8.1L28.2-3.3L28.2-3.3z"/>
		</g>
		<g>
			<path class="st7" d="M52.6-3l3.8,6.6h-7.6L52.6-3 M52.6-3.3l-4.1,7h8.1L52.6-3.3L52.6-3.3z"/>
		</g>
		<g>
			<path class="st7" d="M40.4,18.1l3.8,6.6h-7.6L40.4,18.1 M40.4,17.8l-4.1,7.1h8.1L40.4,17.8L40.4,17.8z"/>
		</g>
		<g>
			<path class="st7" d="M32.2,18.1l3.8,6.6h-7.6L32.2,18.1 M32.2,17.8l-4.1,7.1h8.1L32.2,17.8L32.2,17.8z"/>
		</g>
		<g>
			<path class="st7" d="M56.6,18.1l3.8,6.6h-7.6L56.6,18.1 M56.6,17.8l-4.1,7.1h8.1L56.6,17.8L56.6,17.8z"/>
		</g>
		<g>
			<path class="st7" d="M48.5,18.1l3.8,6.6h-7.6L48.5,18.1 M48.5,17.8l-4.1,7.1h8.1L48.5,17.8L48.5,17.8z"/>
		</g>
		<g>
			<path class="st7" d="M44.4,11.1l3.8,6.6h-7.6L44.4,11.1 M44.4,10.8l-4.1,7h8.1L44.4,10.8L44.4,10.8z"/>
		</g>
		<g>
			<path class="st7" d="M36.3,11.1l3.8,6.6h-7.6L36.3,11.1 M36.3,10.8l-4.1,7h8.1L36.3,10.8L36.3,10.8z"/>
		</g>
		<g>
			<path class="st7" d="M60.7,11.1l3.8,6.6h-7.6L60.7,11.1 M60.7,10.8l-4.1,7h8.1L60.7,10.8L60.7,10.8z"/>
		</g>
		<g>
			<path class="st7" d="M28.2,11.1l3.8,6.6h-7.6L28.2,11.1 M28.2,10.8l-4.1,7h8.1L28.2,10.8L28.2,10.8z"/>
		</g>
		<g>
			<path class="st7" d="M52.6,11.1l3.8,6.6h-7.6L52.6,11.1 M52.6,10.8l-4.1,7h8.1L52.6,10.8L52.6,10.8z"/>
		</g>
	</g>
</g>
<circle class="st5" cx="28.4" cy="28.4" r="28.4"/>
<g>
	<defs>
		<circle id="SVGID_00000150808657520393757420000012332847105705282689_" cx="28.4" cy="28.4" r="28.4"/>
	</defs>
	<clipPath id="SVGID_00000166648337112009735820000016870392442979571362_">
		<use xlink:href="#SVGID_00000150808657520393757420000012332847105705282689_"  style="overflow:visible;"/>
	</clipPath>
	<g style="clip-path:url(#SVGID_00000166648337112009735820000016870392442979571362_);">
		<g>
			<path class="st7" d="M-0.3,0.5l3.8,6.6h-7.6L-0.3,0.5 M-0.3,0.2l-4.1,7h8.1L-0.3,0.2L-0.3,0.2z"/>
		</g>
		<g>
			<path class="st7" d="M16,0.5l3.8,6.6h-7.6L16,0.5 M16,0.2l-4.1,7H20L16,0.2L16,0.2z"/>
		</g>
		<g>
			<path class="st7" d="M7.8,0.5l3.8,6.6H4L7.8,0.5 M7.8,0.2l-4.1,7h8.1L7.8,0.2L7.8,0.2z"/>
		</g>
		<g>
			<path class="st7" d="M3.8-6.5l3.8,6.6H0L3.8-6.5 M3.8-6.8l-4.1,7h8.1L3.8-6.8L3.8-6.8z"/>
		</g>
		<g>
			<path class="st7" d="M20-6.5l3.8,6.6h-7.6L20-6.5 M20-6.8l-4.1,7h8.1L20-6.8L20-6.8z"/>
		</g>
		<g>
			<path class="st7" d="M11.9-6.5l3.8,6.6H8.1L11.9-6.5 M11.9-6.8l-4.1,7H16L11.9-6.8L11.9-6.8z"/>
		</g>
		<g>
			<path class="st7" d="M-0.3,14.6l3.8,6.6h-7.6L-0.3,14.6 M-0.3,14.3l-4.1,7.1h8.1L-0.3,14.3L-0.3,14.3z"/>
		</g>
		<g>
			<path class="st7" d="M16,14.6l3.8,6.6h-7.6L16,14.6 M16,14.3l-4.1,7.1H20L16,14.3L16,14.3z"/>
		</g>
		<g>
			<path class="st7" d="M7.8,14.6l3.8,6.6H4L7.8,14.6 M7.8,14.3l-4.1,7.1h8.1L7.8,14.3L7.8,14.3z"/>
		</g>
		<g>
			<path class="st7" d="M3.8,7.5l3.8,6.6H0L3.8,7.5 M3.8,7.3l-4.1,7h8.1L3.8,7.3L3.8,7.3z"/>
		</g>
		<g>
			<path class="st7" d="M20,7.5l3.8,6.6h-7.6L20,7.5 M20,7.3l-4.1,7h8.1L20,7.3L20,7.3z"/>
		</g>
		<g>
			<path class="st7" d="M11.9,7.5l3.8,6.6H8.1L11.9,7.5 M11.9,7.3l-4.1,7H16L11.9,7.3L11.9,7.3z"/>
		</g>
		<g>
			<path class="st7" d="M40.4,0.5l3.8,6.6h-7.6L40.4,0.5 M40.4,0.2l-4.1,7h8.1L40.4,0.2L40.4,0.2z"/>
		</g>
		<g>
			<path class="st7" d="M32.2,0.5l3.8,6.6h-7.6L32.2,0.5 M32.2,0.2l-4.1,7h8.1L32.2,0.2L32.2,0.2z"/>
		</g>
		<g>
			<path class="st7" d="M56.6,0.5l3.8,6.6h-7.6L56.6,0.5 M56.6,0.2l-4.1,7h8.1L56.6,0.2L56.6,0.2z"/>
		</g>
		<g>
			<path class="st7" d="M24.1,0.5l3.8,6.6h-7.6L24.1,0.5 M24.1,0.2l-4.1,7h8.1L24.1,0.2L24.1,0.2z"/>
		</g>
		<g>
			<path class="st7" d="M24.1,14.6l3.8,6.6h-7.6L24.1,14.6 M24.1,14.3L20,21.4h8.1L24.1,14.3L24.1,14.3z"/>
		</g>
		<g>
			<path class="st7" d="M48.5,0.5l3.8,6.6h-7.6L48.5,0.5 M48.5,0.2l-4.1,7h8.1L48.5,0.2L48.5,0.2z"/>
		</g>
		<g>
			<path class="st7" d="M44.4-6.5l3.8,6.6h-7.6L44.4-6.5 M44.4-6.8l-4.1,7h8.1L44.4-6.8L44.4-6.8z"/>
		</g>
		<g>
			<path class="st7" d="M36.3-6.5l3.8,6.6h-7.6L36.3-6.5 M36.3-6.8l-4.1,7h8.1L36.3-6.8L36.3-6.8z"/>
		</g>
		<g>
			<path class="st7" d="M60.7-6.5l3.8,6.6h-7.6L60.7-6.5 M60.7-6.8l-4.1,7h8.1L60.7-6.8L60.7-6.8z"/>
		</g>
		<g>
			<path class="st7" d="M28.2-6.5L32,0.1h-7.6L28.2-6.5 M28.2-6.8l-4.1,7h8.1L28.2-6.8L28.2-6.8z"/>
		</g>
		<g>
			<path class="st7" d="M52.6-6.5l3.8,6.6h-7.6L52.6-6.5 M52.6-6.8l-4.1,7h8.1L52.6-6.8L52.6-6.8z"/>
		</g>
		<g>
			<path class="st7" d="M40.4,14.6l3.8,6.6h-7.6L40.4,14.6 M40.4,14.3l-4.1,7.1h8.1L40.4,14.3L40.4,14.3z"/>
		</g>
		<g>
			<path class="st7" d="M32.2,14.6l3.8,6.6h-7.6L32.2,14.6 M32.2,14.3l-4.1,7.1h8.1L32.2,14.3L32.2,14.3z"/>
		</g>
		<g>
			<path class="st7" d="M56.6,14.6l3.8,6.6h-7.6L56.6,14.6 M56.6,14.3l-4.1,7.1h8.1L56.6,14.3L56.6,14.3z"/>
		</g>
		<g>
			<path class="st7" d="M48.5,14.6l3.8,6.6h-7.6L48.5,14.6 M48.5,14.3l-4.1,7.1h8.1L48.5,14.3L48.5,14.3z"/>
		</g>
		<g>
			<path class="st7" d="M44.4,7.5l3.8,6.6h-7.6L44.4,7.5 M44.4,7.3l-4.1,7h8.1L44.4,7.3L44.4,7.3z"/>
		</g>
		<g>
			<path class="st7" d="M36.3,7.5l3.8,6.6h-7.6L36.3,7.5 M36.3,7.3l-4.1,7h8.1L36.3,7.3L36.3,7.3z"/>
		</g>
		<g>
			<path class="st7" d="M60.7,7.5l3.8,6.6h-7.6L60.7,7.5 M60.7,7.3l-4.1,7h8.1L60.7,7.3L60.7,7.3z"/>
		</g>
		<g>
			<path class="st7" d="M28.2,7.5l3.8,6.6h-7.6L28.2,7.5 M28.2,7.3l-4.1,7h8.1L28.2,7.3L28.2,7.3z"/>
		</g>
		<g>
			<path class="st7" d="M52.6,7.5l3.8,6.6h-7.6L52.6,7.5 M52.6,7.3l-4.1,7h8.1L52.6,7.3L52.6,7.3z"/>
		</g>
		<g>
			<path class="st7" d="M-0.3,28.7l3.8,6.6h-7.6L-0.3,28.7 M-0.3,28.4l-4.1,7h8.1L-0.3,28.4L-0.3,28.4z"/>
		</g>
		<g>
			<path class="st7" d="M16,28.7l3.8,6.6h-7.6L16,28.7 M16,28.4l-4.1,7H20L16,28.4L16,28.4z"/>
		</g>
		<g>
			<path class="st7" d="M7.8,28.7l3.8,6.6H4L7.8,28.7 M7.8,28.4l-4.1,7h8.1L7.8,28.4L7.8,28.4z"/>
		</g>
		<g>
			<path class="st7" d="M3.8,21.6l3.8,6.6H0L3.8,21.6 M3.8,21.4l-4.1,7h8.1L3.8,21.4L3.8,21.4z"/>
		</g>
		<g>
			<path class="st7" d="M20,21.6l3.8,6.6h-7.6L20,21.6 M20,21.4l-4.1,7h8.1L20,21.4L20,21.4z"/>
		</g>
		<g>
			<path class="st7" d="M11.9,21.6l3.8,6.6H8.1L11.9,21.6 M11.9,21.4l-4.1,7H16L11.9,21.4L11.9,21.4z"/>
		</g>
		<g>
			<path class="st7" d="M-0.3,42.7l3.8,6.6h-7.6L-0.3,42.7 M-0.3,42.5l-4.1,7h8.1L-0.3,42.5L-0.3,42.5z"/>
		</g>
		<g>
			<path class="st7" d="M16,42.7l3.8,6.6h-7.6L16,42.7 M16,42.5l-4.1,7H20L16,42.5L16,42.5z"/>
		</g>
		<g>
			<path class="st7" d="M7.8,42.7l3.8,6.6H4L7.8,42.7 M7.8,42.5l-4.1,7h8.1L7.8,42.5L7.8,42.5z"/>
		</g>
		<g>
			<path class="st7" d="M3.8,35.7l3.8,6.6H0L3.8,35.7 M3.8,35.4l-4.1,7h8.1L3.8,35.4L3.8,35.4z"/>
		</g>
		<g>
			<path class="st7" d="M20,35.7l3.8,6.6h-7.6L20,35.7 M20,35.4l-4.1,7h8.1L20,35.4L20,35.4z"/>
		</g>
		<g>
			<path class="st7" d="M11.9,35.7l3.8,6.6H8.1L11.9,35.7 M11.9,35.4l-4.1,7H16L11.9,35.4L11.9,35.4z"/>
		</g>
		<g>
			<path class="st7" d="M40.4,28.7l3.8,6.6h-7.6L40.4,28.7 M40.4,28.4l-4.1,7h8.1L40.4,28.4L40.4,28.4z"/>
		</g>
		<g>
			<path class="st7" d="M32.2,28.7l3.8,6.6h-7.6L32.2,28.7 M32.2,28.4l-4.1,7h8.1L32.2,28.4L32.2,28.4z"/>
		</g>
		<g>
			<path class="st7" d="M56.6,28.7l3.8,6.6h-7.6L56.6,28.7 M56.6,28.4l-4.1,7h8.1L56.6,28.4L56.6,28.4z"/>
		</g>
		<g>
			<path class="st7" d="M24.1,28.7l3.8,6.6h-7.6L24.1,28.7 M24.1,28.4l-4.1,7h8.1L24.1,28.4L24.1,28.4z"/>
		</g>
		<g>
			<path class="st7" d="M24.1,42.7l3.8,6.6h-7.6L24.1,42.7 M24.1,42.5l-4.1,7h8.1L24.1,42.5L24.1,42.5z"/>
		</g>
		<g>
			<path class="st7" d="M48.5,28.7l3.8,6.6h-7.6L48.5,28.7 M48.5,28.4l-4.1,7h8.1L48.5,28.4L48.5,28.4z"/>
		</g>
		<g>
			<path class="st7" d="M44.4,21.6l3.8,6.6h-7.6L44.4,21.6 M44.4,21.4l-4.1,7h8.1L44.4,21.4L44.4,21.4z"/>
		</g>
		<g>
			<path class="st7" d="M36.3,21.6l3.8,6.6h-7.6L36.3,21.6 M36.3,21.4l-4.1,7h8.1L36.3,21.4L36.3,21.4z"/>
		</g>
		<g>
			<path class="st7" d="M60.7,21.6l3.8,6.6h-7.6L60.7,21.6 M60.7,21.4l-4.1,7h8.1L60.7,21.4L60.7,21.4z"/>
		</g>
		<g>
			<path class="st7" d="M28.2,21.6l3.8,6.6h-7.6L28.2,21.6 M28.2,21.4l-4.1,7h8.1L28.2,21.4L28.2,21.4z"/>
		</g>
		<g>
			<path class="st7" d="M52.6,21.6l3.8,6.6h-7.6L52.6,21.6 M52.6,21.4l-4.1,7h8.1L52.6,21.4L52.6,21.4z"/>
		</g>
		<g>
			<path class="st7" d="M40.4,42.7l3.8,6.6h-7.6L40.4,42.7 M40.4,42.5l-4.1,7h8.1L40.4,42.5L40.4,42.5z"/>
		</g>
		<g>
			<path class="st7" d="M32.2,42.7l3.8,6.6h-7.6L32.2,42.7 M32.2,42.5l-4.1,7h8.1L32.2,42.5L32.2,42.5z"/>
		</g>
		<g>
			<path class="st7" d="M56.6,42.7l3.8,6.6h-7.6L56.6,42.7 M56.6,42.5l-4.1,7h8.1L56.6,42.5L56.6,42.5z"/>
		</g>
		<g>
			<path class="st7" d="M48.5,42.7l3.8,6.6h-7.6L48.5,42.7 M48.5,42.5l-4.1,7h8.1L48.5,42.5L48.5,42.5z"/>
		</g>
		<g>
			<path class="st7" d="M44.4,35.7l3.8,6.6h-7.6L44.4,35.7 M44.4,35.4l-4.1,7h8.1L44.4,35.4L44.4,35.4z"/>
		</g>
		<g>
			<path class="st7" d="M36.3,35.7l3.8,6.6h-7.6L36.3,35.7 M36.3,35.4l-4.1,7h8.1L36.3,35.4L36.3,35.4z"/>
		</g>
		<g>
			<path class="st7" d="M60.7,35.7l3.8,6.6h-7.6L60.7,35.7 M60.7,35.4l-4.1,7h8.1L60.7,35.4L60.7,35.4z"/>
		</g>
		<g>
			<path class="st7" d="M28.2,35.7l3.8,6.6h-7.6L28.2,35.7 M28.2,35.4l-4.1,7h8.1L28.2,35.4L28.2,35.4z"/>
		</g>
		<g>
			<path class="st7" d="M52.6,35.7l3.8,6.6h-7.6L52.6,35.7 M52.6,35.4l-4.1,7h8.1L52.6,35.4L52.6,35.4z"/>
		</g>
		<g>
			<path class="st7" d="M-0.3,56.8l3.8,6.6h-7.6L-0.3,56.8 M-0.3,56.6l-4.1,7h8.1L-0.3,56.6L-0.3,56.6z"/>
		</g>
		<g>
			<path class="st7" d="M16,56.8l3.8,6.6h-7.6L16,56.8 M16,56.6l-4.1,7H20L16,56.6L16,56.6z"/>
		</g>
		<g>
			<path class="st7" d="M7.8,56.8l3.8,6.6H4L7.8,56.8 M7.8,56.6l-4.1,7h8.1L7.8,56.6L7.8,56.6z"/>
		</g>
		<g>
			<path class="st7" d="M3.8,49.8l3.8,6.6H0L3.8,49.8 M3.8,49.5l-4.1,7h8.1L3.8,49.5L3.8,49.5z"/>
		</g>
		<g>
			<path class="st7" d="M20,49.8l3.8,6.6h-7.6L20,49.8 M20,49.5l-4.1,7h8.1L20,49.5L20,49.5z"/>
		</g>
		<g>
			<path class="st7" d="M11.9,49.8l3.8,6.6H8.1L11.9,49.8 M11.9,49.5l-4.1,7H16L11.9,49.5L11.9,49.5z"/>
		</g>
		<g>
			<path class="st7" d="M40.4,56.8l3.8,6.6h-7.6L40.4,56.8 M40.4,56.6l-4.1,7h8.1L40.4,56.6L40.4,56.6z"/>
		</g>
		<g>
			<path class="st7" d="M32.2,56.8l3.8,6.6h-7.6L32.2,56.8 M32.2,56.6l-4.1,7h8.1L32.2,56.6L32.2,56.6z"/>
		</g>
		<g>
			<path class="st7" d="M56.6,56.8l3.8,6.6h-7.6L56.6,56.8 M56.6,56.6l-4.1,7h8.1L56.6,56.6L56.6,56.6z"/>
		</g>
		<g>
			<path class="st7" d="M24.1,56.8l3.8,6.6h-7.6L24.1,56.8 M24.1,56.6l-4.1,7h8.1L24.1,56.6L24.1,56.6z"/>
		</g>
		<g>
			<path class="st7" d="M48.5,56.8l3.8,6.6h-7.6L48.5,56.8 M48.5,56.6l-4.1,7h8.1L48.5,56.6L48.5,56.6z"/>
		</g>
		<g>
			<path class="st7" d="M44.4,49.8l3.8,6.6h-7.6L44.4,49.8 M44.4,49.5l-4.1,7h8.1L44.4,49.5L44.4,49.5z"/>
		</g>
		<g>
			<path class="st7" d="M36.3,49.8l3.8,6.6h-7.6L36.3,49.8 M36.3,49.5l-4.1,7.1h8.1L36.3,49.5L36.3,49.5z"/>
		</g>
		<g>
			<path class="st7" d="M60.7,49.8l3.8,6.6h-7.6L60.7,49.8 M60.7,49.5l-4.1,7h8.1L60.7,49.5L60.7,49.5z"/>
		</g>
		<g>
			<path class="st7" d="M28.2,49.8l3.8,6.6h-7.6L28.2,49.8 M28.2,49.5l-4.1,7h8.1L28.2,49.5L28.2,49.5z"/>
		</g>
		<g>
			<path class="st7" d="M52.6,49.8l3.8,6.6h-7.6L52.6,49.8 M52.6,49.5l-4.1,7h8.1L52.6,49.5L52.6,49.5z"/>
		</g>
	</g>
</g>
</svg>
