<svg width="39" height="20" viewBox="0 0 39 20" fill="none" xmlns="http://www.w3.org/2000/svg">
<rect x="0.5" y="0.5" width="38" height="19" rx="1.5" stroke="white"/>
<path d="M12.107 13V7H10.7537V9.35261H8.34485V7H7V13H8.34485V10.6135H10.7537V13H12.107Z" fill="white"/>
<path d="M14.6245 13V8.79407H13.3307V13H14.6245ZM13.2201 7.5C13.2201 7.91467 13.5605 8.25317 13.9691 8.25317C14.3947 8.25317 14.7351 7.91467 14.7351 7.5C14.7351 7.08533 14.3947 6.74683 13.9691 6.74683C13.5605 6.74683 13.2201 7.08533 13.2201 7.5Z" fill="white"/>
<path d="M17.2059 13V10.7574H19.4359V9.53879H17.1973V8.26939H19.7423V7H15.8525V13H17.2059Z" fill="white"/>
<path d="M21.8893 13V8.79407H20.5956V13H21.8893ZM20.4849 7.5C20.4849 7.91467 20.8254 8.25317 21.2339 8.25317C21.6595 8.25317 22 7.91467 22 7.5C22 7.08533 21.6595 6.74683 21.2339 6.74683C20.8254 6.74683 20.4849 7.08533 20.4849 7.5Z" fill="white"/>
<circle opacity="0.2" cx="29" cy="10" r="2.5" stroke="white"/>
</svg>
