<svg width="180" height="76" viewBox="0 0 180 76" fill="none" xmlns="http://www.w3.org/2000/svg">
    <title>hifi</title>
    <path d="M61.2842 76V3.99998H45.0439V32.2313H16.1382V3.99998H0V76H16.1382V47.3625H45.0439V76H61.2842Z"
          fill="white"/>
    <path d="M91.4938 76V25.5289H75.9685V76H91.4938ZM74.6406 9.99999C74.6406 14.976 78.7262 19.0381 83.629 19.0381C88.736 19.0381 92.8216 14.976 92.8216 9.99999C92.8216 5.02397 88.736 0.961914 83.629 0.961914C78.7262 0.961914 74.6406 5.02397 74.6406 9.99999Z"
          fill="white"/>
    <path d="M122.47 76V49.0888H149.231V34.4654H122.368V19.2327H152.908V3.99998H106.23V76H122.47Z" fill="white"/>
    <path d="M178.672 76V25.5289H163.147V76H178.672ZM161.819 10C161.819 14.976 165.905 19.0381 170.807 19.0381C175.914 19.0381 180 14.976 180 10C180 5.02398 175.914 0.961921 170.807 0.961921C165.905 0.961921 161.819 5.02398 161.819 10Z"
          fill="white"/>
</svg>