<svg xmlns="http://www.w3.org/2000/svg" viewBox="0 0 640 640"><linearGradient id="a" gradientUnits="userSpaceOnUse" x1="39" y1="570" x2="601" y2="570" gradientTransform="matrix(1 0 0 -1 0 890)"><stop offset="0" stop-color="#FFF"/><stop offset=".25" stop-color="#FFF" stop-opacity="0"/><stop offset=".75" stop-color="#FFF" stop-opacity="0"/><stop offset="1" stop-color="#FFF"/></linearGradient><path opacity=".1" fill="url(#a)" d="M320 39c155.2 0 281 125.8 281 281S475.2 601 320 601 39 475.2 39 320 164.8 39 320 39"/><linearGradient id="b" gradientUnits="userSpaceOnUse" x1="38.5" y1="570" x2="601.5" y2="570" gradientTransform="matrix(1 0 0 -1 0 890)"><stop offset="0" stop-color="#FFF"/><stop offset=".25" stop-color="#FFF" stop-opacity="0"/><stop offset=".75" stop-color="#FFF" stop-opacity="0"/><stop offset="1" stop-color="#FFF"/></linearGradient><path opacity=".1" fill="none" stroke="url(#b)" stroke-width="3" stroke-miterlimit="10" d="M320 40c154.6 0 280 125.4 280 280S474.6 600 320 600 40 474.6 40 320 165.4 40 320 40"/><linearGradient id="c" gradientUnits="userSpaceOnUse" x1="97" y1="570" x2="543" y2="570" gradientTransform="matrix(1 0 0 -1 0 890)"><stop offset="0" stop-color="#FFF"/><stop offset=".25" stop-color="#FFF" stop-opacity="0"/><stop offset=".75" stop-color="#FFF" stop-opacity="0"/><stop offset="1" stop-color="#FFF"/></linearGradient><path opacity=".1" fill="url(#c)" d="M320 97c123.2 0 223 99.8 223 223s-99.8 223-223 223S97 443.2 97 320 196.8 97 320 97"/><linearGradient id="d" gradientUnits="userSpaceOnUse" x1="96.5" y1="570" x2="543.5" y2="570" gradientTransform="matrix(1 0 0 -1 0 890)"><stop offset="0" stop-color="#FFF"/><stop offset=".25" stop-color="#FFF" stop-opacity="0"/><stop offset=".75" stop-color="#FFF" stop-opacity="0"/><stop offset="1" stop-color="#FFF"/></linearGradient><path opacity=".1" fill="none" stroke="url(#d)" stroke-width="3" stroke-miterlimit="10" d="M320 98c122.6 0 222 99.4 222 222s-99.4 222-222 222S98 442.6 98 320 197.4 98 320 98"/></svg>