<svg xmlns="http://www.w3.org/2000/svg" width="120" height="120" fill="none" viewBox="0 0 24 24"><g id="SVGRepo_iconCarrier"><path fill="#000" d="M9 6C9 4.34315 10.3431 3 12 3C13.6569 3 15 4.34315 15 6V12C15 13.6569 13.6569 15 12 15C10.3431 15 9 13.6569 9 12V6Z" opacity=".15" style="--darkreader-inline-fill:#000000"/><path stroke="#000" stroke-linecap="round" stroke-linejoin="round" stroke-width="1.5" d="M18 12C18 15.3137 15.3137 18 12 18M12 18C8.68629 18 6 15.3137 6 12M12 18V21M12 21H15M12 21H9M15 6V12C15 13.6569 13.6569 15 12 15C10.3431 15 9 13.6569 9 12V6C9 4.34315 10.3431 3 12 3C13.6569 3 15 4.34315 15 6Z" style="--darkreader-inline-stroke:#ffffff"/></g></svg>