<svg xmlns="http://www.w3.org/2000/svg" xmlns:svg="http://www.w3.org/2000/svg" id="Layer_1" width="120" height="120" version="1.1" viewBox="0 0 496.8 496.8" xml:space="preserve"><g id="g3158"><path style="display:inline;fill:#121c1b;fill-opacity:1;stroke-width:1.584" id="path8" d="m 248.87519,445.92001 c 116.5824,0 212.8896,-91.2384 220.4928,-205.2864 0,5.0688 1.2672,8.8704 1.2672,13.9392 0,121.6512 -98.8416,221.76 -221.76,221.76 -121.6512,0 -221.759991,-98.8416 -221.759991,-221.76 0,-5.0688 0,-8.8704 1.2672,-13.9392 7.6032,114.048 103.910391,205.2864 220.492791,205.2864 z"/><circle style="display:inline;fill:#283538;fill-opacity:1;stroke-width:1.584" id="circle12" cx="248.875" cy="243.071" r="221.76"/><path style="display:inline;fill:#000;fill-opacity:.153846;stroke-width:1.58653" id="path14" d="m 405.74362,86.606184 c 86.3078,86.307816 86.3078,227.192636 0,313.500456 -86.30783,86.3078 -227.19264,86.3078 -313.500453,0"/></g><g id="g3198"><circle style="display:none;fill:#000;fill-opacity:0;stroke-width:1.584" id="circle12-3" cx="343.108" cy="-57.84" r="221.76" transform="rotate(54)"/><path style="display:inline;fill:#121c1b;fill-opacity:1;stroke-width:1.584" id="path3789" d="m 348.69936,193.44662 c -6.1511,4.46905 -13.23121,3.34765 -17.70025,-2.80348 v 0 c -4.46907,-6.15111 -3.34771,-13.23123 2.80343,-17.70026 l 41.00745,-29.79368 c 6.15114,-4.46903 13.23125,-3.34765 17.70028,2.80347 v 0 c 4.46905,6.1511 3.34767,13.23123 -2.80345,17.70028 z"/><path style="display:inline;fill:#ea398a;stroke-width:1.584" id="path915" d="m 348.83562,186.82806 c -6.15112,4.46904 -13.23122,3.34764 -17.70028,-2.80347 v 0 c -4.46904,-6.15109 -3.34766,-13.23121 2.80345,-17.70027 l 41.00747,-29.79365 c 6.15111,-4.46907 13.23122,-3.34768 17.70027,2.80344 v 0 c 4.46907,6.15113 3.34767,13.23124 -2.80345,17.70027 z"/></g></svg>