<svg xmlns="http://www.w3.org/2000/svg" xmlns:svg="http://www.w3.org/2000/svg" id="Layer_1" width="120" height="120" version="1.1" viewBox="0 0 496.8 496.8" xml:space="preserve"><g id="g3158"><path style="display:inline;fill:#121c1b;fill-opacity:1;stroke-width:1.584" id="path8" d="m 248.87519,445.92001 c 116.5824,0 212.8896,-91.2384 220.4928,-205.2864 0,5.0688 1.2672,8.8704 1.2672,13.9392 0,121.6512 -98.8416,221.76 -221.76,221.76 -121.6512,0 -221.759991,-98.8416 -221.759991,-221.76 0,-5.0688 0,-8.8704 1.2672,-13.9392 7.6032,114.048 103.910391,205.2864 220.492791,205.2864 z"/><circle style="display:inline;fill:#283538;fill-opacity:1;stroke-width:1.584" id="circle12" cx="248.875" cy="243.071" r="221.76"/><path style="display:inline;fill:#000;fill-opacity:.153846;stroke-width:1.58653" id="path14" d="m 405.74362,86.606184 c 86.3078,86.307816 86.3078,227.192636 0,313.500456 -86.30783,86.3078 -227.19264,86.3078 -313.500453,0"/></g><g id="g3198"><circle style="display:none;fill:#000;fill-opacity:0;stroke-width:1.584" id="circle12-3" cx="308.441" cy="-161.035" r="221.76" transform="rotate(72)"/><path style="display:inline;fill:#121c1b;fill-opacity:1;stroke-width:1.584" id="path3789" d="m 361.43622,227.04305 c -7.23106,2.34952 -13.61811,-0.90487 -15.96762,-8.13595 v 0 c -2.34954,-7.23107 0.90481,-13.61815 8.1359,-15.96765 l 48.20716,-15.66347 c 7.23109,-2.34949 13.61815,0.90488 15.96764,8.13595 v 0 c 2.34953,7.23105 -0.90484,13.61813 -8.13592,15.96765 z"/><path style="display:inline;fill:#ea398a;stroke-width:1.584" id="path915" d="m 361.46125,220.62134 c -7.23107,2.3495 -13.61812,-0.90489 -15.96765,-8.13595 v 0 c -2.34952,-7.23104 0.90486,-13.61811 8.13593,-15.96765 l 48.20716,-15.66344 c 7.23108,-2.34954 13.61813,0.90484 15.96765,8.13592 v 0 c 2.34953,7.23109 -0.90485,13.61814 -8.13592,15.96764 z"/></g></svg>