<svg xmlns="http://www.w3.org/2000/svg" xmlns:svg="http://www.w3.org/2000/svg" id="Layer_1" width="120" height="120" version="1.1" viewBox="0 0 496.8 496.8" xml:space="preserve"><g id="g3158"><path style="display:inline;fill:#121c1b;fill-opacity:1;stroke-width:1.584" id="path8" d="m 248.87519,445.92001 c 116.5824,0 212.8896,-91.2384 220.4928,-205.2864 0,5.0688 1.2672,8.8704 1.2672,13.9392 0,121.6512 -98.8416,221.76 -221.76,221.76 -121.6512,0 -221.759991,-98.8416 -221.759991,-221.76 0,-5.0688 0,-8.8704 1.2672,-13.9392 7.6032,114.048 103.910391,205.2864 220.492791,205.2864 z"/><circle style="display:inline;fill:#283538;fill-opacity:1;stroke-width:1.584" id="circle12" cx="248.875" cy="243.071" r="221.76"/><path style="display:inline;fill:#000;fill-opacity:.153846;stroke-width:1.58653" id="path14" d="m 405.74362,86.606184 c 86.3078,86.307816 86.3078,227.192636 0,313.500456 -86.30783,86.3078 -227.19264,86.3078 -313.500453,0"/></g><g id="g3198"><circle style="display:none;fill:#000;fill-opacity:0;stroke-width:1.584" id="circle12-3" cx="344.188" cy="51.017" r="221.76" transform="rotate(36)"/><path style="display:inline;fill:#121c1b;fill-opacity:1;stroke-width:1.584" id="path3789" d="m 326.37546,165.37472 c -4.46903,6.15112 -11.54914,7.27248 -17.70026,2.80342 v 0 c -6.15113,-4.46904 -7.27253,-11.54916 -2.80346,-17.70026 l 29.79365,-41.00747 c 4.46908,-6.15111 11.54918,-7.27249 17.70029,-2.80343 v 0 c 6.15111,4.46903 7.27249,11.54916 2.80345,17.70027 z"/><path style="display:inline;fill:#ea398a;stroke-width:1.584" id="path915" d="m 326.38524,158.59028 c -4.46906,6.15112 -11.54917,7.27247 -17.70029,2.80343 v 0 c -6.1511,-4.46902 -7.27248,-11.54914 -2.80345,-17.70027 l 29.79368,-41.00745 c 4.46904,-6.151128 11.54915,-7.272505 17.70027,-2.803453 v 0 c 6.15114,4.469053 7.2725,11.549163 2.80345,17.700273 z"/></g></svg>