<svg xmlns="http://www.w3.org/2000/svg" xmlns:svg="http://www.w3.org/2000/svg" id="Layer_1" width="120" height="120" version="1.1" viewBox="0 0 496.8 496.8" xml:space="preserve"><g id="g3158"><path style="display:inline;fill:#121c1b;fill-opacity:1;stroke-width:1.584" id="path8" d="m 248.87519,445.92001 c 116.5824,0 212.8896,-91.2384 220.4928,-205.2864 0,5.0688 1.2672,8.8704 1.2672,13.9392 0,121.6512 -98.8416,221.76 -221.76,221.76 -121.6512,0 -221.759991,-98.8416 -221.759991,-221.76 0,-5.0688 0,-8.8704 1.2672,-13.9392 7.6032,114.048 103.910391,205.2864 220.492791,205.2864 z"/><circle style="display:inline;fill:#283538;fill-opacity:1;stroke-width:1.584" id="circle12" cx="248.875" cy="243.071" r="221.76"/><path style="display:inline;fill:#000;fill-opacity:.153846;stroke-width:1.58653" id="path14" d="m 405.74362,86.606184 c 86.3078,86.307816 86.3078,227.192636 0,313.500456 -86.30783,86.3078 -227.19264,86.3078 -313.500453,0"/></g><g id="g3198"><circle style="display:none;fill:#000;fill-opacity:0;stroke-width:1.584" id="circle12-3" cx="311.577" cy="154.88" r="221.76" transform="rotate(18)"/><path style="display:inline;fill:#121c1b;fill-opacity:1;stroke-width:1.584" id="path3789" d="m 296.29805,145.63092 c -2.34951,7.23107 -8.73657,10.48543 -15.96765,8.1359 v 0 c -7.23108,-2.34951 -10.48547,-8.73657 -8.13593,-15.96764 l 15.66344,-48.207158 c 2.34955,-7.231074 8.7366,-10.485439 15.96767,-8.135914 v 0 c 7.23106,2.349499 10.48544,8.736576 8.13592,15.967643 z"/><path style="display:inline;fill:#ea398a;stroke-width:1.584" id="path915" d="m 296.30771,138.6721 c -2.34953,7.23108 -8.7366,10.48543 -15.96767,8.13592 v 0 c -7.23105,-2.3495 -10.48542,-8.73657 -8.13592,-15.96765 l 15.66347,-48.207154 c 2.34951,-7.231083 8.73657,-10.48545 15.96764,-8.135928 v 0 c 7.23109,2.34952 10.48545,8.736581 8.13593,15.967646 z"/></g></svg>