<svg xmlns="http://www.w3.org/2000/svg" xmlns:svg="http://www.w3.org/2000/svg" id="Layer_1" width="120" height="120" version="1.1" viewBox="0 0 496.8 496.8" xml:space="preserve"><g id="g3158"><path style="display:inline;fill:#121c1b;fill-opacity:1;stroke-width:1.584" id="path8" d="m 248.87519,445.92001 c 116.5824,0 212.8896,-91.2384 220.4928,-205.2864 0,5.0688 1.2672,8.8704 1.2672,13.9392 0,121.6512 -98.8416,221.76 -221.76,221.76 -121.6512,0 -221.759991,-98.8416 -221.759991,-221.76 0,-5.0688 0,-8.8704 1.2672,-13.9392 7.6032,114.048 103.910391,205.2864 220.492791,205.2864 z"/><circle style="display:inline;fill:#283538;fill-opacity:1;stroke-width:1.584" id="circle12" cx="248.875" cy="243.071" r="221.76"/><path style="display:inline;fill:#000;fill-opacity:.153846;stroke-width:1.58653" id="path14" d="m 405.74362,86.606184 c 86.3078,86.307816 86.3078,227.192636 0,313.500456 -86.30783,86.3078 -227.19264,86.3078 -313.500453,0"/></g><g id="g3198"><circle style="display:none;fill:#000;fill-opacity:0;stroke-width:1.584" id="circle12-3" cx="207.304" cy="279.452" r="221.76" transform="rotate(-9)"/><path style="display:inline;fill:#121c1b;fill-opacity:1;stroke-width:1.584" id="path3789" d="m 243.39468,135.66852 c 1.18941,7.50959 -3.02406,13.30891 -10.53366,14.49831 v 0 c -7.5096,1.1894 -13.30893,-3.02405 -14.49832,-10.53365 l -7.92936,-50.06394 c -1.18938,-7.509606 3.02408,-13.308927 10.53367,-14.498322 v 0 c 7.50957,-1.189413 13.30892,3.024056 14.49831,10.533647 z"/><path style="display:inline;fill:#ea398a;stroke-width:1.584" id="path915" d="m 243.46521,128.38751 c 1.18939,7.5096 -3.02408,13.30893 -10.53367,14.49833 v 0 c -7.50956,1.18941 -13.3089,-3.02406 -14.49831,-10.53365 l -7.92934,-50.063951 c -1.18942,-7.509598 3.02404,-13.308925 10.53364,-14.498325 v 0 c 7.50961,-1.189408 13.30893,3.024055 14.49832,10.533645 z"/></g></svg>