<?xml version="1.0" encoding="UTF-8" standalone="no"?>
<!-- Uploaded to: SVG Repo, www.svgrepo.com, Generator: SVG Repo Mixer Tools -->

<svg
   height="120px"
   width="120px"
   version="1.1"
   id="Layer_1"
   viewBox="0 0 496.8 496.8"
   xml:space="preserve"
   sodipodi:docname="vol-50.svg"
   inkscape:version="1.2.2 (b0a8486541, 2022-12-01)"
   xmlns:inkscape="http://www.inkscape.org/namespaces/inkscape"
   xmlns:sodipodi="http://sodipodi.sourceforge.net/DTD/sodipodi-0.dtd"
   xmlns="http://www.w3.org/2000/svg"
   xmlns:svg="http://www.w3.org/2000/svg"><defs
   id="defs23" /><sodipodi:namedview
   id="namedview21"
   pagecolor="#ffffff"
   bordercolor="#000000"
   borderopacity="0.25"
   inkscape:showpageshadow="2"
   inkscape:pageopacity="0.0"
   inkscape:pagecheckerboard="0"
   inkscape:deskcolor="#d1d1d1"
   showgrid="true"
   inkscape:zoom="22.966828"
   inkscape:cx="56.886393"
   inkscape:cy="26.364111"
   inkscape:window-width="2524"
   inkscape:window-height="1011"
   inkscape:window-x="0"
   inkscape:window-y="0"
   inkscape:window-maximized="1"
   inkscape:current-layer="Layer_1"><inkscape:grid
     type="xygrid"
     id="grid3192" /></sodipodi:namedview>






<g
   id="g3158"
   inkscape:label="base"
   sodipodi:insensitive="true"><path
     style="display:inline;fill:#121c1b;fill-opacity:1;stroke-width:1.584"
     d="m 248.87519,445.92001 c 116.5824,0 212.8896,-91.2384 220.4928,-205.2864 0,5.0688 1.2672,8.8704 1.2672,13.9392 0,121.6512 -98.8416,221.76 -221.76,221.76 -121.6512,0 -221.759991,-98.8416 -221.759991,-221.76 0,-5.0688 0,-8.8704 1.2672,-13.9392 7.6032,114.048 103.910391,205.2864 220.492791,205.2864 z"
     id="path8"
     inkscape:label="shadow"
     sodipodi:insensitive="true" /><circle
     style="display:inline;fill:#283538;fill-opacity:1;stroke-width:1.584"
     cx="248.8752"
     cy="243.07127"
     r="221.76001"
     id="circle12"
     inkscape:label="dial"
     sodipodi:insensitive="true" /><path
     style="display:inline;fill:#000000;fill-opacity:0.153846;stroke-width:1.58653"
     d="m 405.74362,86.606184 c 86.3078,86.307816 86.3078,227.192636 0,313.500456 -86.30783,86.3078 -227.19264,86.3078 -313.500453,0"
     id="path14"
     inkscape:label="highlight"
     sodipodi:insensitive="true" /></g>

<g
   id="g3198"
   inkscape:label="main"><circle
     style="display:none;fill:#000000;fill-opacity:0;stroke-width:1.584"
     cx="248.46727"
     cy="243.58223"
     r="221.76001"
     id="circle12-3"
     inkscape:label="anchor"
     sodipodi:insensitive="true" /><path
     style="display:inline;fill:#121c1b;fill-opacity:1;stroke-width:1.584"
     d="m 261.42012,136.20359 c 0,7.6032 -5.0688,12.67199 -12.67201,12.67198 v 0 c -7.60321,0 -12.67201,-5.06879 -12.672,-12.672 l -1e-5,-50.687993 c 3e-5,-7.60321 5.06882,-12.672001 12.67202,-12.671994 v 0 c 7.60318,-1.4e-5 12.672,5.068798 12.67199,12.671995 z"
     id="path3789"
     inkscape:label="shadow" /><path
     style="display:inline;fill:#ea398a;stroke-width:1.584"
     d="m 261.54722,129.02325 c -10e-6,7.60321 -5.06882,12.67201 -12.67202,12.67201 v 0 c -7.60317,1e-5 -12.67198,-5.0688 -12.67199,-12.672 l 10e-6,-50.688006 c -10e-6,-7.603209 5.06879,-12.672006 12.67199,-12.672002 v 0 c 7.60322,-3e-6 12.67201,5.068799 12.672,12.671995 z"
     id="path915"
     inkscape:label="pointer" /></g>
</svg>
