<svg xmlns="http://www.w3.org/2000/svg" xmlns:svg="http://www.w3.org/2000/svg" id="Layer_1" width="120" height="120" version="1.1" viewBox="0 0 496.8 496.8" xml:space="preserve"><g id="g3158"><path style="display:inline;fill:#121c1b;fill-opacity:1;stroke-width:1.584" id="path8" d="m 248.87519,445.92001 c 116.5824,0 212.8896,-91.2384 220.4928,-205.2864 0,5.0688 1.2672,8.8704 1.2672,13.9392 0,121.6512 -98.8416,221.76 -221.76,221.76 -121.6512,0 -221.759991,-98.8416 -221.759991,-221.76 0,-5.0688 0,-8.8704 1.2672,-13.9392 7.6032,114.048 103.910391,205.2864 220.492791,205.2864 z"/><circle style="display:inline;fill:#283538;fill-opacity:1;stroke-width:1.584" id="circle12" cx="248.875" cy="243.071" r="221.76"/><path style="display:inline;fill:#000;fill-opacity:.153846;stroke-width:1.58653" id="path14" d="m 405.74362,86.606184 c 86.3078,86.307816 86.3078,227.192636 0,313.500456 -86.30783,86.3078 -227.19264,86.3078 -313.500453,0"/></g><g id="g3198"><circle style="display:none;fill:#000;fill-opacity:0;stroke-width:1.584" id="circle12-3" cx="-104.232" cy="331.97" r="221.76" transform="rotate(-63)"/><path style="display:inline;fill:#121c1b;fill-opacity:1;stroke-width:1.584" id="path3789" d="m 152.22955,187.83746 c 6.7745,3.45179 8.98964,10.26931 5.53786,17.04381 v 0 c -3.45178,6.7745 -10.2693,8.98965 -17.04381,5.53786 L 95.560262,187.40727 c -6.774498,-3.4518 -8.989644,-10.26932 -5.537865,-17.04381 v 0 c 3.45178,-6.7745 10.269303,-8.98965 17.043803,-5.53787 z"/><path style="display:inline;fill:#ea398a;stroke-width:1.584" id="path915" d="m 152.33264,179.91922 c 6.77451,3.4518 8.98965,10.26932 5.53787,17.04382 v 0 c -3.45178,6.77449 -10.2693,8.98964 -17.0438,5.53787 L 95.663362,179.48903 c -6.774498,-3.45178 -8.989646,-10.2693 -5.537865,-17.0438 v 0 c 3.451781,-6.77451 10.269303,-8.98965 17.043803,-5.53787 z"/></g></svg>