<svg xmlns="http://www.w3.org/2000/svg" xmlns:svg="http://www.w3.org/2000/svg" id="Layer_1" width="120" height="120" version="1.1" viewBox="0 0 496.8 496.8" xml:space="preserve"><g id="g3158"><path style="display:inline;fill:#121c1b;fill-opacity:1;stroke-width:1.584" id="path8" d="m 248.87519,445.92001 c 116.5824,0 212.8896,-91.2384 220.4928,-205.2864 0,5.0688 1.2672,8.8704 1.2672,13.9392 0,121.6512 -98.8416,221.76 -221.76,221.76 -121.6512,0 -221.759991,-98.8416 -221.759991,-221.76 0,-5.0688 0,-8.8704 1.2672,-13.9392 7.6032,114.048 103.910391,205.2864 220.492791,205.2864 z"/><circle style="display:inline;fill:#283538;fill-opacity:1;stroke-width:1.584" id="circle12" cx="248.875" cy="243.071" r="221.76"/><path style="display:inline;fill:#000;fill-opacity:.153846;stroke-width:1.58653" id="path14" d="m 405.74362,86.606184 c 86.3078,86.307816 86.3078,227.192636 0,313.500456 -86.30783,86.3078 -227.19264,86.3078 -313.500453,0"/></g><g id="g3198"><circle style="display:none;fill:#000;fill-opacity:0;stroke-width:1.584" id="circle12-3" cx="331.97" cy="104.232" r="221.76" transform="rotate(27)"/><path style="display:inline;fill:#121c1b;fill-opacity:1;stroke-width:1.584" id="path3789" d="m 312.11369,154.31925 c -3.45177,6.7745 -10.26929,8.98963 -17.04379,5.53784 v 0 c -6.77451,-3.45177 -8.98968,-10.2693 -5.53788,-17.04379 l 23.01186,-45.163348 c 3.45181,-6.774497 10.26932,-8.989641 17.04382,-5.537854 v 0 c 6.77449,3.45176 8.98964,10.269302 5.53786,17.043792 z"/><path style="display:inline;fill:#ea398a;stroke-width:1.584" id="path915" d="m 312.13027,147.44761 c -3.45179,6.77451 -10.26932,8.98963 -17.04382,5.53786 v 0 c -6.77448,-3.45176 -8.98962,-10.26929 -5.53786,-17.0438 l 23.01189,-45.163335 c 3.45177,-6.774512 10.26929,-8.989656 17.04379,-5.537872 v 0 c 6.77452,3.451785 8.98965,10.269305 5.53787,17.043797 z"/></g></svg>