<svg xmlns="http://www.w3.org/2000/svg" xmlns:svg="http://www.w3.org/2000/svg" id="Layer_1" width="120" height="120" version="1.1" viewBox="0 0 496.8 496.8" xml:space="preserve"><g id="g3158"><path style="display:inline;fill:#121c1b;fill-opacity:1;stroke-width:1.584" id="path8" d="m 248.87519,445.92001 c 116.5824,0 212.8896,-91.2384 220.4928,-205.2864 0,5.0688 1.2672,8.8704 1.2672,13.9392 0,121.6512 -98.8416,221.76 -221.76,221.76 -121.6512,0 -221.759991,-98.8416 -221.759991,-221.76 0,-5.0688 0,-8.8704 1.2672,-13.9392 7.6032,114.048 103.910391,205.2864 220.492791,205.2864 z"/><circle style="display:inline;fill:#283538;fill-opacity:1;stroke-width:1.584" id="circle12" cx="248.875" cy="243.071" r="221.76"/><path style="display:inline;fill:#000;fill-opacity:.153846;stroke-width:1.58653" id="path14" d="m 405.74362,86.606184 c 86.3078,86.307816 86.3078,227.192636 0,313.500456 -86.30783,86.3078 -227.19264,86.3078 -313.500453,0"/></g><g id="g3198"><circle style="display:none;fill:#000;fill-opacity:0;stroke-width:1.584" id="circle12-3" cx="248.467" cy="243.582" r="221.76"/><path style="display:inline;fill:#121c1b;fill-opacity:1;stroke-width:1.584" id="path3789" d="m 261.42012,136.20359 c 0,7.6032 -5.0688,12.67199 -12.67201,12.67198 v 0 c -7.60321,0 -12.67201,-5.06879 -12.672,-12.672 l -1e-5,-50.687993 c 3e-5,-7.60321 5.06882,-12.672001 12.67202,-12.671994 v 0 c 7.60318,-1.4e-5 12.672,5.068798 12.67199,12.671995 z"/><path style="display:inline;fill:#ea398a;stroke-width:1.584" id="path915" d="m 261.54722,129.02325 c -10e-6,7.60321 -5.06882,12.67201 -12.67202,12.67201 v 0 c -7.60317,1e-5 -12.67198,-5.0688 -12.67199,-12.672 l 10e-6,-50.688006 c -10e-6,-7.603209 5.06879,-12.672006 12.67199,-12.672002 v 0 c 7.60322,-3e-6 12.67201,5.068799 12.672,12.671995 z"/></g></svg>