<svg xmlns="http://www.w3.org/2000/svg" viewBox="0 0 201 61">
    <path d="M48.2 27.1c-9.66-5.74-25.6-6.27-34.82-3.47-1.48.45-3.04-.4-3.5-1.87-.44-1.48.4-3.05 1.87-3.5 10.6-3.22 28.2-2.6 39.32 4 1.34.8 1.77 2.53.98 3.86-.8 1.36-2.5 1.8-3.83 1zm-3.52 9.27c-8.05-4.96-20.34-6.4-29.87-3.5-1.2.38-2.5-.32-2.9-1.55-.3-1.24.3-2.54 1.6-2.92 10.9-3.3 24.4-1.7 33.7 4 1.1.67 1.5 2.1.8 3.2s-2.13 1.45-3.23.77zm-3.02 8.02c-7.05-4.3-15.9-5.3-26.34-2.9-1 .2-2-.4-2.23-1.4-.3-1 .3-2 1.4-2.3 11.4-2.6 21.2-1.5 29.1 3.3.9.5 1.1 1.6.6 2.5-.5 1-1.7 1.24-2.6.7zM30.48.5C13.92.5.5 13.93.5 30.5s13.42 30 29.98 30c16.56 0 29.98-13.43 29.98-30 0-16.56-13.42-30-29.98-30m51.58 27.73c-5.18-1.25-6.1-2.1-6.1-3.94 0-1.8 1.62-2.9 4.03-2.9 2.3 0 4.6.9 7 2.7.1 0 .2.1.3 0 .1 0 .1-.1.2-.2l2.5-3.6c.1-.2 0-.4-.1-.5-2.9-2.3-6.2-3.5-10-3.5-5.6 0-9.5 3.3-9.5 8.1 0 5.1 3.4 7 9.2 8.4 4.9 1.2 5.8 2.2 5.8 3.9 0 1.9-1.7 3-4.4 3-3 0-5.5-1-8.3-3.4-.1-.1-.2-.1-.3-.1-.1 0-.2 0-.2.1L69.6 40c-.1.1-.1.32.04.42 3.2 2.86 7.1 4.36 11.4 4.36 6 0 9.9-3.3 9.9-8.38 0-4.3-2.6-6.67-8.9-8.2m21.3 11.98c-3.2 0-5.6-2.63-5.6-6.2 0-3.5 2.4-6.14 5.55-6.14 3.1 0 5.4 2.6 5.4 6.2.05 3.6-2.25 6.14-5.45 6.14zm-5.4-13.92v-2.4c0-.2-.2-.34-.4-.34H93c-.17 0-.33.14-.33.34v26.3c0 .2.1.35.3.35h4.6c.2 0 .3-.1.3-.3v-8.3c1.74 2 3.9 3 6.5 3 4.83 0 9.73-3.7 9.73-10.9 0-7.1-4.9-10.9-9.7-10.9-2.56 0-4.76 1.1-6.46 3.2zm22.86 7.65c0-3.6 2.5-6.2 5.8-6.2s5.9 2.6 5.9 6.2-2.42 6.1-5.8 6.2c-3.4.1-5.9-2.6-5.9-6.1zm-5.3 0c0 6 4.8 10.8 11 10.8s11.1-4.8 11.1-10.9c0-6.1-4.9-10.9-11.02-10.8-6.2.1-11.1 4.9-11.1 11zm35.4-10.6h-5v-5.2c0-.2-.2-.4-.4-.4H141c-.2 0-.35.1-.35.3v5.2h-2.24c-.1 0-.3.1-.3.3v4c0 .2.2.3.4.3h2.3v10.4c0 4.1 2 6.2 6.1 6.2 1.7 0 3.1-.3 4.4-1 .1-.1.2-.2.2-.3v-3.8c0-.1 0-.3-.1-.3-.1-.1-.3-.1-.4 0-.9.4-1.7.6-2.7.6-1.5 0-2.1-.7-2.1-2.2V28h5.1c.2 0 .3-.13.3-.3v-4c0-.2-.2-.33-.3-.33m17.78.04v-.6c0-1.9.7-2.7 2.34-2.7.93 0 1.7.2 2.6.5.1.1.2 0 .3 0 .1 0 .1-.1.1-.3v-3.9c0-.1-.1-.3-.26-.3-.93-.3-2.1-.6-3.86-.6-4.3 0-6.56 2.4-6.56 7v1h-2.24c-.2 0-.3.1-.3.3v4c0 .2.14.4.3.4h2.2v16c0 .2.2.3.4.3h4.66c.2 0 .34-.1.34-.3v-16h4.3l6.7 15.9c-.75 1.7-1.5 2-2.5 2-.8 0-1.7-.2-2.55-.7h-.3c-.1 0-.1.1-.2.2L173 49c-.07.2 0 .38.15.46 1.63.9 3.1 1.28 4.94 1.28 3.4 0 5.3-1.6 6.9-5.88l8-20.8c0-.1 0-.22-.1-.3-.1-.1-.2-.16-.3-.16H188c-.13 0-.27.1-.3.22l-4.92 14.1-5.42-14.14c-.05-.1-.18-.22-.32-.22h-7.92m-14.94 0c-.2 0-.34.14-.34.36v20.2c0 .17.15.32.34.32h4.65c.22 0 .36-.14.36-.33V23.9c0-.2-.2-.34-.4-.34zm-1-5.9c0 1.88 1.5 3.35 3.3 3.35 1.8 0 3.3-1.4 3.3-3.3 0-1.8-1.5-3.3-3.34-3.3-1.75 0-3.25 1.5-3.25 3.3zm42.9 7.95v1.1h.9c.4 0 .7-.2.7-.5s-.06-.6-.6-.6zm1.5 1.6l.9 1.3h-.7l-.9-1.2h-.8v1.2h-.67V25h1.6c.8 0 1.3.4 1.3 1.1 0 .54-.3.87-.8 1.02zM194 27c0 1.6 1.2 2.9 2.9 2.9s2.9-1.3 2.9-2.9c0-1.6-1.3-2.9-2.94-2.94C195.2 24 194 25.4 194 27zm-.4 0c0-1.8 1.16-3.34 3.26-3.33 2.03 0 3.35 1.54 3.35 3.34 0 1.8-1.5 3.4-3.3 3.4-1.9 0-3.3-1.5-3.3-3.3z" fill="#FFFFFF"/>
</svg>
