<?xml version="1.0" encoding="UTF-8" standalone="no" ?>
<!DOCTYPE svg PUBLIC "-//W3C//DTD SVG 1.1//EN" "http://www.w3.org/Graphics/SVG/1.1/DTD/svg11.dtd">
<svg xmlns="http://www.w3.org/2000/svg" xmlns:xlink="http://www.w3.org/1999/xlink" version="1.1" fill="#ebb9b9" width="280" height="280" viewBox="0 0 280 280" xml:space="preserve">
<desc>Created with Fabric.js 3.6.3</desc>
<defs>
</defs>
<g transform="matrix(0.47 0 0 0.47 138.68 137.13)"  >
<path style="stroke: none; stroke-width: 1; stroke-dasharray: none; stroke-linecap: butt; stroke-dashoffset: 0; stroke-linejoin: miter; stroke-miterlimit: 4; fill: rgb(235,185,185); fill-rule: nonzero; opacity: 1;"  transform=" translate(-287.9, -256.03)" d="M 287.9 112 c 18.6 0 36.2 3.8 52.8 9.6 c 13.3 -10.3 23.6 -24.3 29.5 -40.7 c -25.2 -10.9 -53 -17 -82.2 -17 c -29.1 0 -56.9 6 -82.1 16.9 c 5.9 16.4 16.2 30.4 29.5 40.7 c 16.5 -5.7 34 -9.5 52.5 -9.5 z M 163.6 438.7 c 12 -11.8 20.4 -26.4 24.5 -42.4 c -32.9 -26.4 -54.8 -65.3 -58.9 -109.6 c -8.5 -2.8 -17.2 -4.6 -26.4 -4.6 c -7.6 0 -15.2 1 -22.5 3.1 c 4.1 62.8 35.8 118 83.3 153.5 z m 224.2 -42.6 c 4.1 16 12.5 30.7 24.5 42.5 c 47.4 -35.5 79.1 -90.7 83 -153.5 c -7.2 -2 -14.7 -3 -22.2 -3 c -9.2 0 -18 1.9 -26.6 4.7 c -4.1 44.2 -26 82.9 -58.7 109.3 z m 113.5 -205 c -17.6 -10.4 -36.3 -16.6 -55.3 -19.9 c 6 -17.7 10 -36.4 10 -56.2 c 0 -41 -14.5 -80.8 -41 -112.2 c -2.5 -3 -6.6 -3.7 -10 -1.8 c -3.3 1.9 -4.8 6 -3.6 9.7 c 4.5 13.8 6.6 26.3 6.6 38.5 c 0 67.8 -53.8 122.9 -120 122.9 S 168 117 168 49.2 c 0 -12.1 2.2 -24.7 6.6 -38.5 c 1.2 -3.7 -0.3 -7.8 -3.6 -9.7 c -3.4 -1.9 -7.5 -1.2 -10 1.8 C 134.6 34.2 120 74 120 115 c 0 19.8 3.9 38.5 10 56.2 c -18.9 3.3 -37.7 9.5 -55.3 19.9 c -34.6 20.5 -61 53.3 -74.3 92.4 c -1.3 3.7 0.2 7.7 3.5 9.8 c 3.3 2 7.5 1.3 10 -1.6 c 9.4 -10.8 19 -19.1 29.2 -25.1 c 57.3 -33.9 130.8 -13.7 163.9 45 c 33.1 58.7 13.4 134 -43.9 167.9 c -10.2 6.1 -22 10.4 -35.8 13.4 c -3.7 0.8 -6.4 4.2 -6.4 8.1 c 0.1 4 2.7 7.3 6.5 8 c 39.7 7.8 80.6 0.8 115.2 -19.7 c 18 -10.6 32.9 -24.5 45.3 -40.1 c 12.4 15.6 27.3 29.5 45.3 40.1 c 34.6 20.5 75.5 27.5 115.2 19.7 c 3.8 -0.7 6.4 -4 6.5 -8 c 0 -3.9 -2.6 -7.3 -6.4 -8.1 c -13.9 -2.9 -25.6 -7.3 -35.8 -13.4 c -57.3 -33.9 -77 -109.2 -43.9 -167.9 s 106.6 -78.9 163.9 -45 c 10.2 6.1 19.8 14.3 29.2 25.1 c 2.5 2.9 6.7 3.6 10 1.6 s 4.8 -6.1 3.5 -9.8 c -13.1 -39.1 -39.5 -72 -74.1 -92.4 z m -213.4 129 c -26.5 0 -48 -21.5 -48 -48 s 21.5 -48 48 -48 s 48 21.5 48 48 s -21.5 48 -48 48 z" stroke-linecap="round" />
</g>
</svg>
