<svg aria-hidden="true" focusable="false" data-prefix="fas" data-icon="dice-d10" role="img" xmlns="http://www.w3.org/2000/svg" viewBox="0 0 512 512" class="svg-inline--fa fa-dice-d10 fa-w-16"><path fill="currentColor" d="M11.09 255.29l130.38-27.25 67.78-212.5c2.95-9.2-8.4-15.92-14.45-8.54L3.01 240.87c-5.24 6.38.2 16.07 8.08 14.42zm359.43-27.24L500.9 255.3c7.89 1.65 13.32-8.05 8.09-14.43L317.19 6.99c-6.04-7.37-17.39-.66-14.46 8.55l67.79 212.51zm-106.49-222c-2.57-8.06-13.49-8.06-16.06 0l-73.4 230.11L256 292.87l81.43-56.72-73.4-230.1zm241.16 286.22l-144.06-30.11-88.2 61.45v179.53c0 7.59 8.55 11.66 14.02 6.67l222.13-202.2c5.31-4.82 3-13.9-3.89-15.34zm-498.38 0c-6.89 1.44-9.2 10.52-3.9 15.34L225.05 509.8c5.48 4.98 14.02.92 14.02-6.67V323.61l-88.2-61.45L6.81 292.27z" class=""></path></svg>
