<svg aria-hidden="true" focusable="false" data-prefix="fas" data-icon="dice-d12" role="img" xmlns="http://www.w3.org/2000/svg" viewBox="0 0 512 512" class="svg-inline--fa fa-dice-d12 fa-w-16"><path fill="currentColor" d="M256 273.89l-108.59 54.29L206.23 512h99.53l58.82-183.82L256 273.89zm16-27.78l108.84 54.42 123.62-123.62-51.43-102.84L272 139.24v106.87zm-32 0V139.24L58.97 74.07 7.54 176.92l123.62 123.62L240 246.11zM422.28 51.14L333.51 6.76A63.874 63.874 0 0 0 304.89 0H207.1c-9.94 0-19.73 2.31-28.62 6.76L89.72 51.14 256 111l166.28-59.86zm-24.23 277.43l-55.01 171.91 85.88-42.94a64.02 64.02 0 0 0 28.62-28.62l47.7-95.4A64.07 64.07 0 0 0 512 304.9v-90.27L398.05 328.57zM0 214.62v90.27c0 9.94 2.31 19.74 6.76 28.62l47.7 95.4a63.972 63.972 0 0 0 28.62 28.62l85.88 42.94-55.01-171.91L0 214.62z" class=""></path></svg>
