<svg aria-hidden="true" focusable="false" data-prefix="fas" data-icon="eye-evil" role="img" xmlns="http://www.w3.org/2000/svg" viewBox="0 0 640 512" class="svg-inline--fa fa-eye-evil fa-w-20"><path fill="currentColor" d="M627.03 239.08l-111.87-30.3c-4.79-6.56-10.15-13.4-16.13-20.45 1.35-2.07 55.18-87.98 55.18-87.98 8.94-14.32-6.1-31.35-22.45-25.42L412 118.29c-9.68-4.81-19.91-8.91-30.65-12.32l-44.47-95.24c-6.68-14.31-27.08-14.31-33.76 0l-44.47 95.24c-10.74 3.4-20.97 7.51-30.65 12.32L108.23 74.93C91.88 69 76.85 86.03 85.78 100.35c0 0 53.84 85.92 55.18 87.98a359.126 359.126 0 0 0-16.13 20.45l-111.87 30.3c-17.29 4.68-17.29 29.15 0 33.83l111.87 30.3c4.78 6.54 10.11 13.35 16.07 20.38-1.34 2.09-55.12 88.05-55.12 88.05-8.94 14.32 6.1 31.35 22.45 25.43L228 393.71c9.68 4.81 19.91 8.92 30.65 12.32l44.47 95.24c6.68 14.31 27.08 14.31 33.76 0l44.47-95.24c10.74-3.4 20.97-7.51 30.65-12.32l119.77 43.36c16.35 5.92 31.39-11.11 22.45-25.43 0 0-53.78-85.96-55.12-88.05 5.96-7.03 11.29-13.84 16.07-20.38l111.87-30.3c17.28-4.68 17.28-29.14-.01-33.83zM320 352c-53.02 0-96-42.98-96-96 0-19.73 5.99-38.06 16.2-53.31 15.91 9.57 34.77 16.33 55.59 19.33-4.41 9.25-7.79 20.41-7.79 33.98 0 42.67 32 64 32 64s32-21.33 32-64c0-13.57-3.37-24.73-7.79-33.98 20.82-3 39.68-9.76 55.59-19.33C410.01 217.94 416 236.27 416 256c0 53.02-42.98 96-96 96z" class=""></path></svg>
