<svg xmlns="http://www.w3.org/2000/svg" xmlns:svg="http://www.w3.org/2000/svg" id="svg12" width="800" height="800" fill="none" version="1.1" viewBox="0 0 24 24"><g id="SVGRepo_iconCarrier" transform="matrix(0.71618532,0,0,0.71618532,3.4057762,3.4057762)" style="display:inline"><path id="path1" fill="#1c274c" d="M 16,5 H 8 C 5.17157,5 3.75736,5 2.87868,5.87868 2,6.75736 2,8.17157 2,11 v 2 c 0,2.8284 0,4.2426 0.87868,5.1213 C 3.75736,19 5.17157,19 8,19 h 8 c 2.8284,0 4.2426,0 5.1213,-0.8787 C 22,17.2426 22,15.8284 22,13 V 11 C 22,8.17157 22,6.75736 21.1213,5.87868 20.2426,5 18.8284,5 16,5 Z" opacity=".5" style="fill:#a7adba;fill-opacity:1"/><path id="path2" fill="#1c274c" d="M 6,10 C 6.55228,10 7,9.55228 7,9 7,8.44772 6.55228,8 6,8 5.44772,8 5,8.44772 5,9 c 0,0.55228 0.44772,1 1,1 z" style="fill:#4f5b66;fill-opacity:1"/><path id="path3" fill="#1c274c" d="m 6,13 c 0.55228,0 1,-0.4477 1,-1 0,-0.5523 -0.44772,-1 -1,-1 -0.55228,0 -1,0.4477 -1,1 0,0.5523 0.44772,1 1,1 z" style="fill:#4f5b66;fill-opacity:1"/><path id="path4" fill="#1c274c" d="m 9,13 c 0.55228,0 1,-0.4477 1,-1 0,-0.5523 -0.44772,-1 -1,-1 -0.55228,0 -1,0.4477 -1,1 0,0.5523 0.44772,1 1,1 z" style="fill:#4f5b66;fill-opacity:1"/><path id="path5" fill="#1c274c" d="M 9,10 C 9.55228,10 10,9.55228 10,9 10,8.44772 9.55228,8 9,8 8.44772,8 8,8.44772 8,9 c 0,0.55228 0.44772,1 1,1 z" style="fill:#4f5b66;fill-opacity:1"/><path id="path6" fill="#1c274c" d="m 12,10 c 0.5523,0 1,-0.44772 1,-1 0,-0.55228 -0.4477,-1 -1,-1 -0.5523,0 -1,0.44772 -1,1 0,0.55228 0.4477,1 1,1 z" style="fill:#4f5b66;fill-opacity:1"/><path id="path7" fill="#1c274c" d="m 12,13 c 0.5523,0 1,-0.4477 1,-1 0,-0.5523 -0.4477,-1 -1,-1 -0.5523,0 -1,0.4477 -1,1 0,0.5523 0.4477,1 1,1 z" style="fill:#4f5b66;fill-opacity:1"/><path id="path8" fill="#1c274c" d="m 15,10 c 0.5523,0 1,-0.44772 1,-1 0,-0.55228 -0.4477,-1 -1,-1 -0.5523,0 -1,0.44772 -1,1 0,0.55228 0.4477,1 1,1 z" style="fill:#4f5b66;fill-opacity:1"/><path id="path9" fill="#1c274c" d="m 15,13 c 0.5523,0 1,-0.4477 1,-1 0,-0.5523 -0.4477,-1 -1,-1 -0.5523,0 -1,0.4477 -1,1 0,0.5523 0.4477,1 1,1 z" style="fill:#4f5b66;fill-opacity:1"/><path id="path10" fill="#1c274c" d="m 18,10 c 0.5523,0 1,-0.44772 1,-1 0,-0.55228 -0.4477,-1 -1,-1 -0.5523,0 -1,0.44772 -1,1 0,0.55228 0.4477,1 1,1 z" style="fill:#4f5b66;fill-opacity:1"/><path id="path11" fill="#1c274c" d="m 18,13 c 0.5523,0 1,-0.4477 1,-1 0,-0.5523 -0.4477,-1 -1,-1 -0.5523,0 -1,0.4477 -1,1 0,0.5523 0.4477,1 1,1 z" style="fill:#4f5b66;fill-opacity:1"/><path id="path12" fill="#1c274c" d="m 17.75,16 c 0,0.4142 -0.3358,0.75 -0.75,0.75 H 7 C 6.58579,16.75 6.25,16.4142 6.25,16 6.25,15.5858 6.58579,15.25 7,15.25 h 10 c 0.4142,0 0.75,0.3358 0.75,0.75 z" style="fill:#4f5b66;fill-opacity:1"/></g></svg>