<svg aria-hidden="true" focusable="false" data-prefix="fas" data-icon="mandolin" role="img" xmlns="http://www.w3.org/2000/svg" viewBox="0 0 512 512" class="svg-inline--fa fa-mandolin fa-w-16"><path fill="currentColor" d="M507.31 50.67l-46-46a16 16 0 0 0-19.81-2.25l-64 40.07a32 32 0 0 0-14 19.11L349 117.73l-74.46 74.46C90.38 190.67 46 241 30.74 256.28c-46.81 46.79-39.52 150.36 17.54 207.45s160.65 64.34 207.44 17.53C271 466 321.32 421.62 319.8 237.45L394.27 163l56.11-14.51a32 32 0 0 0 19.11-14l40.07-64a16 16 0 0 0-2.25-19.82zM208 352a48 48 0 1 1 48-48 48 48 0 0 1-48 48z" class=""></path></svg>
