<svg aria-hidden="true" focusable="false" data-prefix="fas" data-icon="moon-stars" role="img" xmlns="http://www.w3.org/2000/svg" viewBox="0 0 512 512" class="svg-inline--fa fa-moon-stars fa-w-16"><path fill="#cddbf9" d="M332.2 426.4c-93.1 17.7-178.5-53.7-178.5-147.7 0-54.2 29-104 76.1-130.8 7.3-4.1 5.4-15.1-2.8-16.7C108.7 109.4 0 200 0 320c0 106 85.8 192 191.8 192 59.2 0 113.2-26.9 149-71.1 5.3-6.5-.5-16.1-8.6-14.5zM304 96l16-32 32-16-32-16-16-32-16 32-32 16 32 16 16 32zm154.7 85.3L432 128l-26.7 53.3L352 208l53.3 26.7L432 288l26.7-53.3L512 208l-53.3-26.7z" class=""></path></svg>
