<svg aria-hidden="true" focusable="false" data-prefix="far" data-icon="coffee-togo" role="img" xmlns="http://www.w3.org/2000/svg" viewBox="0 0 448 512" class="svg-inline--fa fa-coffee-togo fa-w-14"><path fill="#ebe3b9" d="M432 96h-16l-24.71-74.12C386.94 8.81 374.71 0 360.94 0h-274C73.16 0 61.07 8.81 56.71 21.88L32 96H16c-8.84 0-16 7.16-16 16v32c0 8.84 7.16 16 16 16h19.84l25.8 322.55C62.97 499.18 76.86 512 93.54 512h260.92c16.68 0 30.57-12.82 31.9-29.45L412.16 160H432c8.84 0 16-7.16 16-16v-32c0-8.84-7.16-16-16-16zM98.6 48h250.8l21.33 64H77.26L98.6 48zm9.71 416l-7.68-96h246.73l-7.68 96H108.31zm250.58-240H89.11l-5.12-64H364l-5.11 64z" class=""></path></svg>
