<?xml version="1.0" encoding="UTF-8" standalone="no"?>
<!-- Uploaded to: SVG Repo, www.svgrepo.com, Generator: SVG Repo Mixer Tools -->

<svg
   height="100px"
   width="100px"
   version="1.1"
   id="Layer_1"
   viewBox="0 0 512.001 512.001"
   xml:space="preserve"
   sodipodi:docname="color_palette4.svg"
   inkscape:version="1.2.2 (b0a8486541, 2022-12-01)"
   xmlns:inkscape="http://www.inkscape.org/namespaces/inkscape"
   xmlns:sodipodi="http://sodipodi.sourceforge.net/DTD/sodipodi-0.dtd"
   xmlns="http://www.w3.org/2000/svg"
   xmlns:svg="http://www.w3.org/2000/svg"><defs
   id="defs21" /><sodipodi:namedview
   id="namedview19"
   pagecolor="#ffffff"
   bordercolor="#000000"
   borderopacity="0.25"
   inkscape:showpageshadow="2"
   inkscape:pageopacity="0.0"
   inkscape:pagecheckerboard="0"
   inkscape:deskcolor="#d1d1d1"
   showgrid="false"
   inkscape:zoom="6.1942554"
   inkscape:cx="-14.933191"
   inkscape:cy="62.315803"
   inkscape:window-width="2540"
   inkscape:window-height="1028"
   inkscape:window-x="0"
   inkscape:window-y="0"
   inkscape:window-maximized="1"
   inkscape:current-layer="Layer_1" />
<path
   style="fill:#e9e9e9;stroke-width:0.9"
   d="m 98.214724,413.78443 c 96.611396,96.6114 252.242996,96.8535 349.140596,0.5283 0.7065,-0.702 1.4076,-1.4076 2.1024,-2.1159 52.1208,-53.0532 48.6333,-138.7269 -7.5654,-187.4394 -33.795,-29.2932 -65.6181,-41.6673 -89.2998,-65.3499 -23.6817,-23.6826 -36.0567,-55.5066 -65.3499,-89.299797 -48.7116,-56.1978 -134.3853,-59.6844 -187.438496,-7.5654 -0.7083,0.6948 -1.4139,1.3968 -2.1159,2.1024 C 1.3630244,161.54323 1.6033244,317.17393 98.214724,413.78443 Z"
   id="path2" />
<path
   style="fill:#d4d4d4;stroke-width:0.9"
   d="m 98.214724,413.78443 c 96.611396,96.6114 252.242996,96.8535 349.140596,0.5283 0.7065,-0.702 1.4076,-1.4076 2.1024,-2.1159 52.1208,-53.0532 48.6333,-138.7269 -7.5654,-187.4394 -33.795,-29.2932 -65.6181,-41.6673 -89.2998,-65.3499 0,0 -254.377796,254.3769 -254.377796,254.3769 z"
   id="path4" />
<circle
   style="fill:#d1393c;stroke-width:0.9"
   cx="165.75342"
   cy="346.24753"
   r="35.241302"
   id="circle6" />
<path
   style="fill:#bc2029;stroke-width:0.9"
   d="m 190.67892,321.32203 c 13.7637,13.7637 13.7637,36.0783 0,49.8429 -13.7637,13.7637 -36.0783,13.7637 -49.8429,0 z"
   id="path8" />
<circle
   style="fill:#80cdd8;stroke-width:0.9"
   cx="282.41592"
   cy="387.05801"
   r="35.241302"
   id="circle10" />
<circle
   style="fill:#3a7484;stroke-width:0.9"
   cx="387.0571"
   cy="321.30402"
   r="35.241302"
   id="circle12" />
<circle
   style="fill:#e68d2c;stroke-width:0.9"
   cx="190.69691"
   cy="124.94293"
   r="35.241302"
   id="circle14" />
<circle
   style="fill:#e06b34;stroke-width:0.9"
   cx="124.94292"
   cy="229.58502"
   r="35.241302"
   id="circle16" />
</svg>
