<?xml version="1.0" encoding="UTF-8" standalone="no"?>
<!-- Created with Inkscape (http://www.inkscape.org/) -->

<svg
   version="1.1"
   id="svg55"
   width="392.3269"
   height="392.3269"
   viewBox="0 0 392.32692 392.32692"
   sodipodi:docname="pokeball.svg"
   inkscape:version="1.1 (c4e8f9ed74, 2021-05-24)"
   xmlns:inkscape="http://www.inkscape.org/namespaces/inkscape"
   xmlns:sodipodi="http://sodipodi.sourceforge.net/DTD/sodipodi-0.dtd"
   xmlns="http://www.w3.org/2000/svg"
   xmlns:svg="http://www.w3.org/2000/svg">
  <defs
     id="defs59" />
  <sodipodi:namedview
     id="namedview57"
     pagecolor="#ffffff"
     bordercolor="#666666"
     borderopacity="1.0"
     inkscape:pageshadow="2"
     inkscape:pageopacity="0.0"
     inkscape:pagecheckerboard="0"
     showgrid="false"
     fit-margin-top="0"
     fit-margin-left="0"
     fit-margin-right="0"
     fit-margin-bottom="0"
     inkscape:zoom="1.1069831"
     inkscape:cx="302.17263"
     inkscape:cy="187.4464"
     inkscape:window-width="1028"
     inkscape:window-height="949"
     inkscape:window-x="836"
     inkscape:window-y="16"
     inkscape:window-maximized="1"
     inkscape:current-layer="g61" />
  <g
     inkscape:groupmode="layer"
     inkscape:label="Image"
     id="g61"
     transform="translate(-68.956512,-11.326852)">
    <path
       style="fill:#eeb9ba;fill-opacity:1;stroke-width:0.10799"
       d="m 257.12872,403.53529 c -15.50063,-0.63883 -31.04319,-3.1237 -45.78767,-7.3203 C 172.3561,385.11906 137.66803,362.07496 112.16185,330.32797 97.120695,311.60656 85.679342,290.40129 78.36216,267.68404 70.07158,241.94473 67.217498,214.5675 69.987299,187.34981 74.090483,147.0295 90.65022,109.00018 117.43418,78.388358 122.73887,72.325544 129.95534,65.109088 136.01817,59.80441 175.00411,25.693623 225.53336,8.5020351 277.3768,11.709901 c 30.22401,1.870141 59.11408,10.534899 85.41993,25.619285 21.96518,12.595353 41.69141,29.763009 57.33209,49.895882 24.11016,31.034922 38.22798,68.246842 40.77224,107.468022 0.5015,7.73085 0.52331,17.08317 0.0578,24.78362 -2.62579,43.43661 -19.55109,84.57998 -48.25639,117.30554 -5.481,6.24861 -12.04121,12.80881 -18.28984,18.28979 -32.72563,28.70524 -73.86909,45.6305 -117.30581,48.25628 -5.32702,0.32203 -14.80431,0.42021 -19.97811,0.20697 z m 15.11857,-21.58765 c 25.14739,-1.11409 48.31535,-7.03307 70.40934,-17.98821 33.78504,-16.75211 61.34442,-44.1204 78.39676,-77.85318 10.47547,-20.72248 16.64877,-43.20837 18.24806,-66.46757 0.32485,-4.72422 0.41318,-8.28334 0.35107,-14.14439 -0.0688,-6.49636 -0.20003,-9.13187 -0.7338,-14.74281 -1.71342,-18.01105 -6.23771,-35.69703 -13.35673,-52.21294 -1.47783,-3.42853 -3.40392,-7.55927 -3.52475,-7.55927 -0.0439,0 -80.312,46.32333 -80.40011,46.39955 -0.0262,0.0226 0.0658,0.3437 0.20447,0.71349 0.74895,1.99764 2.11616,6.22229 2.59408,8.01561 1.77385,6.65613 2.6378,12.8412 2.77553,19.87009 0.41102,20.97542 -7.08818,41.03142 -21.15844,56.58652 -11.03548,12.20005 -25.3157,20.7464 -41.22744,24.6736 -9.7063,2.39563 -20.10548,2.99093 -30.11109,1.72375 -10.392,-1.31613 -20.45303,-4.63371 -29.71248,-9.79753 -8.59461,-4.79305 -16.44905,-11.33286 -23.01513,-19.16298 -0.61087,-0.72845 -1.14009,-1.3154 -1.17607,-1.30432 -0.036,0.0111 -18.0671,10.41348 -40.06918,23.11644 -22.00207,12.70296 -40.08914,23.14401 -40.19349,23.20231 -0.1749,0.0977 -0.16597,0.13942 0.11426,0.53327 0.16719,0.23498 0.87946,1.25338 1.58283,2.26308 8.35436,11.99292 19.27515,23.89495 30.67359,33.42966 14.48326,12.1151 30.38708,21.62829 47.67749,28.51922 12.50512,4.98378 25.66234,8.5178 38.88686,10.445 6.70271,0.97677 11.92235,1.45686 19.31964,1.77695 1.89796,0.082 11.35449,0.0573 13.44473,-0.0353 z m -2.64034,-115.66372 c 14.17442,-1.11484 27.18809,-7.10087 37.1972,-17.10996 10.00912,-10.00909 15.99516,-23.02274 17.11,-37.19713 0.16915,-2.15063 0.14124,-7.29454 -0.0516,-9.50848 -1.06182,-12.19064 -5.7236,-23.44394 -13.64281,-32.93301 -1.46844,-1.75953 -4.65056,-4.97718 -6.48157,-6.55396 -9.94948,-8.56797 -21.76463,-13.40995 -34.89257,-14.29939 -2.08124,-0.141 -7.18184,-0.0785 -9.07114,0.11117 -11.30672,1.13505 -21.24444,4.98483 -30.11783,11.66736 -2.36465,1.78081 -3.86715,3.09166 -6.12181,5.34096 -2.24899,2.24364 -3.65107,3.84709 -5.44335,6.22514 -6.67885,8.86171 -10.53324,18.81046 -11.66835,30.11776 -0.18966,1.8893 -0.25217,6.98988 -0.11117,9.07112 0.79626,11.75261 4.71506,22.34738 11.72336,31.69493 3.24597,4.32942 7.38224,8.46748 11.73845,11.74354 7.93352,5.96636 17.47503,9.89934 27.30181,11.25374 3.35383,0.46225 9.20433,0.63788 12.53137,0.37621 z"
       id="path307" />
  </g>
</svg>
