<svg aria-hidden="true" focusable="false" data-prefix="fas" data-icon="book-spells" role="img" xmlns="http://www.w3.org/2000/svg" viewBox="0 0 448 512" class="svg-inline--fa fa-book-spells fa-w-14"><path fill="#ebe3b9" d="M448 358.4V25.6c0-16-9.6-25.6-25.6-25.6H96C41.6 0 0 41.6 0 96v320c0 54.4 41.6 96 96 96h326.4c12.8 0 25.6-9.6 25.6-25.6v-16c0-6.4-3.2-12.8-9.6-19.2-3.2-16-3.2-60.8 0-73.6 6.4-3.2 9.6-9.6 9.6-19.2zM272 160l26.66 53.33L352 240l-53.34 26.67L272 320l-26.66-53.33L192 240l53.34-26.67L272 160zM160 96l16-32 16 32 32 16-32 16-16 32-16-32-32-16 32-16zm220.8 352H96c-19.2 0-32-12.8-32-32s16-32 32-32h284.8v64z" class=""></path></svg>
