<svg aria-hidden="true" focusable="false" data-prefix="fas" data-icon="stars" role="img" xmlns="http://www.w3.org/2000/svg" viewBox="0 0 512 512" class="svg-inline--fa fa-stars fa-w-16"><path fill="#ebe3b9" d="M259.69042,85.96457l49.64549,20.69969,20.70353,49.643a6.65746,6.65746,0,0,0,11.926,0L362.667,106.66426l49.64549-20.69969a6.66574,6.66574,0,0,0,0-11.92493L362.667,53.338,341.96545,3.697a6.65746,6.65746,0,0,0-11.926,0L309.33591,53.338,259.69042,74.03964a6.66574,6.66574,0,0,0,0,11.92493ZM364.294,267.29343,259.4951,251.99764l-46.90716-95.19633c-8.39078-16.99879-32.68813-17.2019-41.18829,0l-46.90716,95.19633L19.69358,267.29343C.89634,269.99636-6.71318,293.19783,6.99021,306.49376l75.90772,73.99472L64.89758,485.07476c-3.20319,18.9049,16.68782,33.107,33.29752,24.2014l93.7987-49.3871,93.79869,49.3871A22.95361,22.95361,0,0,0,319.09,485.07476L301.199,380.48848l75.89209-73.99472C390.70077,293.19783,383.09125,269.99636,364.294,267.29343ZM509.05268,219.2285,469.339,202.67109,452.7801,162.961a5.32691,5.32691,0,0,0-9.5412,0L426.678,202.67109l-39.7117,16.55741a5.33385,5.33385,0,0,0,0,9.54033L426.678,245.3282l16.56087,39.7081a5.32534,5.32534,0,0,0,9.5412,0L469.339,245.3282l39.71366-16.55937a5.33386,5.33386,0,0,0,0-9.54033Z" class=""></path></svg>
